<svg width="103" height="103" viewBox="0 0 103 103" fill="none" xmlns="http://www.w3.org/2000/svg">
<path d="M32.7619 16.457H20.0409C18.2844 16.457 16.8606 17.8809 16.8606 19.6373V83.2425C16.8606 84.9989 18.2844 86.4228 20.0409 86.4228H32.7619C34.5183 86.4228 35.9422 84.9989 35.9422 83.2425V19.6373C35.9422 17.8809 34.5183 16.457 32.7619 16.457Z" stroke="#00AFEF" stroke-width="3.31853" stroke-linecap="round" stroke-linejoin="round"/>
<path d="M16.8606 32.3584H35.9422" stroke="#00AFEF" stroke-width="3.31853" stroke-linecap="round" stroke-linejoin="round"/>
<path d="M51.8436 16.457H39.1225C37.3661 16.457 35.9423 17.8809 35.9423 19.6373V83.2425C35.9423 84.9989 37.3661 86.4228 39.1225 86.4228H51.8436C53.6 86.4228 55.0238 84.9989 55.0238 83.2425V19.6373C55.0238 17.8809 53.6 16.457 51.8436 16.457Z" stroke="#00AFEF" stroke-width="3.31853" stroke-linecap="round" stroke-linejoin="round"/>
<path d="M35.9423 70.5215H55.0238" stroke="#00AFEF" stroke-width="3.31853" stroke-linecap="round" stroke-linejoin="round"/>
<path d="M70.7398 15.4174L58.4004 18.7249C56.6967 19.1816 55.6858 20.9329 56.1424 22.6366L72.6798 84.3337C73.1364 86.0374 74.8878 87.0483 76.5915 86.5917L88.9309 83.2842C90.6346 82.8275 91.6456 81.0762 91.1889 79.3725L74.6515 17.6754C74.1949 15.9717 72.4435 14.9608 70.7398 15.4174Z" stroke="#00AFEF" stroke-width="3.31853" stroke-linecap="round" stroke-linejoin="round"/>
<path d="M69.0173 71.7934L87.4628 66.8242" stroke="#00AFEF" stroke-width="3.31853" stroke-linecap="round" stroke-linejoin="round"/>
<path d="M59.1589 34.903L77.6044 29.9736" stroke="#00AFEF" stroke-width="3.31853" stroke-linecap="round" stroke-linejoin="round"/>
</svg>
