<svg width="264" height="800" viewBox="0 0 264 800" fill="none" xmlns="http://www.w3.org/2000/svg">
<path d="M196.889 0H114.556L72.3333 244.267L123 226.133L66 648.533L100.833 633.6L82.8889 800L144.111 578.133L110.333 590.933L199 152.533L155.722 167.467L196.889 0Z" fill="url(#paint0_linear_5_20)"/>
<g filter="url(#filter0_dd_5_20)">
<circle cx="132" cy="352" r="100" fill="#00AFEF"/>
</g>
<path d="M93.92 385C92.832 385 91.968 384.712 91.328 384.136C90.688 383.56 90.24 382.888 89.984 382.12L70.4 320.68C70.272 320.36 70.208 320.072 70.208 319.816C70.208 319.304 70.4 318.856 70.784 318.472C71.232 318.024 71.744 317.8 72.32 317.8H84.224C85.248 317.8 86.048 318.088 86.624 318.664C87.2 319.24 87.552 319.784 87.68 320.296L101.216 364.648L114.848 320.296C115.04 319.784 115.392 319.24 115.904 318.664C116.48 318.088 117.28 317.8 118.304 317.8H130.208C130.784 317.8 131.264 318.024 131.648 318.472C132.096 318.856 132.32 319.304 132.32 319.816C132.32 320.072 132.256 320.36 132.128 320.68L112.544 382.12C112.288 382.888 111.84 383.56 111.2 384.136C110.624 384.712 109.76 385 108.608 385H93.92ZM164.089 385.96C157.689 385.96 152.377 385.064 148.153 383.272C143.929 381.416 140.729 379.016 138.553 376.072C136.377 373.128 135.225 369.992 135.097 366.664C135.097 366.152 135.289 365.704 135.673 365.32C136.121 364.872 136.633 364.648 137.209 364.648H149.305C150.201 364.648 150.873 364.808 151.321 365.128C151.833 365.448 152.281 365.864 152.665 366.376C153.177 367.336 153.881 368.264 154.777 369.16C155.737 370.056 156.953 370.792 158.425 371.368C159.961 371.88 161.849 372.136 164.089 372.136C167.801 372.136 170.585 371.56 172.441 370.408C174.361 369.256 175.321 367.688 175.321 365.704C175.321 364.296 174.809 363.144 173.785 362.248C172.761 361.288 171.097 360.456 168.793 359.752C166.553 358.984 163.545 358.216 159.769 357.448C154.905 356.424 150.745 355.112 147.289 353.512C143.897 351.848 141.305 349.704 139.513 347.08C137.721 344.392 136.825 341.064 136.825 337.096C136.825 333.192 137.913 329.704 140.089 326.632C142.329 323.56 145.433 321.16 149.401 319.432C153.369 317.704 158.073 316.84 163.513 316.84C167.929 316.84 171.801 317.416 175.129 318.568C178.521 319.72 181.369 321.256 183.673 323.176C185.977 325.096 187.705 327.144 188.857 329.32C190.073 331.432 190.713 333.512 190.777 335.56C190.777 336.072 190.585 336.552 190.201 337C189.817 337.384 189.337 337.576 188.76 337.576H176.089C175.385 337.576 174.777 337.448 174.265 337.192C173.753 336.936 173.305 336.52 172.921 335.944C172.537 334.536 171.513 333.32 169.849 332.296C168.249 331.208 166.137 330.664 163.513 330.664C160.697 330.664 158.489 331.176 156.889 332.2C155.353 333.16 154.585 334.664 154.585 336.712C154.585 337.992 155.001 339.112 155.833 340.072C156.729 341.032 158.169 341.864 160.153 342.568C162.201 343.272 164.985 344.008 168.505 344.776C174.329 345.864 179.033 347.24 182.617 348.904C186.201 350.504 188.825 352.616 190.489 355.24C192.153 357.8 192.985 361.032 192.985 364.936C192.985 369.288 191.737 373.064 189.241 376.264C186.809 379.4 183.417 381.8 179.065 383.464C174.713 385.128 169.721 385.96 164.089 385.96Z" fill="white"/>
<defs>
<filter id="filter0_dd_5_20" x="0" y="240" width="264" height="264" filterUnits="userSpaceOnUse" color-interpolation-filters="sRGB">
<feFlood flood-opacity="0" result="BackgroundImageFix"/>
<feColorMatrix in="SourceAlpha" type="matrix" values="0 0 0 0 0 0 0 0 0 0 0 0 0 0 0 0 0 0 127 0" result="hardAlpha"/>
<feOffset dy="20"/>
<feGaussianBlur stdDeviation="16"/>
<feColorMatrix type="matrix" values="0 0 0 0 0.376471 0 0 0 0 0.380392 0 0 0 0 0.439216 0 0 0 0.24 0"/>
<feBlend mode="normal" in2="BackgroundImageFix" result="effect1_dropShadow_5_20"/>
<feColorMatrix in="SourceAlpha" type="matrix" values="0 0 0 0 0 0 0 0 0 0 0 0 0 0 0 0 0 0 127 0" result="hardAlpha"/>
<feOffset dy="2"/>
<feGaussianBlur stdDeviation="4"/>
<feColorMatrix type="matrix" values="0 0 0 0 0.156863 0 0 0 0 0.160784 0 0 0 0 0.239216 0 0 0 0.08 0"/>
<feBlend mode="normal" in2="effect1_dropShadow_5_20" result="effect2_dropShadow_5_20"/>
<feBlend mode="normal" in="SourceGraphic" in2="effect2_dropShadow_5_20" result="shape"/>
</filter>
<linearGradient id="paint0_linear_5_20" x1="132.5" y1="0" x2="132.5" y2="800" gradientUnits="userSpaceOnUse">
<stop stop-color="#00AFEF" stop-opacity="0.34"/>
<stop offset="1" stop-color="#00AFEF" stop-opacity="0"/>
</linearGradient>
</defs>
</svg>
