<svg width="127" height="126" viewBox="0 0 127 126" fill="none" xmlns="http://www.w3.org/2000/svg">
<path d="M63.5404 78.5636C74.3628 78.5636 83.1361 69.7903 83.1361 58.9678C83.1361 48.1454 74.3628 39.3721 63.5404 39.3721C52.7179 39.3721 43.9446 48.1454 43.9446 58.9678C43.9446 69.7903 52.7179 78.5636 63.5404 78.5636Z" stroke="#00AFEF" stroke-width="3.76239" stroke-miterlimit="10"/>
<path d="M32.0889 97.8664C35.0376 92.0583 39.537 87.1801 45.0884 83.7727C50.6398 80.3652 57.0263 78.5615 63.5401 78.5615C70.0538 78.5615 76.4404 80.3652 81.9918 83.7727C87.5432 87.1801 92.0426 92.0583 94.9913 97.8664" stroke="#00AFEF" stroke-width="3.76239" stroke-linecap="round" stroke-linejoin="round"/>
<path d="M98.8129 35.453C103.142 35.453 106.651 31.9437 106.651 27.6147C106.651 23.2857 103.142 19.7764 98.8129 19.7764C94.4839 19.7764 90.9746 23.2857 90.9746 27.6147C90.9746 31.9437 94.4839 35.453 98.8129 35.453Z" stroke="#00AFEF" stroke-width="3.76239" stroke-linecap="round" stroke-linejoin="round"/>
<path d="M98.813 19.7762V13.8975" stroke="#00AFEF" stroke-width="3.76239" stroke-linecap="round" stroke-linejoin="round"/>
<path d="M92.0032 23.6952L86.9573 20.7559" stroke="#00AFEF" stroke-width="3.76239" stroke-linecap="round" stroke-linejoin="round"/>
<path d="M92.0032 31.5342L86.9573 34.4735" stroke="#00AFEF" stroke-width="3.76239" stroke-linecap="round" stroke-linejoin="round"/>
<path d="M98.813 35.4531V41.3319" stroke="#00AFEF" stroke-width="3.76239" stroke-linecap="round" stroke-linejoin="round"/>
<path d="M105.622 31.5342L110.668 34.4735" stroke="#00AFEF" stroke-width="3.76239" stroke-linecap="round" stroke-linejoin="round"/>
<path d="M105.622 23.6952L110.668 20.7559" stroke="#00AFEF" stroke-width="3.76239" stroke-linecap="round" stroke-linejoin="round"/>
<path d="M110.227 57.2544C110.465 59.1227 110.58 61.0047 110.57 62.8881C110.57 72.1898 107.812 81.2825 102.644 89.0165C97.4766 96.7506 90.1315 102.778 81.5379 106.338C72.9444 109.898 63.4882 110.829 54.3653 109.014C45.2424 107.2 36.8625 102.721 30.2852 96.1433C23.708 89.566 19.2288 81.1861 17.4142 72.0632C15.5995 62.9403 16.5309 53.4842 20.0905 44.8906C23.65 36.297 29.678 28.9519 37.412 23.7842C45.146 18.6165 54.2388 15.8583 63.5404 15.8583C64.9961 15.8491 66.4514 15.9145 67.9004 16.0542" stroke="#00AFEF" stroke-width="3.76239" stroke-linecap="round" stroke-linejoin="round"/>
</svg>
