<svg width="180" height="92" viewBox="0 0 180 92" fill="none" xmlns="http://www.w3.org/2000/svg">
<rect x="44.4244" y="6.99512" width="29.2129" height="28.0893" rx="4.49429" fill="#00AFEF"/>
<rect x="44.4244" y="40.7021" width="29.2129" height="28.0893" rx="4.49429" fill="#00AFEF"/>
<rect x="9.59375" y="40.7021" width="29.2129" height="28.0893" rx="4.49429" fill="#00AFEF"/>
<rect x="0.605164" y="0.253906" width="38.2014" height="35.9543" rx="4.49429" fill="#FFC164"/>
<line x1="20.2677" y1="9.8045" x2="20.2677" y2="27.7816" stroke="white" stroke-width="3.37071" stroke-linecap="round"/>
<line x1="11.2791" y1="18.7932" x2="29.2562" y2="18.7932" stroke="white" stroke-width="3.37071" stroke-linecap="round"/>
<g filter="url(#filter0_b_10291_77920)">
<rect x="43.3008" y="38.4561" width="135.952" height="52.8079" rx="11.2357" fill="#EDEDFF" fill-opacity="0.5"/>
<rect x="43.8626" y="39.0178" width="134.829" height="51.6843" rx="10.6739" stroke="#EAEAF7" stroke-width="1.12357" style="mix-blend-mode:multiply"/>
</g>
<path d="M62.6122 71.2539V56.8165H64.9822V71.2539H62.6122ZM74.255 60.1147C75.4861 60.1147 76.444 60.434 77.1287 61.0726C77.8199 61.7046 78.1656 62.7218 78.1656 64.1241V71.2539H75.8449V64.5586C75.8449 63.7093 75.6704 63.074 75.3215 62.6527C74.9726 62.2247 74.4328 62.0108 73.702 62.0108C72.6421 62.0108 71.9047 62.3367 71.49 62.9884C71.0818 63.6402 70.8777 64.5849 70.8777 65.8226V71.2539H68.557V60.3221H70.3642L70.6901 61.8034H70.8185C71.0555 61.4216 71.3484 61.1088 71.6973 60.8653C72.0528 60.6151 72.4479 60.4275 72.8824 60.3024C73.3234 60.1773 73.781 60.1147 74.255 60.1147ZM85.483 69.5751C85.7859 69.5751 86.0854 69.5488 86.3817 69.4961C86.6779 69.4369 86.9478 69.3678 87.1914 69.2888V71.0465C86.9347 71.1584 86.6022 71.2539 86.194 71.3329C85.7859 71.4119 85.3612 71.4514 84.9202 71.4514C84.3013 71.4514 83.745 71.3494 83.2513 71.1453C82.7575 70.9346 82.3658 70.5758 82.0761 70.0689C81.7864 69.562 81.6416 68.8608 81.6416 67.9655V62.0898H80.1505V61.0529L81.7502 60.2333L82.5106 57.8928H83.9721V60.3221H87.1026V62.0898H83.9721V67.9359C83.9721 68.4889 84.1104 68.9003 84.3869 69.1703C84.6634 69.4402 85.0288 69.5751 85.483 69.5751ZM93.7683 60.1147C94.7426 60.1147 95.5787 60.3155 96.2766 60.7171C96.9744 61.1187 97.511 61.6882 97.8862 62.4255C98.2615 63.1629 98.4491 64.0451 98.4491 65.0721V66.3163H91.1514C91.1777 67.3763 91.4608 68.1926 92.0006 68.7654C92.5471 69.3381 93.3107 69.6245 94.2917 69.6245C94.9895 69.6245 95.6149 69.5587 96.1679 69.427C96.7275 69.2888 97.3036 69.088 97.8961 68.8246V70.7108C97.3497 70.9675 96.7934 71.1552 96.2272 71.2737C95.661 71.3922 94.9829 71.4514 94.1929 71.4514C93.1198 71.4514 92.1751 71.244 91.3587 70.8293C90.549 70.4079 89.9137 69.7825 89.4528 68.953C88.9986 68.1235 88.7715 67.0932 88.7715 65.8621C88.7715 64.6376 88.9788 63.5974 89.3936 62.7415C89.8083 61.8857 90.391 61.2339 91.1415 60.7863C91.892 60.3386 92.7676 60.1147 93.7683 60.1147ZM93.7683 61.8626C93.0375 61.8626 92.445 62.0997 91.9908 62.5737C91.5431 63.0477 91.2797 63.7422 91.2007 64.6573H96.1778C96.1712 64.1109 96.0791 63.627 95.9013 63.2057C95.7301 62.7843 95.4668 62.4552 95.1113 62.2182C94.7624 61.9812 94.3147 61.8626 93.7683 61.8626ZM104.187 76.1125C102.705 76.1125 101.57 75.8458 100.78 75.3126C99.9896 74.7793 99.5946 74.0321 99.5946 73.0709C99.5946 72.3994 99.8053 71.83 100.227 71.3625C100.648 70.9017 101.25 70.5824 102.034 70.4046C101.738 70.273 101.481 70.0689 101.264 69.7924C101.053 69.5093 100.948 69.1966 100.948 68.8542C100.948 68.4461 101.063 68.0972 101.293 67.8075C101.524 67.5178 101.869 67.238 102.33 66.9681C101.757 66.7245 101.296 66.3295 100.948 65.7831C100.605 65.2301 100.434 64.5816 100.434 63.8377C100.434 63.0477 100.602 62.3762 100.938 61.8231C101.273 61.2636 101.764 60.8389 102.409 60.5493C103.054 60.253 103.834 60.1049 104.749 60.1049C104.947 60.1049 105.161 60.118 105.391 60.1444C105.628 60.1641 105.846 60.1905 106.043 60.2234C106.247 60.2497 106.402 60.2793 106.507 60.3123H110.289V61.6059L108.433 61.9515C108.611 62.2017 108.752 62.4881 108.857 62.8107C108.963 63.1267 109.015 63.4723 109.015 63.8476C109.015 64.9799 108.624 65.872 107.84 66.5237C107.064 67.1689 105.99 67.4915 104.621 67.4915C104.292 67.4783 103.973 67.452 103.663 67.4125C103.426 67.5573 103.245 67.7186 103.12 67.8964C102.995 68.0675 102.932 68.2617 102.932 68.479C102.932 68.6567 102.995 68.8016 103.12 68.9135C103.245 69.0188 103.429 69.0978 103.673 69.1505C103.923 69.2032 104.226 69.2295 104.582 69.2295H106.468C107.666 69.2295 108.581 69.483 109.213 69.9899C109.845 70.4968 110.161 71.2407 110.161 72.2217C110.161 73.4659 109.648 74.4238 108.62 75.0953C107.593 75.7734 106.115 76.1125 104.187 76.1125ZM104.275 74.4831C105.085 74.4831 105.767 74.4041 106.32 74.2461C106.873 74.0881 107.291 73.8609 107.574 73.5647C107.857 73.275 107.998 72.9294 107.998 72.5278C107.998 72.1723 107.909 71.8991 107.732 71.7082C107.554 71.5172 107.287 71.3856 106.932 71.3132C106.576 71.2407 106.135 71.2045 105.609 71.2045H103.89C103.462 71.2045 103.084 71.2704 102.755 71.402C102.425 71.5403 102.169 71.7378 101.984 71.9945C101.807 72.2513 101.718 72.5607 101.718 72.9228C101.718 73.4231 101.938 73.8083 102.379 74.0782C102.827 74.3481 103.459 74.4831 104.275 74.4831ZM104.73 65.9707C105.408 65.9707 105.911 65.7864 106.241 65.4177C106.57 65.0424 106.734 64.5158 106.734 63.8377C106.734 63.1003 106.563 62.5473 106.221 62.1787C105.885 61.81 105.385 61.6256 104.72 61.6256C104.068 61.6256 103.571 61.8133 103.229 62.1885C102.893 62.5638 102.725 63.1201 102.725 63.8574C102.725 64.5224 102.893 65.0424 103.229 65.4177C103.571 65.7864 104.071 65.9707 104.73 65.9707ZM117.824 60.1147C118.008 60.1147 118.209 60.1246 118.427 60.1444C118.644 60.1641 118.831 60.1905 118.989 60.2234L118.772 62.3959C118.634 62.3564 118.463 62.3268 118.259 62.307C118.061 62.2873 117.883 62.2774 117.725 62.2774C117.311 62.2774 116.916 62.3465 116.54 62.4848C116.165 62.6165 115.833 62.8205 115.543 63.097C115.253 63.367 115.026 63.706 114.862 64.1142C114.697 64.5224 114.615 64.9964 114.615 65.5362V71.2539H112.284V60.3221H114.101L114.417 62.2478H114.526C114.743 61.8594 115.013 61.5039 115.336 61.1813C115.658 60.8587 116.027 60.6019 116.442 60.411C116.863 60.2135 117.324 60.1147 117.824 60.1147ZM125.3 60.1147C126.682 60.1147 127.726 60.4209 128.43 61.0331C129.141 61.6454 129.497 62.6 129.497 63.8969V71.2539H127.847L127.403 69.7035H127.324C127.015 70.0985 126.695 70.4244 126.366 70.6811C126.037 70.9379 125.655 71.1288 125.221 71.2539C124.793 71.3856 124.269 71.4514 123.65 71.4514C122.999 71.4514 122.416 71.3329 121.903 71.0959C121.389 70.8523 120.984 70.4836 120.688 69.9899C120.392 69.4961 120.244 68.8707 120.244 68.1136C120.244 66.9878 120.662 66.1419 121.498 65.5757C122.34 65.0095 123.611 64.6968 125.309 64.6376L127.205 64.5684V63.9957C127.205 63.2386 127.028 62.6987 126.672 62.3762C126.323 62.0536 125.83 61.8923 125.191 61.8923C124.645 61.8923 124.115 61.9713 123.601 62.1293C123.088 62.2873 122.587 62.4815 122.1 62.7119L121.35 61.0726C121.883 60.7896 122.488 60.5591 123.167 60.3814C123.851 60.2036 124.562 60.1147 125.3 60.1147ZM127.196 66.03L125.783 66.0793C124.625 66.1188 123.812 66.3163 123.344 66.6718C122.877 67.0273 122.643 67.5145 122.643 68.1334C122.643 68.6732 122.804 69.0682 123.127 69.3184C123.45 69.562 123.874 69.6838 124.401 69.6838C125.204 69.6838 125.869 69.4566 126.396 69.0024C126.929 68.5415 127.196 67.8667 127.196 66.978V66.03ZM136.814 69.5751C137.117 69.5751 137.416 69.5488 137.713 69.4961C138.009 69.4369 138.279 69.3678 138.522 69.2888V71.0465C138.266 71.1584 137.933 71.2539 137.525 71.3329C137.117 71.4119 136.692 71.4514 136.251 71.4514C135.632 71.4514 135.076 71.3494 134.582 71.1453C134.088 70.9346 133.697 70.5758 133.407 70.0689C133.117 69.562 132.973 68.8608 132.973 67.9655V62.0898H131.481V61.0529L133.081 60.2333L133.842 57.8928H135.303V60.3221H138.434V62.0898H135.303V67.9359C135.303 68.4889 135.441 68.9003 135.718 69.1703C135.994 69.4402 136.36 69.5751 136.814 69.5751ZM143.065 60.3221V71.2539H140.744V60.3221H143.065ZM141.919 56.1351C142.275 56.1351 142.581 56.2305 142.838 56.4214C143.101 56.6124 143.233 56.9415 143.233 57.409C143.233 57.8698 143.101 58.199 142.838 58.3965C142.581 58.5874 142.275 58.6829 141.919 58.6829C141.551 58.6829 141.238 58.5874 140.981 58.3965C140.731 58.199 140.606 57.8698 140.606 57.409C140.606 56.9415 140.731 56.6124 140.981 56.4214C141.238 56.2305 141.551 56.1351 141.919 56.1351ZM156.071 65.7633C156.071 66.6718 155.952 67.4783 155.715 68.1827C155.478 68.8872 155.132 69.483 154.678 69.9701C154.224 70.4507 153.677 70.8194 153.039 71.0762C152.4 71.3263 151.679 71.4514 150.876 71.4514C150.126 71.4514 149.438 71.3263 148.812 71.0762C148.187 70.8194 147.644 70.4507 147.183 69.9701C146.729 69.483 146.376 68.8872 146.126 68.1827C145.876 67.4783 145.751 66.6718 145.751 65.7633C145.751 64.5586 145.958 63.5381 146.373 62.702C146.794 61.8594 147.394 61.2175 148.17 60.7764C148.947 60.3353 149.872 60.1147 150.945 60.1147C151.953 60.1147 152.841 60.3353 153.612 60.7764C154.382 61.2175 154.984 61.8594 155.419 62.702C155.853 63.5447 156.071 64.5651 156.071 65.7633ZM148.141 65.7633C148.141 66.5599 148.236 67.2413 148.427 67.8075C148.625 68.3737 148.928 68.8082 149.336 69.111C149.744 69.4073 150.271 69.5554 150.916 69.5554C151.561 69.5554 152.088 69.4073 152.496 69.111C152.904 68.8082 153.203 68.3737 153.394 67.8075C153.585 67.2413 153.681 66.5599 153.681 65.7633C153.681 64.9667 153.585 64.2919 153.394 63.7389C153.203 63.1793 152.904 62.7547 152.496 62.465C152.088 62.1688 151.558 62.0207 150.906 62.0207C149.945 62.0207 149.244 62.3432 148.802 62.9884C148.361 63.6336 148.141 64.5586 148.141 65.7633ZM164.435 60.1147C165.666 60.1147 166.624 60.434 167.308 61.0726C168 61.7046 168.345 62.7218 168.345 64.1241V71.2539H166.025V64.5586C166.025 63.7093 165.85 63.074 165.501 62.6527C165.152 62.2247 164.613 62.0108 163.882 62.0108C162.822 62.0108 162.084 62.3367 161.67 62.9884C161.262 63.6402 161.057 64.5849 161.057 65.8226V71.2539H158.737V60.3221H160.544L160.87 61.8034H160.998C161.235 61.4216 161.528 61.1088 161.877 60.8653C162.233 60.6151 162.628 60.4275 163.062 60.3024C163.503 60.1773 163.961 60.1147 164.435 60.1147Z" fill="#00AFEF"/>
<defs>
<filter id="filter0_b_10291_77920" x="32.0651" y="27.2203" width="158.424" height="75.279" filterUnits="userSpaceOnUse" color-interpolation-filters="sRGB">
<feFlood flood-opacity="0" result="BackgroundImageFix"/>
<feGaussianBlur in="BackgroundImageFix" stdDeviation="5.61786"/>
<feComposite in2="SourceAlpha" operator="in" result="effect1_backgroundBlur_10291_77920"/>
<feBlend mode="normal" in="SourceGraphic" in2="effect1_backgroundBlur_10291_77920" result="shape"/>
</filter>
</defs>
</svg>
