<svg width="103" height="104" viewBox="0 0 103 104" fill="none" xmlns="http://www.w3.org/2000/svg">
<path d="M28.8058 58.2814L12.874 71.1555V19.659C12.874 18.8054 13.2131 17.9867 13.8167 17.3831C14.4203 16.7795 15.239 16.4404 16.0926 16.4404H67.5891C68.4428 16.4404 69.2614 16.7795 69.865 17.3831C70.4686 17.9867 70.8077 18.8054 70.8077 19.659V55.0629C70.8077 55.9165 70.4686 56.7351 69.865 57.3387C69.2614 57.9423 68.4428 58.2814 67.5891 58.2814H28.8058Z" stroke="#00AFEF" stroke-width="3.35847" stroke-linecap="round" stroke-linejoin="round"/>
<path d="M32.1853 58.2817V74.3744C32.1853 75.228 32.5244 76.0466 33.128 76.6502C33.7316 77.2538 34.5502 77.5929 35.4038 77.5929H74.1872L90.119 90.4671V38.9705C90.119 38.1169 89.7799 37.2982 89.1763 36.6946C88.5727 36.091 87.754 35.752 86.9004 35.752H70.8077" stroke="#00AFEF" stroke-width="3.35847" stroke-linecap="round" stroke-linejoin="round"/>
</svg>
