<svg width="339" height="94" viewBox="0 0 339 94" fill="none" xmlns="http://www.w3.org/2000/svg">
<path d="M26.6848 32.4786C27.1131 32.2272 27.4682 31.8681 27.7146 31.4369C27.961 31.0056 28.0902 30.5174 28.0893 30.0208V4.74044C28.0932 4.28796 27.9878 3.84123 27.7819 3.43826C27.5761 3.03529 27.276 2.68801 26.907 2.42598C26.5381 2.16395 26.1114 1.99493 25.6631 1.93329C25.2148 1.87165 24.7583 1.91922 24.3323 2.07196C17.2209 4.60522 11.0662 9.27432 6.71046 15.4402C2.35477 21.606 0.0110172 28.9673 0 36.5164C0.0038036 38.7533 0.203533 40.9856 0.596898 43.1876C0.681294 43.6275 0.868394 44.0413 1.14296 44.3952C1.41753 44.749 1.7718 45.0331 2.17692 45.2241C2.55077 45.4004 2.9575 45.4961 3.37071 45.505C3.86469 45.502 4.34913 45.3688 4.77518 45.1188L26.6848 32.4786ZM22.4714 8.98894V28.4057L5.65297 38.1316C5.61786 37.5698 5.61786 37.0431 5.61786 36.5164C5.62864 30.8229 7.20703 25.2423 10.1799 20.3865C13.1528 15.5308 17.4055 11.5875 22.4714 8.98894V8.98894Z" fill="#FFB545"/>
<path d="M68.2231 18.3986C68.1868 18.3594 68.1625 18.3107 68.1529 18.2582L68.0125 18.0826C64.799 12.5806 60.2006 8.0162 54.6749 4.8437C49.1492 1.67121 42.889 0.00127057 36.5173 0.00012207C35.7724 0.00012207 35.0579 0.296062 34.5311 0.822838C34.0044 1.34961 33.7084 2.06408 33.7084 2.80905V34.9011L5.93514 50.9471C5.61142 51.126 5.32675 51.3678 5.09787 51.6583C4.86899 51.9488 4.70052 52.2822 4.60237 52.6388C4.50423 52.9954 4.47839 53.368 4.52637 53.7347C4.57436 54.1015 4.6952 54.4549 4.88179 54.7742V54.8445L4.98713 55.02C9.03741 61.9534 15.2601 67.3585 22.6921 70.3986C30.1241 73.4388 38.3509 73.9445 46.0993 71.8374C53.8477 69.7304 60.6855 65.1282 65.5545 58.7431C70.4235 52.3579 73.0521 44.5459 73.0334 36.5162C73.042 30.1603 71.3833 23.9132 68.2231 18.3986Z" fill="#00AFEF"/>
<g filter="url(#filter0_b_158_858)">
<rect x="35" y="41" width="304" height="53" rx="11.2357" fill="#EDEDFF" fill-opacity="0.5"/>
<rect x="35.5618" y="41.5618" width="302.876" height="51.8764" rx="10.6739" stroke="#EAEAF7" stroke-width="1.12357" style="mix-blend-mode:multiply"/>
</g>
<path d="M55.8638 74.6104V60.1729H58.2338V74.6104H55.8638ZM67.5066 63.4712C68.7377 63.4712 69.6956 63.7905 70.3803 64.4291C71.0715 65.0611 71.4171 66.0782 71.4171 67.4805V74.6104H69.0965V67.915C69.0965 67.0657 68.922 66.4304 68.5731 66.0091C68.2242 65.5812 67.6843 65.3672 66.9536 65.3672C65.8936 65.3672 65.1563 65.6931 64.7416 66.3449C64.3334 66.9966 64.1293 67.9413 64.1293 69.179V74.6104H61.8086V63.6786H63.6158L63.9417 65.1598H64.07C64.307 64.778 64.6 64.4653 64.9489 64.2217C65.3044 63.9715 65.6994 63.7839 66.1339 63.6588C66.575 63.5337 67.0326 63.4712 67.5066 63.4712ZM78.7346 72.9316C79.0375 72.9316 79.337 72.9052 79.6333 72.8526C79.9295 72.7933 80.1994 72.7242 80.443 72.6452V74.403C80.1863 74.5149 79.8538 74.6104 79.4456 74.6894C79.0375 74.7684 78.6128 74.8079 78.1717 74.8079C77.5529 74.8079 76.9966 74.7058 76.5028 74.5017C76.0091 74.2911 75.6174 73.9323 75.3277 73.4253C75.038 72.9184 74.8932 72.2173 74.8932 71.3219V65.4462H73.402V64.4093L75.0018 63.5897L75.7622 61.2493H77.2237V63.6786H80.3541V65.4462H77.2237V71.2923C77.2237 71.8453 77.362 72.2568 77.6385 72.5267C77.915 72.7966 78.2804 72.9316 78.7346 72.9316ZM92.1944 63.6786V74.6104H90.3675L90.0515 73.139H89.9232C89.6927 73.5142 89.3998 73.8269 89.0443 74.0771C88.6888 74.3207 88.2938 74.5017 87.8593 74.6202C87.4247 74.7453 86.9672 74.8079 86.4866 74.8079C85.6637 74.8079 84.9593 74.6696 84.3733 74.3931C83.794 74.11 83.3496 73.6755 83.0402 73.0896C82.7308 72.5037 82.5761 71.7466 82.5761 70.8183V63.6786H84.9066V70.3838C84.9066 71.2331 85.0778 71.8684 85.4201 72.2897C85.769 72.711 86.3089 72.9217 87.0396 72.9217C87.744 72.9217 88.3036 72.7769 88.7184 72.4872C89.1331 72.1975 89.4261 71.7696 89.5973 71.2034C89.775 70.6373 89.8639 69.9427 89.8639 69.1198V63.6786H92.1944ZM97.843 63.6786V74.6104H95.5224V63.6786H97.843ZM96.6975 59.4915C97.053 59.4915 97.3591 59.587 97.6159 59.7779C97.8792 59.9688 98.0109 60.298 98.0109 60.7654C98.0109 61.2262 97.8792 61.5554 97.6159 61.7529C97.3591 61.9438 97.053 62.0393 96.6975 62.0393C96.3288 62.0393 96.0161 61.9438 95.7594 61.7529C95.5092 61.5554 95.3841 61.2262 95.3841 60.7654C95.3841 60.298 95.5092 59.9688 95.7594 59.7779C96.0161 59.587 96.3288 59.4915 96.6975 59.4915ZM105.239 72.9316C105.542 72.9316 105.842 72.9052 106.138 72.8526C106.434 72.7933 106.704 72.7242 106.948 72.6452V74.403C106.691 74.5149 106.359 74.6104 105.951 74.6894C105.542 74.7684 105.118 74.8079 104.677 74.8079C104.058 74.8079 103.501 74.7058 103.008 74.5017C102.514 74.2911 102.122 73.9323 101.833 73.4253C101.543 72.9184 101.398 72.2173 101.398 71.3219V65.4462H99.9069V64.4093L101.507 63.5897L102.267 61.2493H103.729V63.6786H106.859V65.4462H103.729V71.2923C103.729 71.8453 103.867 72.2568 104.143 72.5267C104.42 72.7966 104.785 72.9316 105.239 72.9316ZM111.49 63.6786V74.6104H109.17V63.6786H111.49ZM110.345 59.4915C110.7 59.4915 111.007 59.587 111.263 59.7779C111.527 59.9688 111.658 60.298 111.658 60.7654C111.658 61.2262 111.527 61.5554 111.263 61.7529C111.007 61.9438 110.7 62.0393 110.345 62.0393C109.976 62.0393 109.664 61.9438 109.407 61.7529C109.157 61.5554 109.032 61.2262 109.032 60.7654C109.032 60.298 109.157 59.9688 109.407 59.7779C109.664 59.587 109.976 59.4915 110.345 59.4915ZM117.317 74.6104L113.159 63.6786H115.618L117.87 70.0974C118.015 70.5056 118.146 70.9467 118.265 71.4207C118.383 71.8947 118.466 72.293 118.512 72.6156H118.591C118.637 72.2798 118.726 71.8782 118.857 71.4108C118.989 70.9368 119.124 70.499 119.262 70.0974L121.514 63.6786H123.963L119.805 74.6104H117.317ZM129.977 63.4712C130.951 63.4712 131.787 63.672 132.485 64.0736C133.183 64.4752 133.719 65.0446 134.095 65.782C134.47 66.5193 134.658 67.4015 134.658 68.4285V69.6728H127.36C127.386 70.7327 127.669 71.5491 128.209 72.1218C128.755 72.6946 129.519 72.981 130.5 72.981C131.198 72.981 131.823 72.9151 132.376 72.7835C132.936 72.6452 133.512 72.4444 134.105 72.1811V74.0672C133.558 74.324 133.002 74.5116 132.436 74.6301C131.869 74.7486 131.191 74.8079 130.401 74.8079C129.328 74.8079 128.384 74.6005 127.567 74.1857C126.757 73.7644 126.122 73.139 125.661 72.3094C125.207 71.4799 124.98 70.4496 124.98 69.2185C124.98 67.994 125.187 66.9538 125.602 66.098C126.017 65.2421 126.599 64.5904 127.35 64.1427C128.1 63.695 128.976 63.4712 129.977 63.4712ZM129.977 65.2191C129.246 65.2191 128.653 65.4561 128.199 65.9301C127.752 66.4041 127.488 67.0987 127.409 68.0138H132.386C132.38 67.4673 132.288 66.9835 132.11 66.5621C131.939 66.1408 131.675 65.8116 131.32 65.5746C130.971 65.3376 130.523 65.2191 129.977 65.2191ZM150.942 74.6104H142.765V60.1729H150.942V62.1677H145.135V66.0881H150.576V68.073H145.135V72.6057H150.942V74.6104ZM158.111 63.4712C159.494 63.4712 160.537 63.7773 161.241 64.3896C161.952 65.0018 162.308 65.9564 162.308 67.2534V74.6104H160.659L160.214 73.06H160.135C159.826 73.455 159.507 73.7808 159.178 74.0376C158.848 74.2943 158.466 74.4853 158.032 74.6104C157.604 74.742 157.081 74.8079 156.462 74.8079C155.81 74.8079 155.227 74.6894 154.714 74.4523C154.2 74.2088 153.796 73.8401 153.499 73.3463C153.203 72.8526 153.055 72.2272 153.055 71.4701C153.055 70.3443 153.473 69.4983 154.309 68.9321C155.152 68.366 156.422 68.0533 158.121 67.994L160.017 67.9249V67.3521C160.017 66.595 159.839 66.0552 159.484 65.7326C159.135 65.41 158.641 65.2487 158.002 65.2487C157.456 65.2487 156.926 65.3277 156.412 65.4857C155.899 65.6437 155.399 65.8379 154.911 66.0684L154.161 64.4291C154.694 64.146 155.3 63.9156 155.978 63.7378C156.663 63.5601 157.374 63.4712 158.111 63.4712ZM160.007 69.3864L158.595 69.4358C157.436 69.4753 156.623 69.6728 156.156 70.0283C155.688 70.3838 155.455 70.871 155.455 71.4898C155.455 72.0296 155.616 72.4247 155.938 72.6748C156.261 72.9184 156.686 73.0402 157.212 73.0402C158.016 73.0402 158.68 72.8131 159.207 72.3588C159.74 71.898 160.007 71.2232 160.007 70.3344V69.3864ZM172.904 71.4898C172.904 72.2074 172.729 72.8131 172.381 73.3068C172.032 73.8006 171.521 74.1758 170.85 74.4326C170.185 74.6828 169.369 74.8079 168.401 74.8079C167.637 74.8079 166.979 74.7519 166.426 74.64C165.879 74.5346 165.363 74.3701 164.875 74.1462V72.1416C165.396 72.3852 165.978 72.5958 166.623 72.7736C167.275 72.9513 167.891 73.0402 168.47 73.0402C169.234 73.0402 169.783 72.9217 170.119 72.6847C170.455 72.4411 170.623 72.1185 170.623 71.7169C170.623 71.4799 170.554 71.2693 170.415 71.0849C170.284 70.894 170.034 70.6998 169.665 70.5023C169.303 70.2982 168.77 70.0546 168.065 69.7715C167.374 69.495 166.791 69.2185 166.317 68.942C165.843 68.6655 165.484 68.3331 165.241 67.9446C164.997 67.5496 164.875 67.046 164.875 66.4337C164.875 65.466 165.257 64.7319 166.021 64.2316C166.791 63.7247 167.808 63.4712 169.072 63.4712C169.744 63.4712 170.376 63.5403 170.968 63.6786C171.568 63.8102 172.153 64.0045 172.726 64.2612L171.995 66.0091C171.502 65.7919 171.005 65.6141 170.504 65.4758C170.011 65.331 169.507 65.2586 168.993 65.2586C168.394 65.2586 167.937 65.3508 167.621 65.5351C167.311 65.7194 167.157 65.9828 167.157 66.3251C167.157 66.5819 167.232 66.7991 167.384 66.9769C167.535 67.1546 167.795 67.3324 168.164 67.5101C168.539 67.6879 169.059 67.9084 169.724 68.1718C170.376 68.4219 170.939 68.6853 171.413 68.9618C171.893 69.2317 172.262 69.5642 172.519 69.9592C172.776 70.3542 172.904 70.8644 172.904 71.4898ZM173.763 63.6786H176.291L178.533 69.9197C178.632 70.2027 178.72 70.4825 178.799 70.759C178.885 71.029 178.957 71.2956 179.017 71.5589C179.082 71.8223 179.135 72.0856 179.175 72.3489H179.234C179.3 72.0066 179.392 71.6248 179.51 71.2034C179.636 70.7755 179.774 70.3476 179.925 69.9197L182.078 63.6786H184.576L179.886 76.1114C179.616 76.8224 179.283 77.4281 178.888 77.9284C178.5 78.4353 178.039 78.8172 177.506 79.0739C176.973 79.3373 176.364 79.4689 175.679 79.4689C175.35 79.4689 175.063 79.4492 174.82 79.4097C174.576 79.3768 174.369 79.3405 174.198 79.301V77.4445C174.336 77.4774 174.51 77.5071 174.721 77.5334C174.932 77.5597 175.149 77.5729 175.373 77.5729C175.787 77.5729 176.146 77.4906 176.449 77.326C176.752 77.1614 177.009 76.9277 177.219 76.6249C177.43 76.3286 177.605 75.9896 177.743 75.6077L178.128 74.5807L173.763 63.6786ZM185.287 70.1665V68.2014H190.383V70.1665H185.287ZM197.997 74.6104H195.617V62.1874H191.39V60.1729H202.213V62.1874H197.997V74.6104ZM213.866 69.1198C213.866 70.0283 213.748 70.8348 213.511 71.5392C213.274 72.2436 212.928 72.8394 212.474 73.3266C212.019 73.8072 211.473 74.1758 210.834 74.4326C210.196 74.6828 209.475 74.8079 208.672 74.8079C207.921 74.8079 207.233 74.6828 206.608 74.4326C205.982 74.1758 205.439 73.8072 204.978 73.3266C204.524 72.8394 204.172 72.2436 203.922 71.5392C203.672 70.8348 203.547 70.0283 203.547 69.1198C203.547 67.915 203.754 66.8946 204.169 66.0585C204.59 65.2158 205.189 64.5739 205.966 64.1328C206.743 63.6917 207.668 63.4712 208.741 63.4712C209.748 63.4712 210.637 63.6917 211.407 64.1328C212.177 64.5739 212.78 65.2158 213.214 66.0585C213.649 66.9012 213.866 67.9216 213.866 69.1198ZM205.936 69.1198C205.936 69.9164 206.032 70.5978 206.223 71.1639C206.42 71.7301 206.723 72.1646 207.131 72.4674C207.539 72.7637 208.066 72.9118 208.711 72.9118C209.356 72.9118 209.883 72.7637 210.291 72.4674C210.699 72.1646 210.999 71.7301 211.19 71.1639C211.381 70.5978 211.476 69.9164 211.476 69.1198C211.476 68.3232 211.381 67.6484 211.19 67.0954C210.999 66.5358 210.699 66.1111 210.291 65.8215C209.883 65.5252 209.353 65.3771 208.701 65.3771C207.74 65.3771 207.039 65.6997 206.598 66.3449C206.157 66.99 205.936 67.915 205.936 69.1198ZM215.584 70.1665V68.2014H220.68V70.1665H215.584ZM234.624 60.1729V69.5148C234.624 70.522 234.41 71.424 233.982 72.2206C233.56 73.0172 232.922 73.6492 232.066 74.1166C231.21 74.5774 230.134 74.8079 228.837 74.8079C226.987 74.8079 225.578 74.324 224.61 73.3562C223.649 72.3819 223.168 71.0882 223.168 69.4753V60.1729H225.538V69.2679C225.538 70.4727 225.822 71.3614 226.388 71.9342C226.954 72.5069 227.8 72.7933 228.926 72.7933C229.702 72.7933 230.334 72.6584 230.822 72.3884C231.315 72.1119 231.677 71.7104 231.908 71.1837C232.145 70.6504 232.263 70.0085 232.263 69.258V60.1729H234.624ZM245.427 71.4898C245.427 72.2074 245.253 72.8131 244.904 73.3068C244.555 73.8006 244.044 74.1758 243.373 74.4326C242.708 74.6828 241.892 74.8079 240.924 74.8079C240.16 74.8079 239.502 74.7519 238.949 74.64C238.402 74.5346 237.886 74.3701 237.398 74.1462V72.1416C237.919 72.3852 238.501 72.5958 239.146 72.7736C239.798 72.9513 240.414 73.0402 240.993 73.0402C241.757 73.0402 242.306 72.9217 242.642 72.6847C242.978 72.4411 243.146 72.1185 243.146 71.7169C243.146 71.4799 243.077 71.2693 242.938 71.0849C242.807 70.894 242.557 70.6998 242.188 70.5023C241.826 70.2982 241.293 70.0546 240.588 69.7715C239.897 69.495 239.314 69.2185 238.84 68.942C238.366 68.6655 238.007 68.3331 237.764 67.9446C237.52 67.5496 237.398 67.046 237.398 66.4337C237.398 65.466 237.78 64.7319 238.544 64.2316C239.314 63.7247 240.331 63.4712 241.595 63.4712C242.267 63.4712 242.899 63.5403 243.491 63.6786C244.091 63.8102 244.676 64.0045 245.249 64.2612L244.518 66.0091C244.025 65.7919 243.528 65.6141 243.027 65.4758C242.534 65.331 242.03 65.2586 241.516 65.2586C240.917 65.2586 240.46 65.3508 240.144 65.5351C239.834 65.7194 239.68 65.9828 239.68 66.3251C239.68 66.5819 239.755 66.7991 239.907 66.9769C240.058 67.1546 240.318 67.3324 240.687 67.5101C241.062 67.6879 241.582 67.9084 242.247 68.1718C242.899 68.4219 243.462 68.6853 243.936 68.9618C244.416 69.2317 244.785 69.5642 245.042 69.9592C245.299 70.3542 245.427 70.8644 245.427 71.4898ZM252.29 63.4712C253.265 63.4712 254.101 63.672 254.798 64.0736C255.496 64.4752 256.033 65.0446 256.408 65.782C256.783 66.5193 256.971 67.4015 256.971 68.4285V69.6728H249.673C249.7 70.7327 249.983 71.5491 250.523 72.1218C251.069 72.6946 251.833 72.981 252.814 72.981C253.511 72.981 254.137 72.9151 254.69 72.7835C255.249 72.6452 255.825 72.4444 256.418 72.1811V74.0672C255.872 74.324 255.315 74.5116 254.749 74.6301C254.183 74.7486 253.505 74.8079 252.715 74.8079C251.642 74.8079 250.697 74.6005 249.881 74.1857C249.071 73.7644 248.436 73.139 247.975 72.3094C247.52 71.4799 247.293 70.4496 247.293 69.2185C247.293 67.994 247.501 66.9538 247.916 66.098C248.33 65.2421 248.913 64.5904 249.663 64.1427C250.414 63.695 251.29 63.4712 252.29 63.4712ZM252.29 65.2191C251.559 65.2191 250.967 65.4561 250.513 65.9301C250.065 66.4041 249.802 67.0987 249.723 68.0138H254.7C254.693 67.4673 254.601 66.9835 254.423 66.5621C254.252 66.1408 253.989 65.8116 253.633 65.5746C253.284 65.3376 252.837 65.2191 252.29 65.2191ZM265.078 74.6104V60.1729H267.449V72.5958H273.581V74.6104H265.078ZM280.128 63.4712C281.511 63.4712 282.554 63.7773 283.259 64.3896C283.97 65.0018 284.325 65.9564 284.325 67.2534V74.6104H282.676L282.232 73.06H282.153C281.843 73.455 281.524 73.7808 281.195 74.0376C280.866 74.2943 280.484 74.4853 280.049 74.6104C279.621 74.742 279.098 74.8079 278.479 74.8079C277.827 74.8079 277.245 74.6894 276.731 74.4523C276.218 74.2088 275.813 73.8401 275.517 73.3463C275.22 72.8526 275.072 72.2272 275.072 71.4701C275.072 70.3443 275.49 69.4983 276.326 68.9321C277.169 68.366 278.44 68.0533 280.138 67.994L282.034 67.9249V67.3521C282.034 66.595 281.856 66.0552 281.501 65.7326C281.152 65.41 280.658 65.2487 280.02 65.2487C279.473 65.2487 278.943 65.3277 278.43 65.4857C277.916 65.6437 277.416 65.8379 276.929 66.0684L276.178 64.4291C276.711 64.146 277.317 63.9156 277.995 63.7378C278.68 63.5601 279.391 63.4712 280.128 63.4712ZM282.024 69.3864L280.612 69.4358C279.453 69.4753 278.64 69.6728 278.173 70.0283C277.706 70.3838 277.472 70.871 277.472 71.4898C277.472 72.0296 277.633 72.4247 277.956 72.6748C278.278 72.9184 278.703 73.0402 279.23 73.0402C280.033 73.0402 280.698 72.8131 281.224 72.3588C281.758 71.898 282.024 71.2232 282.024 70.3344V69.3864ZM285.925 63.6786H288.453L290.695 69.9197C290.793 70.2027 290.882 70.4825 290.961 70.759C291.047 71.029 291.119 71.2956 291.178 71.5589C291.244 71.8223 291.297 72.0856 291.336 72.3489H291.396C291.462 72.0066 291.554 71.6248 291.672 71.2034C291.797 70.7755 291.936 70.3476 292.087 69.9197L294.24 63.6786H296.738L292.048 76.1114C291.778 76.8224 291.445 77.4281 291.05 77.9284C290.662 78.4353 290.201 78.8172 289.668 79.0739C289.134 79.3373 288.525 79.4689 287.841 79.4689C287.512 79.4689 287.225 79.4492 286.982 79.4097C286.738 79.3768 286.531 79.3405 286.359 79.301V77.4445C286.498 77.4774 286.672 77.5071 286.883 77.5334C287.093 77.5597 287.311 77.5729 287.535 77.5729C287.949 77.5729 288.308 77.4906 288.611 77.326C288.914 77.1614 289.171 76.9277 289.381 76.6249C289.592 76.3286 289.766 75.9896 289.905 75.6077L290.29 74.5807L285.925 63.6786ZM308.075 69.1198C308.075 70.0283 307.956 70.8348 307.719 71.5392C307.482 72.2436 307.137 72.8394 306.682 73.3266C306.228 73.8072 305.682 74.1758 305.043 74.4326C304.405 74.6828 303.684 74.8079 302.881 74.8079C302.13 74.8079 301.442 74.6828 300.817 74.4326C300.191 74.1758 299.648 73.8072 299.187 73.3266C298.733 72.8394 298.381 72.2436 298.131 71.5392C297.88 70.8348 297.755 70.0283 297.755 69.1198C297.755 67.915 297.963 66.8946 298.377 66.0585C298.799 65.2158 299.398 64.5739 300.175 64.1328C300.952 63.6917 301.877 63.4712 302.95 63.4712C303.957 63.4712 304.846 63.6917 305.616 64.1328C306.386 64.5739 306.989 65.2158 307.423 66.0585C307.858 66.9012 308.075 67.9216 308.075 69.1198ZM300.145 69.1198C300.145 69.9164 300.241 70.5978 300.431 71.1639C300.629 71.7301 300.932 72.1646 301.34 72.4674C301.748 72.7637 302.275 72.9118 302.92 72.9118C303.565 72.9118 304.092 72.7637 304.5 72.4674C304.908 72.1646 305.208 71.7301 305.399 71.1639C305.59 70.5978 305.685 69.9164 305.685 69.1198C305.685 68.3232 305.59 67.6484 305.399 67.0954C305.208 66.5358 304.908 66.1111 304.5 65.8215C304.092 65.5252 303.562 65.3771 302.91 65.3771C301.949 65.3771 301.248 65.6997 300.807 66.3449C300.366 66.99 300.145 67.915 300.145 69.1198ZM320.271 63.6786V74.6104H318.444L318.128 73.139H317.999C317.769 73.5142 317.476 73.8269 317.12 74.0771C316.765 74.3207 316.37 74.5017 315.935 74.6202C315.501 74.7453 315.043 74.8079 314.563 74.8079C313.74 74.8079 313.035 74.6696 312.45 74.3931C311.87 74.11 311.426 73.6755 311.116 73.0896C310.807 72.5037 310.652 71.7466 310.652 70.8183V63.6786H312.983V70.3838C312.983 71.2331 313.154 71.8684 313.496 72.2897C313.845 72.711 314.385 72.9217 315.116 72.9217C315.82 72.9217 316.38 72.7769 316.795 72.4872C317.209 72.1975 317.502 71.7696 317.673 71.2034C317.851 70.6373 317.94 69.9427 317.94 69.1198V63.6786H320.271ZM327.667 72.9316C327.97 72.9316 328.27 72.9052 328.566 72.8526C328.862 72.7933 329.132 72.7242 329.376 72.6452V74.403C329.119 74.5149 328.786 74.6104 328.378 74.6894C327.97 74.7684 327.545 74.8079 327.104 74.8079C326.485 74.8079 325.929 74.7058 325.435 74.5017C324.942 74.2911 324.55 73.9323 324.26 73.4253C323.971 72.9184 323.826 72.2173 323.826 71.3219V65.4462H322.335V64.4093L323.934 63.5897L324.695 61.2493H326.156V63.6786H329.287V65.4462H326.156V71.2923C326.156 71.8453 326.294 72.2568 326.571 72.5267C326.847 72.7966 327.213 72.9316 327.667 72.9316Z" fill="#00AFEF"/>
<defs>
<filter id="filter0_b_158_858" x="23.7643" y="29.7643" width="326.471" height="75.4714" filterUnits="userSpaceOnUse" color-interpolation-filters="sRGB">
<feFlood flood-opacity="0" result="BackgroundImageFix"/>
<feGaussianBlur in="BackgroundImageFix" stdDeviation="5.61786"/>
<feComposite in2="SourceAlpha" operator="in" result="effect1_backgroundBlur_158_858"/>
<feBlend mode="normal" in="SourceGraphic" in2="effect1_backgroundBlur_158_858" result="shape"/>
</filter>
</defs>
</svg>
