<svg width="366" height="317" viewBox="0 0 366 317" fill="none" xmlns="http://www.w3.org/2000/svg">
<rect x="31.9809" y="1.18009" width="303.763" height="223.027" stroke="#C6C6C6" stroke-width="2.36018" stroke-linejoin="round" stroke-dasharray="3.54 3.54"/>
<rect x="59.9551" y="40.0654" width="305.858" height="230.954" fill="#F1F1F1"/>
<rect x="67.4453" y="73.7717" width="290.877" height="192.253" fill="white"/>
<rect x="91.165" y="98.7402" width="240.941" height="139.821" rx="9.44071" fill="#00AFEF" fill-opacity="0.2"/>
<rect x="338.348" y="55.0471" width="18.726" height="4.99359" rx="2.4968" fill="#C4C4C4"/>
<circle cx="70.5663" cy="56.9188" r="3.121" fill="#C4C4C4"/>
<circle cx="79.3046" cy="56.9188" r="3.121" fill="#C4C4C4"/>
<circle cx="88.0438" cy="56.9188" r="3.121" fill="#C4C4C4"/>
<path d="M132.074 174.324C127.287 171.398 120.438 202.914 117.612 219.038L318.244 219.37C318.133 218.982 317.845 218.107 317.579 217.708C317.413 216.378 316.582 215.048 313.756 211.059C308.836 206.937 304.392 207.679 302.785 208.566C302.231 208.898 300.591 209.862 298.463 211.059C295.538 211.857 293.587 209.397 292.978 208.067C292.479 207.181 290.983 203.978 288.989 198.26C287.393 192.542 284.778 193.994 283.669 195.434C283.226 195.822 281.941 196.93 280.345 198.26C277.552 198.925 275.746 194.548 275.192 192.276C274.028 188.453 271.336 179.975 269.873 176.651C267.878 173.326 265.163 174.933 264.055 176.152C262.448 178.646 258.935 184.064 257.739 185.793C256.542 187.522 255.134 187.511 254.58 187.289C254.082 187.068 252.752 186.325 251.422 185.128C250.092 184.33 248.652 184.796 248.098 185.128C247.654 185.516 246.535 186.491 245.604 187.289C244.441 187.123 244.441 187.289 243.776 186.624C242.845 186.092 241.061 180.751 240.285 178.147C240.008 177.26 239.122 174.889 237.792 172.495C234.201 169.437 231.974 179.2 231.309 184.463C230.644 189.228 229.281 199.224 229.148 201.086C228.982 203.413 228.151 205.74 227.486 208.067C226.655 209.729 225.99 209.064 225.159 208.566C223.696 205.507 221.114 203.413 220.006 202.748C218.067 201.972 213.756 200.088 212.027 198.759C210.298 197.429 208.426 197.872 207.705 198.26C207.207 198.648 205.777 199.424 204.048 199.424C201.655 199.424 199.837 195.988 199.228 194.271C198.286 192.387 196.236 188.22 195.571 186.624C194.74 184.63 193.743 182.967 191.748 180.806C188.59 178.646 186.595 181.305 185.099 182.967C182.938 184.297 181.608 182.801 180.445 180.806C179.115 179.211 176.788 171.498 175.79 167.841C175.347 166.622 173.962 163.054 171.967 158.533C169.175 154.144 166.039 158.699 164.82 161.525C162.16 167.786 156.608 180.707 155.677 182.302C154.514 184.297 153.849 184.463 151.854 184.463C149.727 184.596 146.092 180.64 144.54 178.646C143.986 178.258 142.679 177.615 141.881 178.147C140.019 180.275 138.556 179.588 138.058 178.978C136.617 177.593 133.404 174.723 132.074 174.324Z" fill="url(#paint0_linear_118_1898)" style="mix-blend-mode:multiply"/>
<path d="M317.937 219.37C317.594 219.37 317.284 219.157 317.177 218.823C314.415 210.03 309.02 208.714 306.055 208.714C304.032 208.714 302.351 209.678 300.863 210.521C299.439 211.337 298.101 212.096 296.678 211.893C292.706 211.318 290.94 206.166 289.367 201.617C288.211 198.254 287.022 194.779 285.374 194.835C284.817 194.853 284.132 195.696 283.479 196.502C282.505 197.698 281.403 199.06 279.754 199.06C276.222 199.06 274.53 193.167 272.743 186.931C271.233 181.659 269.51 175.673 267.016 175.516C265.078 175.367 263.227 178.694 261.535 181.603C259.384 185.291 257.157 189.099 254.096 188.061C253.197 187.756 252.544 187.172 251.966 186.662C251.216 185.995 250.595 185.467 249.632 185.513C248.604 185.569 247.952 186.19 247.266 186.848C246.592 187.496 245.821 188.237 244.719 188.089C242.706 187.82 241.647 184.54 240.298 180.389C239.27 177.202 237.857 172.838 236.412 172.838C233.629 172.838 232.066 185.115 231.039 193.232C229.626 204.332 228.812 210.114 226.061 209.817C225.108 209.706 224.595 208.872 224.006 207.89C223.342 206.796 222.432 205.295 220.538 203.989C219.831 203.507 219.499 203.387 218.9 203.183C218.311 202.979 217.519 202.71 216.074 201.978C214.329 201.098 213.237 200.366 212.434 199.838C211.418 199.162 210.914 198.819 209.972 198.698C208.741 198.541 208.078 198.93 207.296 199.384C206.676 199.745 205.969 200.162 204.984 200.255C200.884 200.635 198.508 195.233 196.217 190.007C194.237 185.513 192.193 180.853 189.484 180.853C188.221 180.853 187.536 181.557 186.755 182.372C185.92 183.234 184.989 184.216 183.329 184.216C179.893 184.216 177.902 177.795 175.59 170.364C173.802 164.601 171.576 157.429 169.232 157.429C167.23 157.429 165.421 161.979 163.12 167.742C161.514 171.763 159.523 176.776 156.815 181.844C155.755 183.836 154.535 184.92 153.079 185.152C151.355 185.439 149.386 184.494 146.902 182.178C146.506 181.807 146.11 181.353 145.714 180.88C144.751 179.75 143.82 178.675 142.749 178.768C142.235 178.805 141.925 179.074 141.518 179.407C141.047 179.796 140.458 180.278 139.549 180.325C137.921 180.362 136.594 178.944 135.31 177.536C134.121 176.238 132.89 174.895 131.638 174.895C128.512 174.895 124.595 187.996 118.536 218.712C118.44 219.157 118.022 219.435 117.594 219.351C117.166 219.268 116.877 218.86 116.962 218.434C124.477 180.325 127.806 173.348 131.627 173.348C133.586 173.348 135.128 175.025 136.476 176.507C137.515 177.647 138.639 178.814 139.463 178.777C139.827 178.759 140.062 178.583 140.48 178.231C140.972 177.823 141.593 177.304 142.61 177.23C144.526 177.091 145.8 178.573 146.924 179.898C147.277 180.315 147.63 180.732 147.984 181.066C150.049 182.984 151.623 183.827 152.801 183.632C153.732 183.475 154.577 182.659 155.391 181.14C158.056 176.146 160.037 171.179 161.621 167.186C164.351 160.376 166.149 155.873 169.232 155.873C172.743 155.873 174.766 162.377 177.11 169.91C178.876 175.59 181.071 182.659 183.329 182.659C184.25 182.659 184.796 182.15 185.599 181.307C186.466 180.408 187.536 179.296 189.484 179.296C193.231 179.296 195.382 184.198 197.673 189.386C199.75 194.093 201.88 198.958 204.834 198.698C205.455 198.643 205.937 198.365 206.483 198.04C207.339 197.54 208.399 196.919 210.176 197.151C211.492 197.318 212.263 197.837 213.323 198.55C214.126 199.087 215.132 199.764 216.791 200.598C218.14 201.274 218.857 201.524 219.424 201.719C220.056 201.941 220.57 202.108 221.448 202.72C223.621 204.211 224.68 205.953 225.376 207.102C225.654 207.556 226.072 208.251 226.243 208.27C227.57 207.908 228.716 198.967 229.465 193.046C231.135 179.898 232.527 171.281 236.423 171.281C239.035 171.281 240.384 175.479 241.829 179.926C242.664 182.511 243.927 186.412 244.944 186.551C245.265 186.588 245.618 186.273 246.164 185.736C246.913 185.022 247.93 184.04 249.557 183.957C251.206 183.873 252.18 184.735 253.047 185.504C253.561 185.958 254.042 186.384 254.631 186.588C256.461 187.209 258.345 183.957 260.176 180.825C262.199 177.36 264.329 173.783 267.134 173.959C270.752 174.181 272.464 180.167 274.284 186.505C275.761 191.656 277.431 197.494 279.765 197.494C280.643 197.494 281.456 196.493 282.248 195.52C283.126 194.436 284.036 193.315 285.32 193.269C288.093 193.167 289.41 196.845 290.887 201.117C292.31 205.24 293.916 209.91 296.924 210.345C297.802 210.475 298.851 209.873 300.082 209.168C301.655 208.27 303.614 207.149 306.065 207.149C308.806 207.149 315.528 208.242 318.707 218.36C318.836 218.777 318.6 219.212 318.183 219.342C318.097 219.361 318.012 219.37 317.937 219.37Z" fill="#49BAFD"/>
<path d="M125.259 207.401C122.067 207.667 118.721 215.38 117.446 219.203C182.329 219.258 313.291 219.369 318.078 219.369C318.078 217.374 317.745 214.105 317.579 212.72C317.413 212.111 316.948 210.46 316.416 208.731C315.086 205.539 312.98 204.631 312.094 204.575C311.429 204.464 309.8 204.143 308.603 203.744C306.608 202.946 304.558 199.533 303.783 197.926L302.12 193.771C301.012 191.277 298.63 185.958 297.965 184.628C296.967 182.966 296.635 182.8 295.471 182.301C293.211 181.769 290.54 187.731 289.487 190.779L286.495 198.924L284.335 205.24C283.448 207.29 281.542 211.557 281.01 212.222C280.345 213.053 280.013 212.886 279.182 212.055C277.32 210.327 275.746 210.559 275.192 210.892C274.971 211.003 274.261 211.324 273.198 211.723C271.868 212.521 270.427 210.615 269.873 209.562C269.153 208.343 267.313 205.44 265.718 203.578C263.723 201.251 262.393 201.583 261.562 201.583C260.099 201.583 257.85 203.578 256.908 204.575C256.686 204.852 255.678 205.772 253.417 207.235C251.156 208.698 248.375 206.625 247.267 205.406L243.776 200.586C243.388 200.143 242.313 199.057 241.116 198.259C238.457 196.597 235.964 199.589 234.634 201.251C233.969 202.581 232.694 202.47 232.14 202.248C231.808 202.137 230.777 201.317 229.315 198.924C227.586 195.732 225.824 189.394 225.159 186.623L221.336 169.668L217.845 153.877C217.568 152.492 216.715 148.791 215.518 145.067C214.022 140.413 213.191 140.746 212.194 140.413C210.199 140.413 208.481 145.732 207.872 148.392C206.542 154.043 203.716 166.078 203.051 169.003C202.519 171.796 200.613 177.148 199.727 179.476C199.671 179.642 199.162 180.606 197.566 183.132C195.239 186.125 194.241 184.628 192.413 183.132C189.222 180.074 186.207 182.966 185.099 184.795L182.107 190.446C181.83 190.834 181.01 191.942 179.946 193.272C177.154 195.267 174.904 193.438 174.128 192.275L168.809 184.296C168.366 183.742 167.147 182.301 165.817 180.972C163.823 179.808 162.493 180.473 161.495 180.972C158.503 181.969 154.847 191.942 153.517 194.934C152.453 197.328 150.746 200.253 150.026 201.417C149.915 201.528 149.361 202.115 148.031 203.578C146.702 205.041 144.929 204.742 144.208 204.409C143.82 204.187 142.446 203.412 140.053 202.082C136.728 201.251 134.734 207.734 133.57 209.23C132.24 210.726 131.741 210.061 130.578 209.396C126.921 206.902 126.755 207.401 125.259 207.401Z" fill="url(#paint1_linear_118_1898)" style="mix-blend-mode:multiply"/>
<path d="M117.738 219.359C117.641 219.359 117.534 219.338 117.438 219.297C117.031 219.109 116.839 218.598 117.01 218.15C119.975 210.179 122.855 206.303 125.82 206.303C127.833 206.303 129.171 207.313 130.252 208.126C131.152 208.803 131.676 209.179 132.244 209.033C133.218 208.793 133.785 207.532 134.449 206.084C135.166 204.5 135.98 202.708 137.607 201.739C139.566 200.582 141.129 201.561 142.499 202.426C143.377 202.979 144.212 203.51 145.186 203.573C148.612 203.823 151.267 197.841 153.826 192.048C156.598 185.775 159.221 179.856 163.354 179.523C166.854 179.231 169.199 183.149 171.49 186.921C173.609 190.422 175.611 193.736 178.073 193.121C179.936 192.652 181.232 190.256 182.602 187.713C184.304 184.545 186.07 181.273 189.336 181.075C191.198 180.95 192.29 181.961 193.179 182.763C193.875 183.399 194.335 183.785 194.945 183.785H194.956C198.703 183.785 201.85 170.27 204.377 159.412C207.299 146.783 209.108 139.634 212.117 139.582C212.127 139.582 212.138 139.582 212.149 139.582C215.692 139.582 217.994 149.815 221.751 167.873C224.674 181.961 228.689 201.249 232.757 201.249C232.767 201.249 232.778 201.249 232.778 201.249C233.485 201.238 234.116 200.519 234.855 199.696C235.968 198.446 237.328 196.872 239.704 196.987C242.627 197.102 244.254 199.592 245.817 201.999C247.22 204.146 248.536 206.167 250.699 206.699C253.075 207.282 254.778 205.584 256.587 203.781C258.46 201.916 260.591 199.79 263.503 200.905C265.975 201.853 267.678 204.625 269.187 207.074C270.836 209.752 271.928 211.346 273.095 210.981C273.341 210.898 273.598 210.742 273.897 210.564C274.625 210.116 275.535 209.575 276.874 209.793C278.137 210.002 278.865 210.762 279.4 211.315C279.582 211.502 279.807 211.731 279.903 211.773C280.984 212.117 283.982 203.479 285.427 199.311C289.153 188.557 291.861 181.482 295.212 181.482C295.244 181.482 295.287 181.482 295.319 181.482C297.91 181.596 299.751 186.067 301.881 191.245C304.076 196.581 306.57 202.614 309.718 203.208C309.803 203.218 309.932 203.229 310.103 203.249C311.077 203.333 313.101 203.5 314.514 204.75C316.441 206.459 318.742 210.221 318.742 218.494C318.742 218.984 318.389 219.369 317.95 219.369C317.511 219.369 317.158 218.974 317.158 218.494C317.158 210.929 315.188 207.595 313.529 206.125C312.49 205.208 310.799 205.073 309.985 205.01C309.75 204.99 309.568 204.979 309.45 204.948C305.468 204.208 302.909 197.987 300.436 191.985C298.766 187.921 296.861 183.316 295.255 183.243C295.244 183.243 295.223 183.243 295.212 183.243C292.696 183.243 289.356 192.892 286.915 199.946C283.639 209.397 281.819 214.295 279.421 213.461C278.983 213.305 278.64 212.951 278.308 212.617C277.858 212.159 277.409 211.679 276.627 211.554C275.824 211.419 275.278 211.752 274.658 212.127C274.304 212.336 273.94 212.565 273.534 212.69C271.168 213.44 269.573 210.846 267.881 208.084C266.521 205.865 264.98 203.343 262.999 202.593C260.965 201.822 259.434 203.343 257.668 205.115C255.741 207.032 253.547 209.21 250.378 208.439C247.626 207.761 245.989 205.261 244.543 203.052C243.077 200.79 241.803 198.852 239.662 198.769C238.034 198.717 237.028 199.8 235.99 200.957C235.09 201.968 234.17 203.01 232.81 203.031C227.864 203.083 224.578 189.339 220.21 168.29C217.844 156.921 214.622 141.364 212.159 141.364H212.149C210.2 141.395 207.717 152.086 205.897 159.881C202.824 173.094 199.912 185.577 194.934 185.577C194.924 185.577 194.924 185.577 194.913 185.577C193.714 185.566 192.879 184.816 192.151 184.16C191.337 183.42 190.631 182.795 189.4 182.868C186.991 183.014 185.514 185.754 183.951 188.651C182.473 191.402 180.942 194.236 178.416 194.872C174.894 195.747 172.496 191.777 170.162 187.942C168.128 184.587 166.041 181.148 163.461 181.315C160.238 181.576 157.701 187.307 155.25 192.861C152.455 199.165 149.576 205.709 145.079 205.365C143.752 205.271 142.671 204.583 141.718 203.989C140.337 203.114 139.502 202.656 138.356 203.322C137.179 204.021 136.515 205.479 135.873 206.897C135.102 208.595 134.31 210.346 132.597 210.773C131.344 211.085 130.338 210.335 129.364 209.606C128.368 208.856 127.341 208.084 125.82 208.084C124.568 208.084 121.956 209.481 118.476 218.848C118.348 219.151 118.048 219.359 117.738 219.359Z" fill="#FFD546"/>
<rect x="276.854" y="139.25" width="19.9468" height="80.1197" fill="url(#paint2_linear_118_1898)"/>
<path d="M286.66 186.79L288.82 190.53H284.501L286.66 186.79Z" fill="white"/>
<path d="M286.66 176.151L288.82 179.891H284.501L286.66 176.151Z" fill="white"/>
<path d="M286.66 165.513L288.82 169.253H284.501L286.66 165.513Z" fill="white"/>
<path d="M286.66 154.874L288.82 158.614H284.501L286.66 154.874Z" fill="white"/>
<path d="M286.66 144.569L288.82 148.309H284.501L286.66 144.569Z" fill="white"/>
<circle cx="286.827" cy="195.1" r="2.95022" fill="white" stroke="#FF358A" stroke-width="0.0835972"/>
<g filter="url(#filter0_d_118_1898)">
<rect x="19" y="172.293" width="139.756" height="107.255" rx="10.6208" fill="white"/>
</g>
<rect x="30.917" y="188.543" width="49.8355" height="4.33353" rx="2.16676" fill="#F1F1F1"/>
<rect x="30.917" y="196.128" width="21.6676" height="4.33353" rx="2.16676" fill="#F1F1F1"/>
<rect x="124.088" y="263.297" width="21.6676" height="4.33353" rx="2.16676" fill="#F1F1F1"/>
<path d="M63.1349 230.117C61.5708 230.117 60.2881 228.846 60.4442 227.29C60.9284 222.464 62.6461 217.826 65.4531 213.832C68.8049 209.063 73.5466 205.444 79.0311 203.47C84.5156 201.495 90.4758 201.261 96.0983 202.799C101.721 204.337 106.732 207.573 110.447 212.064C114.163 216.556 116.402 222.084 116.86 227.895C117.317 233.706 115.97 239.517 113.003 244.534C110.036 249.552 105.592 253.531 100.28 255.93C95.8306 257.939 90.953 258.757 86.1218 258.329C84.5637 258.19 83.5554 256.692 83.8485 255.156V255.156C84.1416 253.619 85.6262 252.63 87.1872 252.729C90.8666 252.963 94.5628 252.296 97.9488 250.768C102.199 248.849 105.753 245.665 108.127 241.651C110.501 237.637 111.579 232.989 111.213 228.34C110.847 223.691 109.055 219.268 106.083 215.675C103.11 212.082 99.1016 209.493 94.6036 208.263C90.1056 207.032 85.3374 207.219 80.9498 208.799C76.5622 210.379 72.7689 213.274 70.0875 217.089C67.9512 220.129 66.6036 223.634 66.1439 227.292C65.9489 228.844 64.6991 230.117 63.1349 230.117V230.117Z" fill="#FF6636"/>
<path d="M75.876 234.79C75.6589 234.79 75.4795 234.738 75.3379 234.634C75.1963 234.53 75.1113 234.394 75.083 234.224C75.0547 234.044 75.0972 233.846 75.2105 233.629L79.4871 225.585V226.208H74.8989C74.644 226.208 74.4458 226.142 74.3042 226.01C74.172 225.878 74.1059 225.694 74.1059 225.458C74.1059 225.212 74.172 225.024 74.3042 224.891C74.4458 224.759 74.644 224.693 74.8989 224.693H80.3793C80.6342 224.693 80.8419 224.759 81.0023 224.891C81.1628 225.024 81.2431 225.212 81.2431 225.458C81.2431 225.666 81.2148 225.85 81.1581 226.01C81.1015 226.161 81.0259 226.326 80.9315 226.506L76.9098 234.195C76.8059 234.403 76.6691 234.554 76.4991 234.648C76.3386 234.743 76.1309 234.79 75.876 234.79ZM86.1798 234.818C85.4056 234.818 84.7401 234.71 84.1831 234.493C83.6355 234.266 83.2107 233.94 82.9086 233.516C82.6159 233.091 82.4696 232.581 82.4696 231.986C82.4696 231.514 82.564 231.099 82.7528 230.74C82.951 230.372 83.2201 230.074 83.56 229.848C83.8998 229.621 84.2869 229.48 84.7212 229.423V229.72C84.117 229.588 83.6308 229.3 83.2626 228.857C82.9038 228.403 82.7245 227.865 82.7245 227.242C82.7245 226.676 82.8661 226.194 83.1493 225.798C83.4325 225.392 83.8337 225.085 84.353 224.877C84.8722 224.66 85.4811 224.552 86.1798 224.552C86.8878 224.552 87.5015 224.66 88.0207 224.877C88.5399 225.085 88.9412 225.392 89.2244 225.798C89.5076 226.194 89.6492 226.676 89.6492 227.242C89.6492 227.658 89.5643 228.04 89.3943 228.389C89.2338 228.739 89.0025 229.026 88.7004 229.253C88.4078 229.48 88.0632 229.631 87.6667 229.706V229.423C88.3275 229.517 88.8609 229.796 89.2669 230.259C89.6823 230.712 89.89 231.288 89.89 231.986C89.89 232.581 89.7389 233.091 89.4368 233.516C89.1441 233.94 88.7193 234.266 88.1623 234.493C87.6147 234.71 86.9539 234.818 86.1798 234.818ZM86.1798 233.402C86.8501 233.402 87.3551 233.275 87.695 233.02C88.0349 232.756 88.2048 232.369 88.2048 231.859C88.2048 231.349 88.0349 230.967 87.695 230.712C87.3551 230.457 86.8501 230.329 86.1798 230.329C85.5189 230.329 85.0138 230.457 84.6645 230.712C84.3247 230.967 84.1547 231.349 84.1547 231.859C84.1547 232.369 84.3247 232.756 84.6645 233.02C85.0138 233.275 85.5189 233.402 86.1798 233.402ZM86.1798 228.913C86.5574 228.913 86.8784 228.857 87.1427 228.743C87.4071 228.621 87.61 228.446 87.7516 228.219C87.8932 227.993 87.9641 227.728 87.9641 227.426C87.9641 226.973 87.8036 226.619 87.4826 226.364C87.171 226.1 86.7368 225.968 86.1798 225.968C85.6228 225.968 85.1885 226.1 84.8769 226.364C84.5654 226.619 84.4096 226.973 84.4096 227.426C84.4096 227.889 84.5654 228.252 84.8769 228.517C85.1885 228.781 85.6228 228.913 86.1798 228.913ZM95.0815 234.563C94.9871 234.733 94.8691 234.842 94.7275 234.889C94.5953 234.946 94.4584 234.955 94.3168 234.917C94.1847 234.889 94.0714 234.823 93.977 234.719C93.8826 234.625 93.8259 234.507 93.807 234.365C93.7882 234.214 93.8259 234.054 93.9203 233.884L99.1458 224.821C99.2402 224.651 99.3535 224.537 99.4856 224.481C99.6272 224.424 99.7641 224.415 99.8963 224.452C100.028 224.481 100.142 224.547 100.236 224.651C100.331 224.755 100.387 224.882 100.406 225.033C100.434 225.175 100.401 225.326 100.307 225.486L95.0815 234.563ZM93.5663 230.655C92.7733 230.655 92.1549 230.381 91.7112 229.834C91.2675 229.286 91.0456 228.54 91.0456 227.596C91.0456 226.964 91.1448 226.421 91.343 225.968C91.5413 225.515 91.8292 225.165 92.2068 224.92C92.5845 224.674 93.0376 224.552 93.5663 224.552C94.3593 224.552 94.9777 224.825 95.4214 225.373C95.8651 225.911 96.087 226.652 96.087 227.596C96.087 228.229 95.9878 228.776 95.7896 229.239C95.5913 229.692 95.3034 230.041 94.9258 230.287C94.5481 230.532 94.095 230.655 93.5663 230.655ZM93.5663 229.465C93.7929 229.465 93.9864 229.399 94.1469 229.267C94.3074 229.126 94.4301 228.918 94.5151 228.644C94.6001 228.37 94.6425 228.021 94.6425 227.596C94.6425 226.964 94.5481 226.496 94.3593 226.194C94.1705 225.892 93.9062 225.741 93.5663 225.741C93.3397 225.741 93.1462 225.807 92.9857 225.939C92.8252 226.072 92.7025 226.275 92.6175 226.548C92.5325 226.822 92.4901 227.171 92.4901 227.596C92.4901 228.238 92.5845 228.71 92.7733 229.012C92.9621 229.314 93.2264 229.465 93.5663 229.465ZM100.675 234.818C99.8821 234.818 99.2638 234.545 98.8201 233.997C98.3763 233.449 98.1545 232.704 98.1545 231.76C98.1545 231.127 98.2536 230.584 98.4519 230.131C98.6501 229.678 98.9381 229.329 99.3157 229.083C99.6933 228.838 100.146 228.715 100.675 228.715C101.468 228.715 102.087 228.989 102.53 229.536C102.974 230.074 103.196 230.816 103.196 231.76C103.196 232.392 103.097 232.94 102.898 233.402C102.7 233.855 102.412 234.205 102.035 234.45C101.657 234.696 101.204 234.818 100.675 234.818ZM100.675 233.629C100.902 233.629 101.095 233.563 101.256 233.431C101.416 233.298 101.539 233.095 101.624 232.822C101.709 232.538 101.751 232.184 101.751 231.76C101.751 231.127 101.657 230.66 101.468 230.358C101.279 230.056 101.015 229.904 100.675 229.904C100.449 229.904 100.255 229.971 100.095 230.103C99.9341 230.235 99.8113 230.438 99.7264 230.712C99.6414 230.985 99.5989 231.335 99.5989 231.76C99.5989 232.402 99.6933 232.874 99.8821 233.176C100.071 233.478 100.335 233.629 100.675 233.629Z" fill="#141414"/>
<defs>
<filter id="filter0_d_118_1898" x="0.118584" y="159.312" width="189.32" height="156.818" filterUnits="userSpaceOnUse" color-interpolation-filters="sRGB">
<feFlood flood-opacity="0" result="BackgroundImageFix"/>
<feColorMatrix in="SourceAlpha" type="matrix" values="0 0 0 0 0 0 0 0 0 0 0 0 0 0 0 0 0 0 127 0" result="hardAlpha"/>
<feOffset dx="5.90044" dy="11.8009"/>
<feGaussianBlur stdDeviation="12.3909"/>
<feComposite in2="hardAlpha" operator="out"/>
<feColorMatrix type="matrix" values="0 0 0 0 0.700272 0 0 0 0 0.700272 0 0 0 0 0.700272 0 0 0 0.25 0"/>
<feBlend mode="normal" in2="BackgroundImageFix" result="effect1_dropShadow_118_1898"/>
<feBlend mode="normal" in="SourceGraphic" in2="effect1_dropShadow_118_1898" result="shape"/>
</filter>
<linearGradient id="paint0_linear_118_1898" x1="217.928" y1="156.709" x2="217.928" y2="219.37" gradientUnits="userSpaceOnUse">
<stop stop-color="#D1EEFF"/>
<stop offset="1" stop-color="#D3EFFF" stop-opacity="0"/>
</linearGradient>
<linearGradient id="paint1_linear_118_1898" x1="217.762" y1="140.413" x2="217.762" y2="219.369" gradientUnits="userSpaceOnUse">
<stop stop-color="#FFF0BE"/>
<stop offset="1" stop-color="#FFF8DE" stop-opacity="0"/>
</linearGradient>
<linearGradient id="paint2_linear_118_1898" x1="286.827" y1="139.25" x2="286.827" y2="219.369" gradientUnits="userSpaceOnUse">
<stop stop-color="#FF358A"/>
<stop offset="1" stop-color="#C4C4C4" stop-opacity="0"/>
</linearGradient>
</defs>
</svg>
