<svg width="305" height="93" viewBox="0 0 305 93" fill="none" xmlns="http://www.w3.org/2000/svg">
<path d="M22.1609 34.7635C22.1657 35.1452 22.094 35.524 21.9501 35.8776C21.8061 36.2311 21.5927 36.5524 21.3224 36.8223C21.0522 37.0922 20.7306 37.3053 20.3767 37.4492C20.0227 37.593 19.6434 37.6646 19.2613 37.6597H3.31387C2.77521 37.6554 2.24786 37.5049 1.78821 37.2243C1.32857 36.9437 0.953902 36.5436 0.704287 36.0668C0.472171 35.5812 0.37654 35.0418 0.427612 34.5062C0.478684 33.9705 0.674538 33.4588 0.994241 33.0257C3.56028 29.5851 6.98437 26.8764 10.9252 25.1697C9.2318 23.6214 7.93076 21.6935 7.12911 19.5448C6.32747 17.3961 6.04813 15.0879 6.3141 12.8103C6.58007 10.5326 7.38375 8.35067 8.65897 6.44392C9.93419 4.53717 11.6445 2.96016 13.6491 1.8427C15.6538 0.725244 17.8955 0.0992776 20.1896 0.0163173C22.4838 -0.0666429 24.7649 0.395777 26.8452 1.36552C28.9255 2.33526 30.7455 3.78461 32.1554 5.59426C33.5654 7.40391 34.5249 9.52214 34.9551 11.7746C35.0623 12.3612 34.9879 12.9666 34.7418 13.5099C34.4957 14.0533 34.0897 14.5088 33.5778 14.8156C28.89 17.5922 25.3248 21.9221 23.5019 27.0522C22.6033 29.5236 22.1493 32.1342 22.1609 34.7635ZM89.72 33.0257C87.154 29.5851 83.7299 26.8764 79.7891 25.1697C81.4825 23.6214 82.7835 21.6935 83.5852 19.5448C84.3868 17.3961 84.6662 15.0879 84.4002 12.8103C84.1342 10.5326 83.3305 8.35067 82.0553 6.44392C80.7801 4.53717 79.0698 2.96016 77.0651 1.8427C75.0605 0.725244 72.8188 0.0992776 70.5246 0.0163173C68.2304 -0.0666429 65.9493 0.395777 63.869 1.36552C61.7887 2.33526 59.9687 3.78461 58.5588 5.59426C57.1489 7.40391 56.1894 9.52214 55.7592 11.7746C55.652 12.3612 55.7264 12.9666 55.9724 13.5099C56.2185 14.0533 56.6246 14.5088 57.1365 14.8156C61.8303 17.5851 65.3977 21.9174 67.2124 27.0522C68.111 29.5236 68.565 32.1342 68.5534 34.7635C68.5486 35.1452 68.6202 35.524 68.7642 35.8776C68.9082 36.2311 69.1216 36.5524 69.3918 36.8223C69.662 37.0922 69.9836 37.3053 70.3376 37.4492C70.6916 37.593 71.0708 37.6646 71.453 37.6597H87.4004C87.9389 37.6597 88.4668 37.51 88.9248 37.2272C89.3829 36.9444 89.753 36.5398 89.9938 36.0587C90.2347 35.5777 90.3366 35.0391 90.2882 34.5034C90.2399 33.9677 90.0431 33.456 89.72 33.0257ZM55.9404 48.5568C58.8261 46.3475 60.9464 43.2907 62.0032 39.8158C63.06 36.3409 63.0004 32.6226 61.8326 29.1833C60.6648 25.744 58.4476 22.7566 55.4925 20.6409C52.5374 18.5251 48.993 17.3872 45.3571 17.3872C41.7213 17.3872 38.1768 18.5251 35.2217 20.6409C32.2666 22.7566 30.0494 25.744 28.8817 29.1833C27.7139 32.6226 27.6542 36.3409 28.7111 39.8158C29.7679 43.2907 31.8881 46.3475 34.7738 48.5568C29.1362 51.0569 24.5656 55.4684 21.8709 61.0107C21.6565 61.4511 21.5605 61.9397 21.5922 62.4284C21.624 62.9171 21.7825 63.3892 22.0521 63.7983C22.3031 64.2179 22.6588 64.5653 23.0844 64.8064C23.5101 65.0476 23.9911 65.1742 24.4805 65.174H66.2338C66.7231 65.1742 67.2042 65.0476 67.6298 64.8064C68.0555 64.5653 68.4112 64.2179 68.6621 63.7983C68.9318 63.3892 69.0903 62.9171 69.122 62.4284C69.1538 61.9397 69.0578 61.4511 68.8434 61.0107C66.1487 55.4684 61.5781 51.0569 55.9404 48.5568Z" fill="#00AFEF"/>
<path d="M22.1609 34.7635C22.1657 35.1452 22.094 35.524 21.9501 35.8776C21.8061 36.2311 21.5927 36.5524 21.3224 36.8223C21.0522 37.0922 20.7306 37.3053 20.3767 37.4492C20.0227 37.593 19.6434 37.6646 19.2613 37.6597H3.31387C2.77521 37.6554 2.24786 37.5048 1.78821 37.2243C1.32857 36.9437 0.953907 36.5436 0.704292 36.0668C0.472175 35.5812 0.37654 35.0418 0.427612 34.5062C0.478683 33.9705 0.674542 33.4588 0.994245 33.0257C3.56029 29.5851 6.98437 26.8764 10.9252 25.1697C9.2318 23.6214 7.93076 21.6935 7.12912 19.5448C6.32747 17.3961 6.04814 15.0879 6.31411 12.8103C6.58008 10.5327 7.38374 8.35067 8.65897 6.44392C9.93419 4.53717 11.6445 2.96017 13.6492 1.84271C15.6538 0.725247 17.8955 0.0992776 20.1896 0.0163173C22.4838 -0.0666429 24.7649 0.395779 26.8452 1.36552C28.9255 2.33527 30.7455 3.78461 32.1555 5.59426C33.5654 7.40391 34.5249 9.52214 34.9551 11.7746C35.0623 12.3612 34.9879 12.9666 34.7418 13.5099C34.4958 14.0533 34.0897 14.5088 33.5778 14.8156C28.8901 17.5922 25.3248 21.9221 23.5019 27.0522C22.6033 29.5236 22.1493 32.1342 22.1609 34.7635Z" fill="#FFB545"/>
<g filter="url(#filter0_b_10291_77876)">
<rect x="41.9864" y="39.332" width="262.916" height="52.8079" rx="11.2357" fill="#EDEDFF" fill-opacity="0.5"/>
<rect x="42.5482" y="39.8938" width="261.792" height="51.6843" rx="10.6739" stroke="#EAEAF7" stroke-width="1.12357" style="mix-blend-mode:multiply"/>
</g>
<path d="M67.1241 65.4121H72.5159V72.6604C71.7588 72.9106 70.9754 73.1048 70.1657 73.2431C69.3559 73.3813 68.4474 73.4504 67.4401 73.4504C65.972 73.4504 64.7277 73.1608 63.7073 72.5814C62.6935 71.9955 61.9232 71.1495 61.3965 70.0435C60.8699 68.9309 60.6065 67.5912 60.6065 66.0243C60.6065 64.5167 60.8995 63.2099 61.4854 62.1039C62.0713 60.9913 62.9239 60.1322 64.0431 59.5265C65.1622 58.9142 66.5184 58.6081 68.1116 58.6081C68.895 58.6081 69.6521 58.6871 70.3829 58.8451C71.1202 58.9965 71.795 59.2072 72.4073 59.4771L71.5778 61.4324C71.0906 61.202 70.5442 61.0078 69.9385 60.8498C69.3328 60.6918 68.7041 60.6128 68.0524 60.6128C67.0188 60.6128 66.1267 60.8366 65.3762 61.2843C64.6323 61.7319 64.0595 62.3639 63.6579 63.1803C63.2563 63.99 63.0556 64.9479 63.0556 66.054C63.0556 67.1271 63.2168 68.0685 63.5394 68.8782C63.862 69.688 64.3657 70.32 65.0503 70.7743C65.7416 71.2219 66.6336 71.4458 67.7265 71.4458C68.2729 71.4458 68.737 71.4162 69.1189 71.3569C69.5007 71.2977 69.8529 71.2318 70.1755 71.1594V67.4365H67.1241V65.4121ZM80.0902 62.1138C81.0645 62.1138 81.9006 62.3146 82.5985 62.7162C83.2963 63.1177 83.8328 63.6872 84.2081 64.4246C84.5834 65.1619 84.771 66.0441 84.771 67.0711V68.3154H77.4733C77.4996 69.3753 77.7827 70.1916 78.3225 70.7644C78.8689 71.3372 79.6326 71.6235 80.6135 71.6235C81.3114 71.6235 81.9368 71.5577 82.4898 71.426C83.0494 71.2878 83.6255 71.087 84.218 70.8236V72.7098C83.6715 72.9666 83.1152 73.1542 82.5491 73.2727C81.9829 73.3912 81.3048 73.4504 80.5148 73.4504C79.4417 73.4504 78.497 73.2431 77.6806 72.8283C76.8709 72.407 76.2356 71.7815 75.7747 70.952C75.3205 70.1225 75.0933 69.0922 75.0933 67.8611C75.0933 66.6366 75.3007 65.5964 75.7155 64.7406C76.1302 63.8847 76.7129 63.233 77.4634 62.7853C78.2139 62.3376 79.0895 62.1138 80.0902 62.1138ZM80.0902 63.8617C79.3594 63.8617 78.7669 64.0987 78.3126 64.5727C77.865 65.0467 77.6016 65.7412 77.5226 66.6563H82.4997C82.4931 66.1099 82.4009 65.626 82.2232 65.2047C82.052 64.7834 81.7887 64.4542 81.4332 64.2172C81.0843 63.9802 80.6366 63.8617 80.0902 63.8617ZM93.0858 62.1138C94.3169 62.1138 95.2748 62.4331 95.9595 63.0717C96.6508 63.7037 96.9964 64.7208 96.9964 66.1231V73.2529H94.6757V66.5576C94.6757 65.7083 94.5013 65.073 94.1524 64.6517C93.8034 64.2238 93.2636 64.0098 92.5328 64.0098C91.4729 64.0098 90.7356 64.3357 90.3208 64.9874C89.9126 65.6392 89.7086 66.5839 89.7086 67.8216V73.2529H87.3879V62.3212H89.195L89.5209 63.8024H89.6493C89.8863 63.4206 90.1793 63.1079 90.5282 62.8643C90.8837 62.6141 91.2787 62.4265 91.7132 62.3014C92.1543 62.1763 92.6118 62.1138 93.0858 62.1138ZM104.6 62.1138C105.575 62.1138 106.411 62.3146 107.109 62.7162C107.806 63.1177 108.343 63.6872 108.718 64.4246C109.093 65.1619 109.281 66.0441 109.281 67.0711V68.3154H101.983C102.01 69.3753 102.293 70.1916 102.833 70.7644C103.379 71.3372 104.143 71.6235 105.124 71.6235C105.821 71.6235 106.447 71.5577 107 71.426C107.56 71.2878 108.136 71.087 108.728 70.8236V72.7098C108.182 72.9666 107.625 73.1542 107.059 73.2727C106.493 73.3912 105.815 73.4504 105.025 73.4504C103.952 73.4504 103.007 73.2431 102.191 72.8283C101.381 72.407 100.746 71.7815 100.285 70.952C99.8306 70.1225 99.6034 69.0922 99.6034 67.8611C99.6034 66.6366 99.8108 65.5964 100.226 64.7406C100.64 63.8847 101.223 63.233 101.973 62.7853C102.724 62.3376 103.6 62.1138 104.6 62.1138ZM104.6 63.8617C103.869 63.8617 103.277 64.0987 102.823 64.5727C102.375 65.0467 102.112 65.7412 102.033 66.6563H107.01C107.003 66.1099 106.911 65.626 106.733 65.2047C106.562 64.7834 106.299 64.4542 105.943 64.2172C105.594 63.9802 105.147 63.8617 104.6 63.8617ZM117.438 62.1138C117.622 62.1138 117.823 62.1236 118.04 62.1434C118.258 62.1631 118.445 62.1895 118.603 62.2224L118.386 64.3949C118.248 64.3554 118.077 64.3258 117.872 64.3061C117.675 64.2863 117.497 64.2764 117.339 64.2764C116.924 64.2764 116.529 64.3456 116.154 64.4838C115.779 64.6155 115.446 64.8196 115.157 65.0961C114.867 65.366 114.64 65.705 114.475 66.1132C114.311 66.5214 114.229 66.9954 114.229 67.5352V73.2529H111.898V62.3212H113.715L114.031 64.2468H114.14C114.357 63.8584 114.627 63.5029 114.949 63.1803C115.272 62.8577 115.641 62.6009 116.055 62.41C116.477 62.2125 116.938 62.1138 117.438 62.1138ZM124.913 62.1138C126.296 62.1138 127.339 62.4199 128.044 63.0322C128.755 63.6444 129.11 64.599 129.11 65.896V73.2529H127.461L127.017 71.7025H126.938C126.628 72.0975 126.309 72.4234 125.98 72.6802C125.651 72.9369 125.269 73.1278 124.834 73.2529C124.406 73.3846 123.883 73.4504 123.264 73.4504C122.613 73.4504 122.03 73.3319 121.516 73.0949C121.003 72.8513 120.598 72.4827 120.302 71.9889C120.005 71.4952 119.857 70.8697 119.857 70.1126C119.857 68.9869 120.275 68.1409 121.111 67.5747C121.954 67.0085 123.225 66.6958 124.923 66.6366L126.819 66.5675V65.9947C126.819 65.2376 126.642 64.6978 126.286 64.3752C125.937 64.0526 125.443 63.8913 124.805 63.8913C124.258 63.8913 123.728 63.9703 123.215 64.1283C122.701 64.2863 122.201 64.4805 121.714 64.7109L120.963 63.0717C121.497 62.7886 122.102 62.5582 122.78 62.3804C123.465 62.2026 124.176 62.1138 124.913 62.1138ZM126.809 68.029L125.397 68.0784C124.239 68.1179 123.426 68.3154 122.958 68.6709C122.491 69.0264 122.257 69.5135 122.257 70.1324C122.257 70.6722 122.418 71.0672 122.741 71.3174C123.063 71.561 123.488 71.6828 124.015 71.6828C124.818 71.6828 125.483 71.4557 126.01 71.0014C126.543 70.5406 126.809 69.8658 126.809 68.977V68.029ZM136.428 71.5742C136.731 71.5742 137.03 71.5478 137.326 71.4952C137.623 71.4359 137.893 71.3668 138.136 71.2878V73.0456C137.879 73.1575 137.547 73.2529 137.139 73.3319C136.731 73.4109 136.306 73.4504 135.865 73.4504C135.246 73.4504 134.69 73.3484 134.196 73.1443C133.702 72.9336 133.311 72.5748 133.021 72.0679C132.731 71.561 132.586 70.8599 132.586 69.9645V64.0888H131.095V63.0519L132.695 62.2323L133.455 59.8919H134.917V62.3212H138.047V64.0888H134.917V69.9349C134.917 70.4879 135.055 70.8994 135.332 71.1693C135.608 71.4392 135.974 71.5742 136.428 71.5742ZM144.713 62.1138C145.687 62.1138 146.524 62.3146 147.221 62.7162C147.919 63.1177 148.456 63.6872 148.831 64.4246C149.206 65.1619 149.394 66.0441 149.394 67.0711V68.3154H142.096C142.123 69.3753 142.406 70.1916 142.945 70.7644C143.492 71.3372 144.256 71.6235 145.236 71.6235C145.934 71.6235 146.56 71.5577 147.113 71.426C147.672 71.2878 148.248 71.087 148.841 70.8236V72.7098C148.294 72.9666 147.738 73.1542 147.172 73.2727C146.606 73.3912 145.928 73.4504 145.138 73.4504C144.065 73.4504 143.12 73.2431 142.304 72.8283C141.494 72.407 140.858 71.7815 140.398 70.952C139.943 70.1225 139.716 69.0922 139.716 67.8611C139.716 66.6366 139.924 65.5964 140.338 64.7406C140.753 63.8847 141.336 63.233 142.086 62.7853C142.837 62.3376 143.712 62.1138 144.713 62.1138ZM144.713 63.8617C143.982 63.8617 143.39 64.0987 142.936 64.5727C142.488 65.0467 142.225 65.7412 142.146 66.6563H147.123C147.116 66.1099 147.024 65.626 146.846 65.2047C146.675 64.7834 146.412 64.4542 146.056 64.2172C145.707 63.9802 145.26 63.8617 144.713 63.8617ZM161.56 58.8155C162.804 58.8155 163.831 58.9669 164.641 59.2697C165.457 59.5726 166.063 60.0334 166.458 60.6523C166.86 61.2711 167.061 62.0578 167.061 63.0124C167.061 63.7234 166.929 64.3291 166.666 64.8294C166.402 65.3298 166.057 65.7445 165.629 66.0737C165.201 66.4029 164.743 66.6662 164.256 66.8637L168.354 73.2529H165.678L162.192 67.4661H159.871V73.2529H157.501V58.8155H161.56ZM161.402 60.7905H159.871V65.5108H161.511C162.61 65.5108 163.407 65.3067 163.9 64.8986C164.401 64.4904 164.651 63.888 164.651 63.0914C164.651 62.2553 164.384 61.6628 163.851 61.3139C163.324 60.965 162.508 60.7905 161.402 60.7905ZM174.536 62.1138C175.51 62.1138 176.346 62.3146 177.044 62.7162C177.742 63.1177 178.279 63.6872 178.654 64.4246C179.029 65.1619 179.217 66.0441 179.217 67.0711V68.3154H171.919C171.945 69.3753 172.229 70.1916 172.768 70.7644C173.315 71.3372 174.078 71.6235 175.059 71.6235C175.757 71.6235 176.383 71.5577 176.936 71.426C177.495 71.2878 178.071 71.087 178.664 70.8236V72.7098C178.117 72.9666 177.561 73.1542 176.995 73.2727C176.429 73.3912 175.751 73.4504 174.961 73.4504C173.888 73.4504 172.943 73.2431 172.126 72.8283C171.317 72.407 170.681 71.7815 170.221 70.952C169.766 70.1225 169.539 69.0922 169.539 67.8611C169.539 66.6366 169.747 65.5964 170.161 64.7406C170.576 63.8847 171.159 63.233 171.909 62.7853C172.66 62.3376 173.535 62.1138 174.536 62.1138ZM174.536 63.8617C173.805 63.8617 173.213 64.0987 172.758 64.5727C172.311 65.0467 172.047 65.7412 171.968 66.6563H176.946C176.939 66.1099 176.847 65.626 176.669 65.2047C176.498 64.7834 176.235 64.4542 175.879 64.2172C175.53 63.9802 175.082 63.8617 174.536 63.8617ZM187.443 62.1138C188.74 62.1138 189.78 62.5878 190.563 63.5358C191.353 64.4838 191.748 65.8927 191.748 67.7624C191.748 69 191.564 70.0435 191.195 70.8928C190.833 71.7354 190.323 72.374 189.665 72.8085C189.013 73.2365 188.253 73.4504 187.384 73.4504C186.831 73.4504 186.35 73.378 185.942 73.2332C185.534 73.0883 185.185 72.9007 184.895 72.6703C184.605 72.4333 184.362 72.1765 184.164 71.9H184.026C184.059 72.1634 184.089 72.4563 184.115 72.7789C184.148 73.0949 184.164 73.3846 184.164 73.6479V78.1016H181.834V62.3212H183.73L184.056 63.832H184.164C184.368 63.5226 184.615 63.2362 184.905 62.9729C185.201 62.7096 185.557 62.5022 185.971 62.3508C186.393 62.1928 186.883 62.1138 187.443 62.1138ZM186.821 64.0098C186.182 64.0098 185.669 64.1382 185.28 64.3949C184.898 64.6451 184.619 65.0236 184.441 65.5306C184.27 66.0375 184.177 66.6728 184.164 67.4365V67.7624C184.164 68.5721 184.247 69.2601 184.411 69.8263C184.582 70.3858 184.862 70.8138 185.251 71.11C185.646 71.3997 186.179 71.5445 186.85 71.5445C187.416 71.5445 187.884 71.3898 188.253 71.0804C188.628 70.771 188.908 70.3299 189.092 69.7571C189.276 69.1844 189.368 68.5096 189.368 67.7327C189.368 66.5543 189.158 65.6392 188.736 64.9874C188.322 64.3357 187.683 64.0098 186.821 64.0098ZM204.112 67.7624C204.112 68.6709 203.994 69.4773 203.757 70.1818C203.52 70.8862 203.174 71.482 202.72 71.9692C202.265 72.4498 201.719 72.8184 201.08 73.0752C200.442 73.3253 199.721 73.4504 198.918 73.4504C198.167 73.4504 197.479 73.3253 196.854 73.0752C196.228 72.8184 195.685 72.4498 195.224 71.9692C194.77 71.482 194.418 70.8862 194.168 70.1818C193.918 69.4773 193.793 68.6709 193.793 67.7624C193.793 66.5576 194 65.5372 194.415 64.7011C194.836 63.8584 195.435 63.2165 196.212 62.7754C196.989 62.3343 197.914 62.1138 198.987 62.1138C199.994 62.1138 200.883 62.3343 201.653 62.7754C202.423 63.2165 203.026 63.8584 203.46 64.7011C203.895 65.5437 204.112 66.5642 204.112 67.7624ZM196.182 67.7624C196.182 68.5589 196.278 69.2403 196.469 69.8065C196.666 70.3727 196.969 70.8072 197.377 71.11C197.785 71.4063 198.312 71.5544 198.957 71.5544C199.602 71.5544 200.129 71.4063 200.537 71.11C200.945 70.8072 201.245 70.3727 201.436 69.8065C201.627 69.2403 201.722 68.5589 201.722 67.7624C201.722 66.9658 201.627 66.291 201.436 65.7379C201.245 65.1784 200.945 64.7537 200.537 64.4641C200.129 64.1678 199.599 64.0197 198.947 64.0197C197.986 64.0197 197.285 64.3423 196.844 64.9874C196.403 65.6326 196.182 66.5576 196.182 67.7624ZM212.318 62.1138C212.503 62.1138 212.703 62.1236 212.921 62.1434C213.138 62.1631 213.326 62.1895 213.484 62.2224L213.266 64.3949C213.128 64.3554 212.957 64.3258 212.753 64.3061C212.555 64.2863 212.378 64.2764 212.22 64.2764C211.805 64.2764 211.41 64.3456 211.035 64.4838C210.659 64.6155 210.327 64.8196 210.037 65.0961C209.747 65.366 209.52 65.705 209.356 66.1132C209.191 66.5214 209.109 66.9954 209.109 67.5352V73.2529H206.778V62.3212H208.595L208.911 64.2468H209.02C209.237 63.8584 209.507 63.5029 209.83 63.1803C210.152 62.8577 210.521 62.6009 210.936 62.41C211.357 62.2125 211.818 62.1138 212.318 62.1138ZM219.577 71.5742C219.879 71.5742 220.179 71.5478 220.475 71.4952C220.771 71.4359 221.041 71.3668 221.285 71.2878V73.0456C221.028 73.1575 220.696 73.2529 220.288 73.3319C219.879 73.4109 219.455 73.4504 219.014 73.4504C218.395 73.4504 217.838 73.3484 217.345 73.1443C216.851 72.9336 216.459 72.5748 216.17 72.0679C215.88 71.561 215.735 70.8599 215.735 69.9645V64.0888H214.244V63.0519L215.844 62.2323L216.604 59.8919H218.066V62.3212H221.196V64.0888H218.066V69.9349C218.066 70.4879 218.204 70.8994 218.48 71.1693C218.757 71.4392 219.122 71.5742 219.577 71.5742ZM230.854 70.1324C230.854 70.85 230.679 71.4557 230.331 71.9494C229.982 72.4432 229.471 72.8184 228.8 73.0752C228.135 73.3253 227.319 73.4504 226.351 73.4504C225.587 73.4504 224.929 73.3945 224.376 73.2826C223.829 73.1772 223.313 73.0126 222.825 72.7888V70.7841C223.346 71.0277 223.928 71.2384 224.573 71.4162C225.225 71.5939 225.841 71.6828 226.42 71.6828C227.184 71.6828 227.733 71.5643 228.069 71.3273C228.405 71.0837 228.573 70.7611 228.573 70.3595C228.573 70.1225 228.504 69.9118 228.365 69.7275C228.234 69.5366 227.984 69.3424 227.615 69.1449C227.253 68.9408 226.72 68.6972 226.015 68.4141C225.324 68.1376 224.741 67.8611 224.267 67.5846C223.793 67.3081 223.434 66.9756 223.191 66.5872C222.947 66.1922 222.825 65.6886 222.825 65.0763C222.825 64.1086 223.207 63.3745 223.971 62.8742C224.741 62.3672 225.758 62.1138 227.022 62.1138C227.694 62.1138 228.326 62.1829 228.918 62.3212C229.517 62.4528 230.103 62.647 230.676 62.9038L229.945 64.6517C229.452 64.4344 228.955 64.2567 228.454 64.1184C227.961 63.9736 227.457 63.9012 226.943 63.9012C226.344 63.9012 225.887 63.9933 225.571 64.1777C225.261 64.362 225.107 64.6253 225.107 64.9677C225.107 65.2244 225.182 65.4417 225.334 65.6194C225.485 65.7972 225.745 65.975 226.114 66.1527C226.489 66.3305 227.009 66.551 227.674 66.8143C228.326 67.0645 228.889 67.3278 229.363 67.6044C229.843 67.8743 230.212 68.2067 230.469 68.6017C230.726 68.9967 230.854 69.507 230.854 70.1324Z" fill="#00AFEF"/>
<defs>
<filter id="filter0_b_10291_77876" x="30.7507" y="28.0963" width="285.387" height="75.279" filterUnits="userSpaceOnUse" color-interpolation-filters="sRGB">
<feFlood flood-opacity="0" result="BackgroundImageFix"/>
<feGaussianBlur in="BackgroundImageFix" stdDeviation="5.61786"/>
<feComposite in2="SourceAlpha" operator="in" result="effect1_backgroundBlur_10291_77876"/>
<feBlend mode="normal" in="SourceGraphic" in2="effect1_backgroundBlur_10291_77876" result="shape"/>
</filter>
</defs>
</svg>
