<svg width="204" height="109" viewBox="0 0 204 109" fill="none" xmlns="http://www.w3.org/2000/svg">
<path d="M82.0883 20.8534H25.9097C23.6776 20.8628 21.5396 21.7684 19.9613 23.3731C18.3829 24.9777 17.4922 27.1513 17.4829 29.4206V69.401C17.4922 71.6703 18.3829 73.844 19.9613 75.4486C21.5396 77.0532 23.6776 77.9589 25.9097 77.9683H51.1901V83.6798H42.7633C42.0183 83.6798 41.3038 83.9806 40.7771 84.5162C40.2503 85.0517 39.9543 85.7781 39.9543 86.5355C39.9543 87.2929 40.2503 88.0193 40.7771 88.5548C41.3038 89.0904 42.0183 89.3913 42.7633 89.3913H65.2347C65.9797 89.3913 66.6941 89.0904 67.2209 88.5548C67.7477 88.0193 68.0436 87.2929 68.0436 86.5355C68.0436 85.7781 67.7477 85.0517 67.2209 84.5162C66.6941 83.9806 65.9797 83.6798 65.2347 83.6798H56.8079V77.9683H82.0883C84.3203 77.9589 86.4584 77.0532 88.0367 75.4486C89.615 73.844 90.5058 71.6703 90.5151 69.401V29.4206C90.5058 27.1513 89.615 24.9777 88.0367 23.3731C86.4584 21.7684 84.3203 20.8628 82.0883 20.8534V20.8534ZM82.0883 72.2568H25.9097C25.1647 72.2568 24.4503 71.9559 23.9235 71.4204C23.3967 70.8848 23.1008 70.1584 23.1008 69.401V63.6896H84.8972V69.401C84.8972 70.1584 84.6013 70.8848 84.0745 71.4204C83.5477 71.9559 82.8332 72.2568 82.0883 72.2568Z" fill="#00AFEF"/>
<path d="M32.8981 10.0851L32.8909 10.0807L32.8836 10.0764L20.6182 2.86895C20.01 2.50758 19.3164 2.31464 18.6064 2.31464C17.8965 2.31464 17.2029 2.50758 16.5946 2.86895L4.32927 10.0764L4.32197 10.0807L4.31471 10.0851C3.69733 10.4563 3.19276 10.9847 2.84485 11.6109C2.49715 12.2367 2.3159 12.9417 2.31464 13.656V13.659L2.31464 28.0482L2.31465 28.0511C2.3159 28.7654 2.49715 29.4704 2.84485 30.0962C3.19276 30.7224 3.69733 31.2509 4.31471 31.6221L4.32197 31.6264L4.32927 31.6307L16.5895 38.8351C16.5912 38.8362 16.593 38.8372 16.5948 38.8383C17.203 39.1996 17.8965 39.3925 18.6064 39.3925C19.3163 39.3925 20.0099 39.1996 20.618 38.8383C20.6198 38.8372 20.6216 38.8362 20.6234 38.8351L32.8836 31.6307L32.8909 31.6264L32.8981 31.6221C33.5155 31.2509 34.0201 30.7224 34.368 30.0962C34.7157 29.4704 34.897 28.7654 34.8982 28.0511V28.0482L34.8982 13.659L34.8982 13.656C34.897 12.9417 34.7157 12.2367 34.368 11.6109C34.0201 10.9847 33.5155 10.4563 32.8981 10.0851ZM18.6064 24.644C17.9153 24.644 17.2338 24.431 16.6477 24.0231C16.0606 23.6147 15.5931 23.0268 15.3144 22.3262C15.0355 21.6251 14.9616 20.85 15.1046 20.1015C15.2475 19.3533 15.5987 18.675 16.1039 18.1489C16.6083 17.6236 17.2426 17.2741 17.9224 17.1333C18.6018 16.9926 19.3067 17.0641 19.9512 17.3421C20.5965 17.6205 21.1592 18.0968 21.5601 18.7215C21.9614 19.3469 22.1794 20.089 22.1794 20.8536C22.1794 21.8804 21.787 22.8521 21.109 23.5582C20.4332 24.262 19.5315 24.644 18.6064 24.644Z" fill="#FFB545" stroke="#F8F8F8" stroke-width="3.37071"/>
<g filter="url(#filter0_b_158_865)">
<rect x="54.5605" y="55.6841" width="149.435" height="52.8079" rx="11.2357" fill="#EDEDFF" fill-opacity="0.5"/>
<rect x="55.1223" y="56.2459" width="148.311" height="51.6843" rx="10.6739" stroke="#EAEAF7" stroke-width="1.12357" style="mix-blend-mode:multiply"/>
</g>
<path d="M82.2067 84.5513C82.2067 85.4071 81.996 86.1445 81.5747 86.7633C81.16 87.3821 80.5609 87.8561 79.7774 88.1853C79.0006 88.5145 78.0723 88.6791 76.9926 88.6791C76.466 88.6791 75.9623 88.6494 75.4817 88.5902C75.0012 88.5309 74.5469 88.4454 74.119 88.3334C73.6976 88.2149 73.3125 88.0734 72.9636 87.9088V85.677C73.5495 85.9338 74.2046 86.1675 74.9287 86.3782C75.6529 86.5822 76.3903 86.6843 77.1408 86.6843C77.753 86.6843 78.26 86.6053 78.6615 86.4473C79.0697 86.2827 79.3726 86.0523 79.5701 85.756C79.7676 85.4532 79.8663 85.101 79.8663 84.6994C79.8663 84.2715 79.7511 83.9094 79.5207 83.6131C79.2903 83.3169 78.9413 83.0469 78.4739 82.8034C78.0131 82.5532 77.4337 82.2866 76.7359 82.0035C76.2619 81.8126 75.8076 81.5953 75.3731 81.3517C74.9452 81.1081 74.5634 80.8218 74.2276 80.4926C73.8919 80.1634 73.6252 79.775 73.4277 79.3273C73.2368 78.8731 73.1413 78.3398 73.1413 77.7275C73.1413 76.9112 73.3356 76.2134 73.724 75.634C74.119 75.0547 74.672 74.6103 75.383 74.3009C76.1006 73.9914 76.9367 73.8367 77.8913 73.8367C78.6484 73.8367 79.3594 73.9157 80.0243 74.0737C80.6958 74.2317 81.3542 74.4556 81.9993 74.7452L81.2488 76.6512C80.6563 76.4076 80.0803 76.2134 79.5207 76.0685C78.9677 75.9237 78.4015 75.8513 77.8222 75.8513C77.3218 75.8513 76.8972 75.927 76.5483 76.0784C76.1993 76.2298 75.9327 76.4438 75.7484 76.7203C75.5706 76.9902 75.4817 77.3128 75.4817 77.688C75.4817 78.1094 75.5838 78.4649 75.7879 78.7546C75.9985 79.0376 76.3211 79.2977 76.7556 79.5347C77.1967 79.7717 77.7629 80.035 78.4542 80.3247C79.2508 80.6539 79.9256 80.9995 80.4786 81.3616C81.0382 81.7237 81.4661 82.1582 81.7623 82.6651C82.0586 83.1655 82.2067 83.7942 82.2067 84.5513ZM97.1083 77.3424C98.3328 77.3424 99.2545 77.6584 99.8733 78.2904C100.499 78.9224 100.811 79.9363 100.811 81.332V88.4816H98.4908V81.7467C98.4908 80.9172 98.3295 80.2918 98.0069 79.8704C97.6844 79.4491 97.1939 79.2384 96.5355 79.2384C95.6139 79.2384 94.9489 79.5347 94.5408 80.1272C94.1392 80.7131 93.9384 81.5657 93.9384 82.6849V88.4816H91.6177V81.7467C91.6177 81.1937 91.5453 80.7329 91.4005 80.3642C91.2622 79.9889 91.0483 79.7092 90.7586 79.5248C90.4689 79.3339 90.1035 79.2384 89.6624 79.2384C89.0239 79.2384 88.5136 79.3833 88.1318 79.6729C87.7565 79.9626 87.4866 80.3905 87.322 80.9567C87.1575 81.5163 87.0752 82.2043 87.0752 83.0206V88.4816H84.7545V77.5498H86.5617L86.8875 79.0212H87.0159C87.2397 78.6393 87.5163 78.3266 87.8454 78.083C88.1812 77.8329 88.5531 77.6485 88.9613 77.53C89.3695 77.405 89.7941 77.3424 90.2352 77.3424C91.0516 77.3424 91.7395 77.4872 92.2991 77.7769C92.8587 78.06 93.2767 78.4945 93.5533 79.0804H93.731C94.0733 78.4879 94.5506 78.0501 95.1629 77.767C95.7752 77.484 96.4236 77.3424 97.1083 77.3424ZM108.336 77.3424C109.719 77.3424 110.762 77.6485 111.467 78.2608C112.178 78.8731 112.533 79.8277 112.533 81.1246V88.4816H110.884L110.44 86.9312H110.361C110.051 87.3262 109.732 87.6521 109.403 87.9088C109.074 88.1656 108.692 88.3565 108.257 88.4816C107.829 88.6132 107.306 88.6791 106.687 88.6791C106.035 88.6791 105.453 88.5606 104.939 88.3236C104.426 88.08 104.021 87.7113 103.725 87.2175C103.428 86.7238 103.28 86.0984 103.28 85.3413C103.28 84.2155 103.698 83.3695 104.534 82.8034C105.377 82.2372 106.648 81.9245 108.346 81.8652L110.242 81.7961V81.2233C110.242 80.4662 110.064 79.9264 109.709 79.6038C109.36 79.2812 108.866 79.1199 108.228 79.1199C107.681 79.1199 107.151 79.1989 106.638 79.3569C106.124 79.5149 105.624 79.7092 105.137 79.9396L104.386 78.3003C104.92 78.0172 105.525 77.7868 106.203 77.609C106.888 77.4313 107.599 77.3424 108.336 77.3424ZM110.232 83.2576L108.82 83.307C107.662 83.3465 106.848 83.544 106.381 83.8995C105.914 84.255 105.68 84.7422 105.68 85.361C105.68 85.9009 105.841 86.2959 106.164 86.546C106.486 86.7896 106.911 86.9114 107.438 86.9114C108.241 86.9114 108.906 86.6843 109.432 86.23C109.966 85.7692 110.232 85.0944 110.232 84.2056V83.2576ZM121.322 77.3424C121.506 77.3424 121.707 77.3523 121.925 77.372C122.142 77.3918 122.329 77.4181 122.487 77.451L122.27 79.6236C122.132 79.5841 121.961 79.5544 121.757 79.5347C121.559 79.5149 121.381 79.5051 121.223 79.5051C120.809 79.5051 120.414 79.5742 120.038 79.7124C119.663 79.8441 119.331 80.0482 119.041 80.3247C118.751 80.5946 118.524 80.9337 118.36 81.3418C118.195 81.75 118.113 82.224 118.113 82.7639V88.4816H115.782V77.5498H117.599L117.915 79.4754H118.024C118.241 79.087 118.511 78.7315 118.834 78.4089C119.156 78.0863 119.525 77.8296 119.94 77.6387C120.361 77.4412 120.822 77.3424 121.322 77.3424ZM128.58 86.8028C128.883 86.8028 129.183 86.7765 129.479 86.7238C129.775 86.6645 130.045 86.5954 130.289 86.5164V88.2742C130.032 88.3861 129.7 88.4816 129.291 88.5606C128.883 88.6396 128.459 88.6791 128.017 88.6791C127.399 88.6791 126.842 88.577 126.349 88.3729C125.855 88.1623 125.463 87.8035 125.173 87.2966C124.884 86.7896 124.739 86.0885 124.739 85.1931V79.3174H123.248V78.2805L124.848 77.4609L125.608 75.1205H127.069V77.5498H130.2V79.3174H127.069V85.1635C127.069 85.7165 127.208 86.128 127.484 86.3979C127.761 86.6678 128.126 86.8028 128.58 86.8028ZM143.008 88.4816H140.628V76.0586H136.401V74.0441H147.225V76.0586H143.008V88.4816ZM158.877 82.991C158.877 83.8995 158.759 84.706 158.522 85.4104C158.285 86.1148 157.939 86.7106 157.485 87.1978C157.031 87.6784 156.484 88.0471 155.846 88.3038C155.207 88.554 154.486 88.6791 153.683 88.6791C152.932 88.6791 152.244 88.554 151.619 88.3038C150.994 88.0471 150.451 87.6784 149.99 87.1978C149.535 86.7106 149.183 86.1148 148.933 85.4104C148.683 84.706 148.558 83.8995 148.558 82.991C148.558 81.7862 148.765 80.7658 149.18 79.9297C149.601 79.087 150.2 78.4451 150.977 78.004C151.754 77.563 152.679 77.3424 153.752 77.3424C154.759 77.3424 155.648 77.563 156.418 78.004C157.189 78.4451 157.791 79.087 158.226 79.9297C158.66 80.7724 158.877 81.7928 158.877 82.991ZM150.948 82.991C150.948 83.7876 151.043 84.469 151.234 85.0351C151.431 85.6013 151.734 86.0358 152.142 86.3387C152.551 86.6349 153.077 86.783 153.722 86.783C154.368 86.783 154.894 86.6349 155.303 86.3387C155.711 86.0358 156.01 85.6013 156.201 85.0351C156.392 84.469 156.488 83.7876 156.488 82.991C156.488 82.1944 156.392 81.5196 156.201 80.9666C156.01 80.407 155.711 79.9824 155.303 79.6927C154.894 79.3964 154.364 79.2483 153.713 79.2483C152.751 79.2483 152.05 79.5709 151.609 80.2161C151.168 80.8613 150.948 81.7862 150.948 82.991ZM171.221 82.991C171.221 83.8995 171.103 84.706 170.866 85.4104C170.629 86.1148 170.283 86.7106 169.829 87.1978C169.375 87.6784 168.828 88.0471 168.19 88.3038C167.551 88.554 166.83 88.6791 166.027 88.6791C165.276 88.6791 164.588 88.554 163.963 88.3038C163.338 88.0471 162.794 87.6784 162.334 87.1978C161.879 86.7106 161.527 86.1148 161.277 85.4104C161.027 84.706 160.902 83.8995 160.902 82.991C160.902 81.7862 161.109 80.7658 161.524 79.9297C161.945 79.087 162.544 78.4451 163.321 78.004C164.098 77.563 165.023 77.3424 166.096 77.3424C167.103 77.3424 167.992 77.563 168.762 78.004C169.533 78.4451 170.135 79.087 170.569 79.9297C171.004 80.7724 171.221 81.7928 171.221 82.991ZM163.291 82.991C163.291 83.7876 163.387 84.469 163.578 85.0351C163.775 85.6013 164.078 86.0358 164.486 86.3387C164.895 86.6349 165.421 86.783 166.066 86.783C166.712 86.783 167.238 86.6349 167.646 86.3387C168.055 86.0358 168.354 85.6013 168.545 85.0351C168.736 84.469 168.831 83.7876 168.831 82.991C168.831 82.1944 168.736 81.5196 168.545 80.9666C168.354 80.407 168.055 79.9824 167.646 79.6927C167.238 79.3964 166.708 79.2483 166.057 79.2483C165.095 79.2483 164.394 79.5709 163.953 80.2161C163.512 80.8613 163.291 81.7862 163.291 82.991ZM176.218 88.4816H173.888V73.1159H176.218V88.4816ZM186.883 85.361C186.883 86.0786 186.709 86.6843 186.36 87.178C186.011 87.6718 185.501 88.0471 184.829 88.3038C184.164 88.554 183.348 88.6791 182.38 88.6791C181.616 88.6791 180.958 88.6231 180.405 88.5112C179.859 88.4059 179.342 88.2413 178.855 88.0174V86.0128C179.375 86.2564 179.957 86.467 180.603 86.6448C181.254 86.8225 181.87 86.9114 182.449 86.9114C183.213 86.9114 183.763 86.7929 184.098 86.5559C184.434 86.3123 184.602 85.9897 184.602 85.5882C184.602 85.3511 184.533 85.1405 184.395 84.9561C184.263 84.7652 184.013 84.571 183.644 84.3735C183.282 84.1694 182.749 83.9258 182.044 83.6427C181.353 83.3662 180.77 83.0897 180.296 82.8132C179.822 82.5367 179.464 82.2043 179.22 81.8158C178.976 81.4208 178.855 80.9172 178.855 80.305C178.855 79.3372 179.237 78.6031 180 78.1028C180.77 77.5959 181.788 77.3424 183.052 77.3424C183.723 77.3424 184.355 77.4115 184.948 77.5498C185.547 77.6815 186.133 77.8757 186.705 78.1324L185.975 79.8803C185.481 79.6631 184.984 79.4853 184.484 79.3471C183.99 79.2022 183.486 79.1298 182.973 79.1298C182.374 79.1298 181.916 79.222 181.6 79.4063C181.291 79.5907 181.136 79.854 181.136 80.1963C181.136 80.4531 181.212 80.6703 181.363 80.8481C181.514 81.0258 181.774 81.2036 182.143 81.3813C182.518 81.5591 183.038 81.7796 183.703 82.043C184.355 82.2931 184.918 82.5565 185.392 82.833C185.873 83.1029 186.241 83.4354 186.498 83.8304C186.755 84.2254 186.883 84.7356 186.883 85.361Z" fill="#00AFEF"/>
<defs>
<filter id="filter0_b_158_865" x="43.3248" y="44.4484" width="171.906" height="75.2793" filterUnits="userSpaceOnUse" color-interpolation-filters="sRGB">
<feFlood flood-opacity="0" result="BackgroundImageFix"/>
<feGaussianBlur in="BackgroundImageFix" stdDeviation="5.61786"/>
<feComposite in2="SourceAlpha" operator="in" result="effect1_backgroundBlur_158_865"/>
<feBlend mode="normal" in="SourceGraphic" in2="effect1_backgroundBlur_158_865" result="shape"/>
</filter>
</defs>
</svg>
