<svg width="69" height="69" viewBox="0 0 69 69" fill="none" xmlns="http://www.w3.org/2000/svg">
<circle opacity="0.2" cx="34.2339" cy="34.2339" r="34.2339" fill="#45C646"/>
<path d="M45.5587 22.9617L36.6574 20.5532C33.4287 19.6796 31.0423 21.08 30.1743 24.3512L27.2345 35.4303C26.3523 38.7551 27.737 41.13 30.9658 42.0036L39.8671 44.4122C43.1478 45.2999 45.4698 43.928 46.352 40.6032L49.2917 29.524C50.1597 26.2528 48.8395 23.8495 45.5587 22.9617Z" fill="url(#paint0_linear_98_1613)"/>
<g opacity="0.5" filter="url(#filter0_f_98_1613)">
<path d="M43.2336 25.9954L37.169 24.3545C34.9693 23.7592 33.3434 24.7134 32.752 26.9421L30.7491 34.4904C30.1481 36.7556 31.0915 38.3736 33.2912 38.9688L39.3558 40.6098C41.591 41.2146 43.173 40.2799 43.774 38.0147L45.7769 30.4664C46.3683 28.2377 45.4688 26.6002 43.2336 25.9954Z" fill="#39B93A"/>
</g>
<g filter="url(#filter1_b_98_1613)">
<mask id="path-4-outside-1_98_1613" maskUnits="userSpaceOnUse" x="15.8018" y="23.115" width="29" height="29" fill="black">
<rect fill="white" x="15.8018" y="23.115" width="29" height="29"/>
<path d="M35.9433 25.115H24.9749C20.6862 25.115 17.8018 28.1556 17.8018 32.678V43.1155C17.8018 47.6252 20.6862 50.6657 24.9749 50.6657H35.9433C40.232 50.6657 43.1038 47.6252 43.1038 43.1155V32.678C43.1038 28.1556 40.232 25.115 35.9433 25.115Z"/>
</mask>
<path d="M35.9433 25.115H24.9749C20.6862 25.115 17.8018 28.1556 17.8018 32.678V43.1155C17.8018 47.6252 20.6862 50.6657 24.9749 50.6657H35.9433C40.232 50.6657 43.1038 47.6252 43.1038 43.1155V32.678C43.1038 28.1556 40.232 25.115 35.9433 25.115Z" fill="#72DC60" fill-opacity="0.35"/>
<path d="M35.9433 26.4844C36.6996 26.4844 37.3126 25.8713 37.3126 25.115C37.3126 24.3587 36.6996 23.7457 35.9433 23.7457V26.4844ZM35.9433 23.7457C35.187 23.7457 34.5739 24.3587 34.5739 25.115C34.5739 25.8713 35.187 26.4844 35.9433 26.4844V23.7457ZM35.9433 23.7457H24.9749V26.4844H35.9433V23.7457ZM24.9749 23.7457C22.4938 23.7457 20.328 24.6331 18.7865 26.2582C17.2511 27.877 16.4324 30.1238 16.4324 32.678H19.1711C19.1711 30.7098 19.7946 29.175 20.7736 28.143C21.7465 27.1172 23.1673 26.4844 24.9749 26.4844V23.7457ZM16.4324 32.678V43.1155H19.1711V32.678H16.4324ZM16.4324 43.1155C16.4324 45.6644 17.2517 47.9079 18.7871 49.5247C20.3284 51.1477 22.4939 52.0351 24.9749 52.0351V49.2964C23.1672 49.2964 21.7461 48.6635 20.773 47.6388C19.794 46.6079 19.1711 45.0763 19.1711 43.1155H16.4324ZM24.9749 52.0351H35.9433V49.2964H24.9749V52.0351ZM35.9433 52.0351C38.4246 52.0351 40.5876 51.1475 42.1259 49.5235C43.658 47.9061 44.4731 45.6627 44.4731 43.1155H41.7344C41.7344 45.078 41.1136 46.6097 40.1376 47.64C39.1679 48.6637 37.7507 49.2964 35.9433 49.2964V52.0351ZM44.4731 43.1155V32.678H41.7344V43.1155H44.4731ZM44.4731 32.678C44.4731 30.1254 43.6586 27.8789 42.1265 26.2595C40.588 24.6334 38.4246 23.7457 35.9433 23.7457V26.4844C37.7506 26.4844 39.1675 27.1169 40.1371 28.1417C41.113 29.1732 41.7344 30.7082 41.7344 32.678H44.4731Z" fill="url(#paint1_linear_98_1613)" mask="url(#path-4-outside-1_98_1613)"/>
</g>
<g filter="url(#filter2_bd_98_1613)">
<mask id="path-6-inside-2_98_1613" fill="white">
<path d="M28.9515 42.0397C28.6681 42.0397 28.3847 41.9311 28.1684 41.7126L25.1663 38.681C24.7336 38.2441 24.7336 37.5363 25.1663 37.1007C25.599 36.6638 26.2986 36.6625 26.7312 37.0994L28.9515 39.3415L34.1738 34.0678C34.6065 33.6309 35.3061 33.6309 35.7387 34.0678C36.1714 34.5047 36.1714 35.2125 35.7387 35.6494L29.7346 41.7126C29.5182 41.9311 29.2349 42.0397 28.9515 42.0397Z"/>
</mask>
<path d="M28.9515 42.0397C28.6681 42.0397 28.3847 41.9311 28.1684 41.7126L25.1663 38.681C24.7336 38.2441 24.7336 37.5363 25.1663 37.1007C25.599 36.6638 26.2986 36.6625 26.7312 37.0994L28.9515 39.3415L34.1738 34.0678C34.6065 33.6309 35.3061 33.6309 35.7387 34.0678C36.1714 34.5047 36.1714 35.2125 35.7387 35.6494L29.7346 41.7126C29.5182 41.9311 29.2349 42.0397 28.9515 42.0397Z" fill="url(#paint2_linear_98_1613)"/>
<path d="M25.1663 37.1007L25.3606 37.2937L25.3609 37.2934L25.1663 37.1007ZM28.9515 39.3415L28.7569 39.5342L28.9515 39.7307L29.1461 39.5342L28.9515 39.3415ZM35.7387 35.6494L35.5441 35.4567L35.7387 35.6494ZM29.7346 41.7126L29.9292 41.9053L29.7346 41.7126ZM28.9515 41.7658C28.7383 41.7658 28.5258 41.6844 28.363 41.5199L27.9738 41.9053C28.2436 42.1778 28.5979 42.3135 28.9515 42.3135V41.7658ZM28.363 41.5199L25.3609 38.4883L24.9717 38.8737L27.9738 41.9053L28.363 41.5199ZM25.3609 38.4883C25.0338 38.158 25.0342 37.6224 25.3606 37.2937L24.972 36.9077C24.4331 37.4503 24.4335 38.3302 24.9717 38.8737L25.3609 38.4883ZM25.3609 37.2934C25.6868 36.9643 26.2115 36.9638 26.5366 37.2921L26.9258 36.9067C26.3856 36.3612 25.5111 36.3633 24.9717 36.908L25.3609 37.2934ZM26.5366 37.2921L28.7569 39.5342L29.1461 39.1488L26.9258 36.9067L26.5366 37.2921ZM29.1461 39.5342L34.3684 34.2605L33.9792 33.8751L28.7569 39.1488L29.1461 39.5342ZM34.3684 34.2605C34.6939 33.9318 35.2186 33.9318 35.5441 34.2605L35.9333 33.8751C35.3935 33.33 34.519 33.33 33.9792 33.8751L34.3684 34.2605ZM35.5441 34.2605C35.8711 34.5907 35.8711 35.1265 35.5441 35.4567L35.9333 35.8421C36.4717 35.2985 36.4717 34.4188 35.9333 33.8751L35.5441 34.2605ZM35.5441 35.4567L29.54 41.5199L29.9292 41.9053L35.9333 35.8421L35.5441 35.4567ZM29.54 41.5199C29.3771 41.6844 29.1647 41.7658 28.9515 41.7658V42.3135C29.305 42.3135 29.6594 42.1778 29.9292 41.9053L29.54 41.5199Z" fill="url(#paint3_linear_98_1613)" fill-opacity="0.5" mask="url(#path-6-inside-2_98_1613)"/>
</g>
<defs>
<filter id="filter0_f_98_1613" x="11.4003" y="5.01" width="53.7247" height="54.9506" filterUnits="userSpaceOnUse" color-interpolation-filters="sRGB">
<feFlood flood-opacity="0" result="BackgroundImageFix"/>
<feBlend mode="normal" in="SourceGraphic" in2="BackgroundImageFix" result="shape"/>
<feGaussianBlur stdDeviation="9.58548" result="effect1_foregroundBlur_98_1613"/>
</filter>
<filter id="filter1_b_98_1613" x="-16.4319" y="-9.11885" width="93.7691" height="94.0185" filterUnits="userSpaceOnUse" color-interpolation-filters="sRGB">
<feFlood flood-opacity="0" result="BackgroundImageFix"/>
<feGaussianBlur in="BackgroundImageFix" stdDeviation="16.4323"/>
<feComposite in2="SourceAlpha" operator="in" result="effect1_backgroundBlur_98_1613"/>
<feBlend mode="normal" in="SourceGraphic" in2="effect1_backgroundBlur_98_1613" result="shape"/>
</filter>
<filter id="filter2_bd_98_1613" x="4.30147" y="13.1998" width="52.3023" height="49.3801" filterUnits="userSpaceOnUse" color-interpolation-filters="sRGB">
<feFlood flood-opacity="0" result="BackgroundImageFix"/>
<feGaussianBlur in="BackgroundImageFix" stdDeviation="10.2702"/>
<feComposite in2="SourceAlpha" operator="in" result="effect1_backgroundBlur_98_1613"/>
<feColorMatrix in="SourceAlpha" type="matrix" values="0 0 0 0 0 0 0 0 0 0 0 0 0 0 0 0 0 0 127 0" result="hardAlpha"/>
<feOffset dx="6.84677" dy="6.84677"/>
<feGaussianBlur stdDeviation="6.84677"/>
<feColorMatrix type="matrix" values="0 0 0 0 0.454902 0 0 0 0 0.870588 0 0 0 0 0.376471 0 0 0 0.5 0"/>
<feBlend mode="normal" in2="effect1_backgroundBlur_98_1613" result="effect2_dropShadow_98_1613"/>
<feBlend mode="normal" in="SourceGraphic" in2="effect2_dropShadow_98_1613" result="shape"/>
</filter>
<linearGradient id="paint0_linear_98_1613" x1="50.6663" y1="24.3438" x2="31.1513" y2="36.1712" gradientUnits="userSpaceOnUse">
<stop stop-color="#9BF763"/>
<stop offset="1" stop-color="#26AB5B"/>
</linearGradient>
<linearGradient id="paint1_linear_98_1613" x1="21.8294" y1="28.0917" x2="38.1609" y2="48.1218" gradientUnits="userSpaceOnUse">
<stop stop-color="white" stop-opacity="0.25"/>
<stop offset="1" stop-color="white" stop-opacity="0"/>
</linearGradient>
<linearGradient id="paint2_linear_98_1613" x1="35.2676" y1="35.2389" x2="22.779" y2="35.7894" gradientUnits="userSpaceOnUse">
<stop stop-color="white"/>
<stop offset="1" stop-color="white" stop-opacity="0.2"/>
</linearGradient>
<linearGradient id="paint3_linear_98_1613" x1="26.0506" y1="36.5242" x2="35.5789" y2="36.5953" gradientUnits="userSpaceOnUse">
<stop stop-color="white"/>
<stop offset="1" stop-color="white" stop-opacity="0"/>
</linearGradient>
</defs>
</svg>
