<svg width="62" height="67" viewBox="0 0 62 67" fill="none" xmlns="http://www.w3.org/2000/svg">
<circle opacity="0.2" cx="30.5512" cy="35.5512" r="30.5512" fill="#36A3F2"/>
<path d="M24.5065 33.0302C21.893 30.7307 21.4005 26.8121 23.3645 23.9445V23.9445C25.3286 21.0769 29.117 20.1834 32.1483 21.8729L36.4167 24.252C40.2131 26.3679 41.3786 31.3447 38.9188 34.9361V34.9361C36.459 38.5275 31.4599 39.148 28.1867 36.2681L24.5065 33.0302Z" fill="url(#paint0_linear_79_1308)"/>
<g opacity="0.5" filter="url(#filter0_f_79_1308)">
<path d="M26.701 31.5988C25.1562 30.2396 24.8651 27.9233 26.026 26.2283V26.2283C27.1869 24.5333 29.4262 24.0052 31.218 25.0038L33.741 26.4101C35.985 27.6608 36.6739 30.6025 35.22 32.7253V32.7253C33.766 34.8482 30.8111 35.2149 28.8763 33.5127L26.701 31.5988Z" fill="#0062FF"/>
</g>
<g filter="url(#filter1_b_79_1308)">
<mask id="path-4-outside-1_79_1308" maskUnits="userSpaceOnUse" x="13.8867" y="25.0714" width="33" height="31" fill="black">
<rect fill="white" x="13.8867" y="25.0714" width="33" height="31"/>
<path d="M44.1161 42.6766C42.9121 42.6766 41.9325 41.6907 41.9325 40.479C41.9325 39.2657 42.9121 38.2798 44.1161 38.2798C44.4079 38.2798 44.688 38.1632 44.8933 37.9566C45.1001 37.7484 45.2159 37.4665 45.2159 37.1728L45.2144 33.1848C45.2144 29.8137 42.4883 27.0714 39.1389 27.0714H21.9637C18.6143 27.0714 15.8882 29.8137 15.8882 33.1848L15.8867 37.3012C15.8867 37.5949 16.0026 37.8769 16.2093 38.085C16.4146 38.2916 16.6947 38.4082 16.9866 38.4082C18.2316 38.4082 19.1701 39.2982 19.1701 40.479C19.1701 41.6907 18.1905 42.6766 16.9866 42.6766C16.3794 42.6766 15.8867 43.1726 15.8867 43.7836V47.7687C15.8867 51.1398 18.6114 53.8835 21.9623 53.8835H39.1404C42.4912 53.8835 45.2159 51.1398 45.2159 47.7687V43.7836C45.2159 43.1726 44.7232 42.6766 44.1161 42.6766"/>
</mask>
<path d="M44.1161 42.6766C42.9121 42.6766 41.9325 41.6907 41.9325 40.479C41.9325 39.2657 42.9121 38.2798 44.1161 38.2798C44.4079 38.2798 44.688 38.1632 44.8933 37.9566C45.1001 37.7484 45.2159 37.4665 45.2159 37.1728L45.2144 33.1848C45.2144 29.8137 42.4883 27.0714 39.1389 27.0714H21.9637C18.6143 27.0714 15.8882 29.8137 15.8882 33.1848L15.8867 37.3012C15.8867 37.5949 16.0026 37.8769 16.2093 38.085C16.4146 38.2916 16.6947 38.4082 16.9866 38.4082C18.2316 38.4082 19.1701 39.2982 19.1701 40.479C19.1701 41.6907 18.1905 42.6766 16.9866 42.6766C16.3794 42.6766 15.8867 43.1726 15.8867 43.7836V47.7687C15.8867 51.1398 18.6114 53.8835 21.9623 53.8835H39.1404C42.4912 53.8835 45.2159 51.1398 45.2159 47.7687V43.7836C45.2159 43.1726 44.7232 42.6766 44.1161 42.6766" fill="#3EA0FE" fill-opacity="0.35"/>
<path d="M44.1161 43.8987C44.791 43.8987 45.3381 43.3516 45.3381 42.6766C45.3381 42.0017 44.791 41.4546 44.1161 41.4546V43.8987ZM44.8933 37.9566L44.0264 37.0952L44.0264 37.0952L44.8933 37.9566ZM45.2159 37.1728L46.438 37.1728L46.438 37.1724L45.2159 37.1728ZM45.2144 33.1848L43.9924 33.1848L43.9924 33.1853L45.2144 33.1848ZM15.8882 33.1848L17.1102 33.1852V33.1848H15.8882ZM15.8867 37.3012L14.6647 37.3008V37.3012H15.8867ZM16.2093 38.085L17.0762 37.2236L17.0762 37.2236L16.2093 38.085ZM44.1161 41.4546C43.4411 41.4546 42.894 42.0017 42.894 42.6766C42.894 43.3516 43.4411 43.8987 44.1161 43.8987V41.4546ZM44.1161 41.4546C43.5944 41.4546 43.1546 41.0232 43.1546 40.479H40.7105C40.7105 42.3582 42.2298 43.8987 44.1161 43.8987V41.4546ZM43.1546 40.479C43.1546 39.9327 43.595 39.5018 44.1161 39.5018V37.0577C42.2292 37.0577 40.7105 38.5988 40.7105 40.479H43.1546ZM44.1161 39.5018C44.7332 39.5018 45.3254 39.2555 45.7602 38.8179L44.0264 37.0952C44.0506 37.0708 44.0826 37.0577 44.1161 37.0577V39.5018ZM45.7602 38.8179C46.1954 38.3799 46.438 37.788 46.438 37.1728H43.9939C43.9939 37.1451 44.0048 37.117 44.0264 37.0952L45.7602 38.8179ZM46.438 37.1724L46.4365 33.1844L43.9924 33.1853L43.9939 37.1733L46.438 37.1724ZM46.4365 33.1848C46.4365 29.1459 43.1703 25.8494 39.1389 25.8494V28.2935C41.8063 28.2935 43.9924 30.4816 43.9924 33.1848H46.4365ZM39.1389 25.8494H21.9637V28.2935H39.1389V25.8494ZM21.9637 25.8494C17.9324 25.8494 14.6661 29.1459 14.6661 33.1848H17.1102C17.1102 30.4816 19.2963 28.2935 21.9637 28.2935V25.8494ZM14.6661 33.1844L14.6647 37.3008L17.1088 37.3017L17.1102 33.1852L14.6661 33.1844ZM14.6647 37.3012C14.6647 37.9164 14.9073 38.5083 15.3424 38.9463L17.0762 37.2236C17.0979 37.2454 17.1088 37.2735 17.1088 37.3012H14.6647ZM15.3424 38.9463C15.7773 39.3839 16.3694 39.6302 16.9866 39.6302V37.1861C17.02 37.1861 17.052 37.1993 17.0762 37.2236L15.3424 38.9463ZM16.9866 39.6302C17.6186 39.6302 17.9481 40.0334 17.9481 40.479H20.3922C20.3922 38.563 18.8446 37.1861 16.9866 37.1861V39.6302ZM17.9481 40.479C17.9481 41.0232 17.5082 41.4546 16.9866 41.4546V43.8987C18.8729 43.8987 20.3922 42.3582 20.3922 40.479H17.9481ZM16.9866 41.4546C15.6971 41.4546 14.6647 42.5051 14.6647 43.7836H17.1088C17.1088 43.84 17.0618 43.8987 16.9866 43.8987V41.4546ZM14.6647 43.7836V47.7687H17.1088V43.7836H14.6647ZM14.6647 47.7687C14.6647 51.807 17.9289 55.1056 21.9623 55.1056V52.6615C19.2939 52.6615 17.1088 50.4725 17.1088 47.7687H14.6647ZM21.9623 55.1056H39.1404V52.6615H21.9623V55.1056ZM39.1404 55.1056C43.1738 55.1056 46.438 51.807 46.438 47.7687H43.9939C43.9939 50.4725 41.8087 52.6615 39.1404 52.6615V55.1056ZM46.438 47.7687V43.7836H43.9939V47.7687H46.438ZM46.438 43.7836C46.438 42.5051 45.4055 41.4546 44.1161 41.4546V43.8987C44.0408 43.8987 43.9939 43.84 43.9939 43.7836H46.438Z" fill="url(#paint1_linear_79_1308)" mask="url(#path-4-outside-1_79_1308)"/>
</g>
<g filter="url(#filter2_bd_79_1308)">
<path d="M35.5819 39.8648L33.853 41.5748L34.2621 43.9923C34.3325 44.4109 34.1668 44.8235 33.828 45.0708C33.4922 45.321 33.0537 45.3523 32.6842 45.1527L30.5505 44.0132L28.4124 45.1542C28.254 45.2391 28.081 45.2838 27.9094 45.2838C27.685 45.2838 27.4636 45.2123 27.2729 45.0723C26.9357 44.8235 26.77 44.4109 26.8403 43.9923L27.248 41.5748L25.5191 39.8648C25.2199 39.5698 25.1158 39.1364 25.2448 38.7327C25.3753 38.3305 25.7126 38.0445 26.1247 37.9849L28.5092 37.6319L29.5782 35.4318C29.7645 35.0535 30.1369 34.8181 30.5505 34.8181H30.5534C30.9684 34.8196 31.3409 35.055 31.5242 35.4333L32.5933 37.6319L34.9821 37.9864C35.3898 38.0445 35.7271 38.3305 35.8561 38.7327C35.9867 39.1364 35.8825 39.5698 35.5819 39.8648Z" fill="url(#paint2_linear_79_1308)"/>
<path d="M27.2729 45.0723L27.3455 44.9739C27.0457 44.7528 26.898 44.3863 26.9609 44.0126L27.3685 41.5951L27.3791 41.5325L27.334 41.4879L25.605 39.7779L25.6049 39.7777C25.3392 39.5158 25.246 39.1307 25.3612 38.7702C25.4776 38.4117 25.777 38.1587 26.1422 38.1059L26.1426 38.1058L28.5271 37.7528L28.5909 37.7433L28.6191 37.6853L29.6879 35.4858C29.6879 35.4857 29.688 35.4856 29.688 35.4855C29.8543 35.148 30.1849 34.9403 30.5505 34.9403H30.5532C30.9209 34.9417 31.2511 35.1498 31.4142 35.4866L31.4143 35.4867L32.4834 37.6853L32.5116 37.7433L32.5753 37.7528L34.9642 38.1073L34.9649 38.1074C35.3253 38.1588 35.6247 38.4115 35.7398 38.77L35.7399 38.7703C35.8564 39.1306 35.7633 39.5156 35.4963 39.7775L35.496 39.7779L33.767 41.4879L33.7219 41.5325L33.7325 41.5952L34.1416 44.0126C34.2044 44.3864 34.0567 44.7526 33.756 44.9721L33.755 44.9728C33.4575 45.1945 33.0702 45.2223 32.7423 45.0452L32.7418 45.0449L30.6081 43.9054L30.5505 43.8747L30.4929 43.9054L28.3549 45.0464L28.3546 45.0465C28.2131 45.1224 28.0598 45.1616 27.9094 45.1616C27.7114 45.1616 27.5152 45.0986 27.3453 44.9738L27.2729 45.0723ZM27.2729 45.0723C27.4636 45.2123 27.685 45.2838 27.9094 45.2838C28.081 45.2838 28.254 45.2391 28.4124 45.1542L26.1247 37.9849C25.7126 38.0445 25.3753 38.3305 25.2448 38.7327C25.1158 39.1364 25.2199 39.5698 25.5191 39.8648L27.248 41.5748L26.8403 43.9923C26.77 44.4109 26.9357 44.8235 27.2729 45.0723Z" stroke="url(#paint3_linear_79_1308)" stroke-opacity="0.5" stroke-width="0.24441"/>
</g>
<defs>
<filter id="filter0_f_79_1308" x="0.875902" y="0.059618" width="59.5495" height="58.9673" filterUnits="userSpaceOnUse" color-interpolation-filters="sRGB">
<feFlood flood-opacity="0" result="BackgroundImageFix"/>
<feBlend mode="normal" in="SourceGraphic" in2="BackgroundImageFix" result="shape"/>
<feGaussianBlur stdDeviation="12.2205" result="effect1_foregroundBlur_79_1308"/>
</filter>
<filter id="filter1_b_79_1308" x="-14.6646" y="-3.47982" width="90.4318" height="87.9146" filterUnits="userSpaceOnUse" color-interpolation-filters="sRGB">
<feFlood flood-opacity="0" result="BackgroundImageFix"/>
<feGaussianBlur in="BackgroundImageFix" stdDeviation="14.6646"/>
<feComposite in2="SourceAlpha" operator="in" result="effect1_backgroundBlur_79_1308"/>
<feBlend mode="normal" in="SourceGraphic" in2="effect1_backgroundBlur_79_1308" result="shape"/>
</filter>
<filter id="filter2_bd_79_1308" x="6.85969" y="16.4874" width="47.3827" height="47.1272" filterUnits="userSpaceOnUse" color-interpolation-filters="sRGB">
<feFlood flood-opacity="0" result="BackgroundImageFix"/>
<feGaussianBlur in="BackgroundImageFix" stdDeviation="9.16537"/>
<feComposite in2="SourceAlpha" operator="in" result="effect1_backgroundBlur_79_1308"/>
<feColorMatrix in="SourceAlpha" type="matrix" values="0 0 0 0 0 0 0 0 0 0 0 0 0 0 0 0 0 0 127 0" result="hardAlpha"/>
<feOffset dx="6.11025" dy="6.11025"/>
<feGaussianBlur stdDeviation="6.11025"/>
<feColorMatrix type="matrix" values="0 0 0 0 0.15375 0 0 0 0 0.522433 0 0 0 0 0.9 0 0 0 0.5 0"/>
<feBlend mode="normal" in2="effect1_backgroundBlur_79_1308" result="effect2_dropShadow_79_1308"/>
<feBlend mode="normal" in="SourceGraphic" in2="effect2_dropShadow_79_1308" result="shape"/>
</filter>
<linearGradient id="paint0_linear_79_1308" x1="27.3105" y1="18.1831" x2="25.6103" y2="39.9847" gradientUnits="userSpaceOnUse">
<stop stop-color="#39AFFD"/>
<stop offset="1" stop-color="#477FFF"/>
</linearGradient>
<linearGradient id="paint1_linear_79_1308" x1="20.5554" y1="30.1951" x2="42.3499" y2="54.4807" gradientUnits="userSpaceOnUse">
<stop stop-color="white" stop-opacity="0.25"/>
<stop offset="1" stop-color="white" stop-opacity="0"/>
</linearGradient>
<linearGradient id="paint2_linear_79_1308" x1="35.1513" y1="36.708" x2="23.2098" y2="37.1069" gradientUnits="userSpaceOnUse">
<stop stop-color="white"/>
<stop offset="1" stop-color="white" stop-opacity="0.2"/>
</linearGradient>
<linearGradient id="paint3_linear_79_1308" x1="26.3453" y1="38.3288" x2="35.4489" y2="38.3803" gradientUnits="userSpaceOnUse">
<stop stop-color="white"/>
<stop offset="1" stop-color="white" stop-opacity="0"/>
</linearGradient>
</defs>
</svg>
