<svg width="62" height="62" viewBox="0 0 62 62" fill="none" xmlns="http://www.w3.org/2000/svg">
<circle opacity="0.2" cx="30.5512" cy="30.5512" r="30.5512" fill="#9436F2"/>
<path fill-rule="evenodd" clip-rule="evenodd" d="M17.7211 24.5627H30.4533C31.4042 24.5627 32.1744 25.3357 32.1744 26.2902V27.497C32.1744 27.96 31.9887 28.4046 31.659 28.7288L26.3982 33.9137C26.3569 33.9549 26.3087 33.9877 26.2565 34.0112V38.0653C26.2565 38.311 26.1133 38.5333 25.8902 38.6361L22.3264 40.2667C22.2431 40.3043 22.1548 40.3227 22.0666 40.3227C21.9492 40.3227 21.8318 40.2892 21.7294 40.2232C21.5503 40.1079 21.4421 39.909 21.4421 39.6958V33.9916C21.3889 33.9658 21.3403 33.9303 21.299 33.8862L16.4646 28.7054C16.1657 28.3853 16 27.9625 16 27.5237V26.291C16 25.3366 16.7702 24.5627 17.7211 24.5627Z" fill="url(#paint0_linear_80_1408)"/>
<g filter="url(#filter0_f_80_1408)">
<rect width="7.23893" height="4.82595" rx="2.41298" transform="matrix(0.716228 0.697867 -0.716228 0.697867 24.5547 23.7636)" fill="#8237FF" fill-opacity="0.5"/>
</g>
<g filter="url(#filter1_b_80_1408)">
<mask id="path-4-outside-1_80_1408" maskUnits="userSpaceOnUse" x="19.4995" y="17.0016" width="28" height="27" fill="black">
<rect fill="white" x="19.4995" y="17.0016" width="28" height="27"/>
<path fill-rule="evenodd" clip-rule="evenodd" d="M24.0352 19.0016H42.7937C44.1947 19.0016 45.3294 20.1405 45.3294 21.5467V23.3247C45.3294 24.0068 45.0558 24.6619 44.57 25.1396L36.8193 32.7786C36.6856 32.9116 36.5041 32.9855 36.3164 32.9842L29.8268 32.9645C29.6293 32.9645 29.4416 32.882 29.3066 32.738L22.184 25.1051C21.7436 24.6336 21.4995 24.0105 21.4995 23.3641V21.5479C21.4995 20.1418 22.6343 19.0016 24.0352 19.0016ZM30.1744 35.0506L35.9586 35.0678C36.3193 35.069 36.6113 35.3633 36.6113 35.7241V38.8947C36.6113 39.2567 36.4003 39.5842 36.0715 39.7357L30.8209 42.1379C30.6983 42.1933 30.5682 42.2204 30.4382 42.2204C30.2652 42.2204 30.0922 42.1712 29.9414 42.0739C29.6776 41.904 29.5181 41.6109 29.5181 41.297V35.7069C29.5181 35.3436 29.8125 35.0493 30.1744 35.0506Z"/>
</mask>
<path fill-rule="evenodd" clip-rule="evenodd" d="M24.0352 19.0016H42.7937C44.1947 19.0016 45.3294 20.1405 45.3294 21.5467V23.3247C45.3294 24.0068 45.0558 24.6619 44.57 25.1396L36.8193 32.7786C36.6856 32.9116 36.5041 32.9855 36.3164 32.9842L29.8268 32.9645C29.6293 32.9645 29.4416 32.882 29.3066 32.738L22.184 25.1051C21.7436 24.6336 21.4995 24.0105 21.4995 23.3641V21.5479C21.4995 20.1418 22.6343 19.0016 24.0352 19.0016ZM30.1744 35.0506L35.9586 35.0678C36.3193 35.069 36.6113 35.3633 36.6113 35.7241V38.8947C36.6113 39.2567 36.4003 39.5842 36.0715 39.7357L30.8209 42.1379C30.6983 42.1933 30.5682 42.2204 30.4382 42.2204C30.2652 42.2204 30.0922 42.1712 29.9414 42.0739C29.6776 41.904 29.5181 41.6109 29.5181 41.297V35.7069C29.5181 35.3436 29.8125 35.0493 30.1744 35.0506Z" fill="#BA90FF" fill-opacity="0.35"/>
<path d="M44.57 25.1396L43.7132 24.2683L43.7122 24.2693L44.57 25.1396ZM36.8193 32.7786L35.9615 31.9082L35.9576 31.9121L36.8193 32.7786ZM36.3164 32.9842L36.3244 31.7622L36.3201 31.7622L36.3164 32.9842ZM29.8268 32.9645L29.8305 31.7425H29.8268V32.9645ZM29.3066 32.738L28.4132 33.5717L28.4148 33.5734L29.3066 32.738ZM22.184 25.1051L23.0775 24.2714L23.0772 24.2711L22.184 25.1051ZM35.9586 35.0678L35.9628 33.8458L35.9623 33.8458L35.9586 35.0678ZM30.1744 35.0506L30.1703 36.2726L30.1708 36.2726L30.1744 35.0506ZM36.0715 39.7357L36.5799 40.8469L36.5828 40.8456L36.0715 39.7357ZM30.8209 42.1379L31.324 43.2517L31.3294 43.2492L30.8209 42.1379ZM29.9414 42.0739L30.6035 41.0468L30.6032 41.0466L29.9414 42.0739ZM42.7937 17.7795H24.0352V20.2236H42.7937V17.7795ZM46.5515 21.5467C46.5515 19.4699 44.8738 17.7795 42.7937 17.7795V20.2236C43.5155 20.2236 44.1074 20.8112 44.1074 21.5467H46.5515ZM46.5515 23.3247V21.5467H44.1074V23.3247H46.5515ZM45.4269 26.0109C46.1473 25.3025 46.5515 24.3331 46.5515 23.3247H44.1074C44.1074 23.6806 43.9644 24.0213 43.7132 24.2683L45.4269 26.0109ZM37.6772 33.649L45.4279 26.01L43.7122 24.2693L35.9615 31.9082L37.6772 33.649ZM36.3084 34.2063C36.8211 34.2096 37.3159 34.0083 37.6811 33.6451L35.9576 31.9121C36.0553 31.8149 36.1871 31.7613 36.3244 31.7622L36.3084 34.2063ZM29.8231 34.1866L36.3127 34.2063L36.3201 31.7622L29.8305 31.7425L29.8231 34.1866ZM28.4148 33.5734C28.7775 33.9607 29.2867 34.1866 29.8268 34.1866V31.7425C29.9719 31.7425 30.1056 31.8034 30.1985 31.9025L28.4148 33.5734ZM21.2906 25.9389L28.4132 33.5717L30.2001 31.9042L23.0775 24.2714L21.2906 25.9389ZM20.2775 23.3641C20.2775 24.3179 20.6376 25.2397 21.2909 25.9392L23.0772 24.2711C22.8497 24.0275 22.7216 23.7032 22.7216 23.3641H20.2775ZM20.2775 21.5479V23.3641H22.7216V21.5479H20.2775ZM24.0352 17.7795C21.9543 17.7795 20.2775 19.4719 20.2775 21.5479H22.7216C22.7216 20.8117 23.3142 20.2236 24.0352 20.2236V17.7795ZM35.9623 33.8458L30.1781 33.8285L30.1708 36.2726L35.955 36.2898L35.9623 33.8458ZM37.8333 35.7241C37.8333 34.6933 37.0001 33.8493 35.9628 33.8458L35.9545 36.2898C35.6385 36.2888 35.3892 36.0333 35.3892 35.7241H37.8333ZM37.8333 38.8947V35.7241H35.3892V38.8947H37.8333ZM36.5828 40.8456C37.3421 40.4958 37.8333 39.7366 37.8333 38.8947H35.3892C35.3892 38.7767 35.4584 38.6726 35.5602 38.6257L36.5828 40.8456ZM31.3294 43.2492L36.5799 40.8469L35.5631 38.6244L30.3125 41.0267L31.3294 43.2492ZM30.4382 43.4425C30.739 43.4425 31.0408 43.3795 31.324 43.2517L30.3179 41.0242C30.3557 41.0071 30.3974 40.9984 30.4382 40.9984V43.4425ZM29.2792 43.101C29.6303 43.3273 30.0337 43.4425 30.4382 43.4425V40.9984C30.4968 40.9984 30.5542 41.015 30.6035 41.0468L29.2792 43.101ZM28.2961 41.297C28.2961 42.0253 28.6657 42.7058 29.2795 43.1012L30.6032 41.0466C30.6895 41.1022 30.7402 41.1966 30.7402 41.297H28.2961ZM28.2961 35.7069V41.297H30.7402V35.7069H28.2961ZM30.1786 33.8285C29.1365 33.825 28.2961 34.6708 28.2961 35.7069H30.7402C30.7402 36.0164 30.4886 36.2737 30.1703 36.2726L30.1786 33.8285Z" fill="url(#paint1_linear_80_1408)" mask="url(#path-4-outside-1_80_1408)"/>
</g>
<defs>
<filter id="filter0_f_80_1408" x="1.33551" y="3.97522" width="48.1664" height="47.9965" filterUnits="userSpaceOnUse" color-interpolation-filters="sRGB">
<feFlood flood-opacity="0" result="BackgroundImageFix"/>
<feBlend mode="normal" in="SourceGraphic" in2="BackgroundImageFix" result="shape"/>
<feGaussianBlur stdDeviation="10.3874" result="effect1_foregroundBlur_80_1408"/>
</filter>
<filter id="filter1_b_80_1408" x="-9.05185" y="-11.5496" width="84.9325" height="84.3213" filterUnits="userSpaceOnUse" color-interpolation-filters="sRGB">
<feFlood flood-opacity="0" result="BackgroundImageFix"/>
<feGaussianBlur in="BackgroundImageFix" stdDeviation="14.6646"/>
<feComposite in2="SourceAlpha" operator="in" result="effect1_backgroundBlur_80_1408"/>
<feBlend mode="normal" in="SourceGraphic" in2="effect1_backgroundBlur_80_1408" result="shape"/>
</filter>
<linearGradient id="paint0_linear_80_1408" x1="24.0872" y1="24.5627" x2="24.0872" y2="40.3224" gradientUnits="userSpaceOnUse">
<stop stop-color="#BC94FF"/>
<stop offset="1" stop-color="#9F66FF"/>
</linearGradient>
<linearGradient id="paint1_linear_80_1408" x1="25.2928" y1="21.7066" x2="40.0185" y2="40.4246" gradientUnits="userSpaceOnUse">
<stop stop-color="white" stop-opacity="0.25"/>
<stop offset="1" stop-color="white" stop-opacity="0"/>
</linearGradient>
</defs>
</svg>
