<svg width="63" height="62" viewBox="0 0 63 62" fill="none" xmlns="http://www.w3.org/2000/svg">
<circle opacity="0.2" cx="31.5512" cy="30.5512" r="30.5512" fill="#F27A36"/>
<path fill-rule="evenodd" clip-rule="evenodd" d="M30.6423 21.4524H30.8431C33.4817 21.4524 35.6232 23.6934 35.6232 26.4424V31.9405C35.6232 34.6895 33.4817 36.9206 30.8431 36.9206H21.7801C19.1415 36.9206 17 34.6895 17 31.9405V26.4424C17 23.6934 19.1415 21.4524 21.7801 21.4524H21.9808C22 20.2572 22.4493 19.1416 23.2619 18.305C24.0841 17.4584 25.1357 17.0301 26.3212 17.0002C28.6921 17.0002 30.6137 18.9922 30.6423 21.4524ZM24.2661 19.3715C23.7308 19.9292 23.4344 20.6663 23.4153 21.4532H29.2087C29.1801 19.8197 27.899 18.495 26.3216 18.495C25.5854 18.495 24.8206 18.8037 24.2661 19.3715Z" fill="url(#paint0_linear_80_1338)"/>
<g opacity="0.5" filter="url(#filter0_f_80_1338)">
<path d="M23.8441 34.1027L28.7424 34.1027C30.5192 34.1027 31.5537 33.2378 31.5537 31.7557L31.5537 26.736C31.5537 25.2297 30.5192 24.3841 28.7424 24.3841L23.8441 24.3841C22.0387 24.3841 21.0334 25.2297 21.0334 26.736L21.0334 31.7557C21.0334 33.2378 22.0387 34.1027 23.8441 34.1027Z" fill="#FA452D"/>
</g>
<g filter="url(#filter1_bd_80_1338)">
<path d="M40.0727 24.5531C40.0762 24.641 40.0304 26.433 39.9949 26.5133H38.3914C38.3603 26.4316 38.3439 24.3656 38.3428 24.278C38.3428 22.1039 36.6023 20.3413 34.4554 20.3413C32.3084 20.3413 30.568 22.1039 30.568 24.278C30.5827 24.3627 30.5827 26.4287 30.568 26.5133H28.9256C28.9109 26.4287 28.9109 24.3627 28.9256 24.278C29.0504 21.2524 31.5088 18.8646 34.4991 18.8646C37.4894 18.8646 39.9479 21.2524 40.0727 24.278V24.5531Z" fill="url(#paint1_linear_80_1338)"/>
<path d="M39.9504 24.5531H39.9504V24.2805C39.8271 21.3203 37.4217 18.9868 34.4991 18.9868C31.5757 18.9868 29.1698 21.3216 29.0477 24.2831L29.0473 24.2911L29.0461 24.2983C29.0462 24.2977 29.0463 24.2973 29.0463 24.2973C29.0464 24.2974 29.0458 24.3037 29.0451 24.3211C29.0443 24.3398 29.0436 24.3654 29.0429 24.3975C29.0416 24.4615 29.0404 24.5489 29.0395 24.6522C29.0377 24.8586 29.0367 25.1271 29.0367 25.3957C29.0368 25.6643 29.0377 25.9327 29.0395 26.1392C29.0404 26.241 29.0415 26.3273 29.0429 26.3911H30.4507C30.452 26.3273 30.4532 26.241 30.4541 26.1392C30.4559 25.9327 30.4568 25.6643 30.4568 25.3957C30.4568 25.1271 30.4559 24.8586 30.4541 24.6522C30.4531 24.5489 30.452 24.4615 30.4506 24.3975C30.45 24.3654 30.4492 24.3398 30.4485 24.3211C30.4478 24.3037 30.4472 24.2974 30.4473 24.2973C30.4473 24.2973 30.4474 24.2977 30.4475 24.2983L30.4458 24.2886V24.278C30.4458 22.0378 32.2395 20.2191 34.4554 20.2191C36.671 20.2191 38.4646 22.0374 38.465 24.2773M39.9504 24.5531L38.3428 24.278M39.9504 24.5531L39.9505 24.5579C39.9505 24.5578 39.9506 24.5585 39.9506 24.5602L39.9506 24.5665L39.9505 24.5877L39.9496 24.6572C39.9486 24.7144 39.947 24.7916 39.9448 24.8822C39.9405 25.0635 39.934 25.2979 39.9263 25.532C39.9185 25.7663 39.9096 25.9997 39.9005 26.1793C39.8961 26.2646 39.8917 26.3369 39.8875 26.3911M39.9504 24.5531L39.8875 26.3911M38.465 24.2773C38.465 24.2775 38.465 24.2778 38.465 24.278H38.3428M38.465 24.2773C38.465 24.277 38.465 24.2768 38.465 24.2765L38.3428 24.278M38.465 24.2773C38.4651 24.2857 38.4653 24.3079 38.4656 24.3415C38.4671 24.5074 38.4713 24.9515 38.478 25.396C38.4821 25.6647 38.4871 25.9327 38.493 26.1384C38.4959 26.2414 38.4991 26.3279 38.5024 26.3909C38.5024 26.391 38.5024 26.391 38.5024 26.3911M38.3428 24.278C38.3429 24.2855 38.3431 24.3076 38.3434 24.3417C38.3468 24.7055 38.363 26.4386 38.3914 26.5133M38.5024 26.3911H38.3914V26.5133M38.5024 26.3911H39.8875M38.5024 26.3911C38.5041 26.4226 38.5058 26.4471 38.5074 26.4644C38.5082 26.4731 38.5089 26.4787 38.5094 26.4819C38.5097 26.484 38.5098 26.4846 38.5097 26.4841C38.5096 26.483 38.5084 26.4773 38.5056 26.4699L38.3914 26.5133M38.3914 26.5133L39.8875 26.3911" stroke="url(#paint2_linear_80_1338)" stroke-opacity="0.5" stroke-width="0.24441"/>
</g>
<g filter="url(#filter2_b_80_1338)">
<path d="M22.8662 30.6827C22.8662 27.2193 25.5642 24.3959 28.8885 24.3959H40.3068C43.6311 24.3959 46.3291 27.2193 46.3291 30.6827V37.6095C46.3291 41.073 43.6311 43.8838 40.3068 43.8838H28.8885C25.5642 43.8838 22.8662 41.073 22.8662 37.6095V30.6827Z" fill="#FFAC95" fill-opacity="0.4"/>
<path d="M28.8885 23.7848C25.2018 23.7848 22.2552 26.9073 22.2552 30.6827V37.6095C22.2552 41.3866 25.2034 44.4949 28.8885 44.4949H40.3068C43.9919 44.4949 46.9401 41.3866 46.9401 37.6095V30.6827C46.9401 26.9073 43.9935 23.7848 40.3068 23.7848H28.8885Z" stroke="url(#paint3_linear_80_1338)" stroke-width="1.22205" stroke-linecap="round" stroke-linejoin="round"/>
</g>
<g filter="url(#filter3_bd_80_1338)">
<mask id="path-8-inside-1_80_1338" fill="white">
<path fill-rule="evenodd" clip-rule="evenodd" d="M29.5757 29.9546C30.0816 29.9546 30.4791 29.528 30.4791 29.0135V27.5578C30.4791 27.0434 30.0816 26.6167 29.5757 26.6167C29.0819 26.6167 28.6724 27.0434 28.6724 27.5578V29.0135C28.6724 29.528 29.0819 29.9546 29.5757 29.9546ZM38.8381 29.9546C39.344 29.9546 39.7414 29.528 39.7414 29.0135V27.5579C39.7414 27.0434 39.344 26.6167 38.8381 26.6167C38.3443 26.6167 37.9347 27.0434 37.9347 27.5579V29.0135C37.9347 29.528 38.3443 29.9546 38.8381 29.9546Z"/>
</mask>
<path fill-rule="evenodd" clip-rule="evenodd" d="M29.5757 29.9546C30.0816 29.9546 30.4791 29.528 30.4791 29.0135V27.5578C30.4791 27.0434 30.0816 26.6167 29.5757 26.6167C29.0819 26.6167 28.6724 27.0434 28.6724 27.5578V29.0135C28.6724 29.528 29.0819 29.9546 29.5757 29.9546ZM38.8381 29.9546C39.344 29.9546 39.7414 29.528 39.7414 29.0135V27.5579C39.7414 27.0434 39.344 26.6167 38.8381 26.6167C38.3443 26.6167 37.9347 27.0434 37.9347 27.5579V29.0135C37.9347 29.528 38.3443 29.9546 38.8381 29.9546Z" fill="url(#paint4_linear_80_1338)"/>
<path d="M30.2346 29.0135C30.2346 29.4047 29.9352 29.7102 29.5757 29.7102V30.199C30.228 30.199 30.7235 29.6512 30.7235 29.0135H30.2346ZM30.2346 27.5578V29.0135H30.7235V27.5578H30.2346ZM29.5757 26.8611C29.9352 26.8611 30.2346 27.1666 30.2346 27.5578H30.7235C30.7235 26.9201 30.228 26.3723 29.5757 26.3723V26.8611ZM28.9168 27.5578C28.9168 27.1688 29.2262 26.8611 29.5757 26.8611V26.3723C28.9376 26.3723 28.428 26.9179 28.428 27.5578H28.9168ZM28.9168 29.0135V27.5578H28.428V29.0135H28.9168ZM29.5757 29.7102C29.2262 29.7102 28.9168 29.4025 28.9168 29.0135H28.428C28.428 29.6534 28.9376 30.199 29.5757 30.199V29.7102ZM39.497 29.0135C39.497 29.4047 39.1976 29.7102 38.8381 29.7102V30.199C39.4904 30.199 39.9858 29.6513 39.9858 29.0135H39.497ZM39.497 27.5579V29.0135H39.9858V27.5579H39.497ZM38.8381 26.8611C39.1976 26.8611 39.497 27.1666 39.497 27.5579H39.9858C39.9858 26.9201 39.4904 26.3723 38.8381 26.3723V26.8611ZM38.1792 27.5579C38.1792 27.1688 38.4886 26.8611 38.8381 26.8611V26.3723C38.1999 26.3723 37.6903 26.9179 37.6903 27.5579H38.1792ZM38.1792 29.0135V27.5579H37.6903V29.0135H38.1792ZM38.8381 29.7102C38.4886 29.7102 38.1792 29.4025 38.1792 29.0135H37.6903C37.6903 29.6534 38.1999 30.199 38.8381 30.199V29.7102Z" fill="url(#paint5_linear_80_1338)" fill-opacity="0.5" mask="url(#path-8-inside-1_80_1338)"/>
</g>
<defs>
<filter id="filter0_f_80_1338" x="0.25836" y="3.60931" width="52.0702" height="51.2683" filterUnits="userSpaceOnUse" color-interpolation-filters="sRGB">
<feFlood flood-opacity="0" result="BackgroundImageFix"/>
<feBlend mode="normal" in="SourceGraphic" in2="BackgroundImageFix" result="shape"/>
<feGaussianBlur stdDeviation="10.3874" result="effect1_foregroundBlur_80_1338"/>
</filter>
<filter id="filter1_bd_80_1338" x="10.5838" y="0.53388" width="47.8197" height="44.3102" filterUnits="userSpaceOnUse" color-interpolation-filters="sRGB">
<feFlood flood-opacity="0" result="BackgroundImageFix"/>
<feGaussianBlur in="BackgroundImageFix" stdDeviation="9.16537"/>
<feComposite in2="SourceAlpha" operator="in" result="effect1_backgroundBlur_80_1338"/>
<feColorMatrix in="SourceAlpha" type="matrix" values="0 0 0 0 0 0 0 0 0 0 0 0 0 0 0 0 0 0 127 0" result="hardAlpha"/>
<feOffset dx="6.11025" dy="6.11025"/>
<feGaussianBlur stdDeviation="6.11025"/>
<feColorMatrix type="matrix" values="0 0 0 0 1 0 0 0 0 0.447059 0 0 0 0 0.368627 0 0 0 0.5 0"/>
<feBlend mode="normal" in2="effect1_backgroundBlur_80_1338" result="effect2_dropShadow_80_1338"/>
<feBlend mode="normal" in="SourceGraphic" in2="effect2_dropShadow_80_1338" result="shape"/>
</filter>
<filter id="filter2_b_80_1338" x="3.3133" y="4.84308" width="62.5687" height="58.5936" filterUnits="userSpaceOnUse" color-interpolation-filters="sRGB">
<feFlood flood-opacity="0" result="BackgroundImageFix"/>
<feGaussianBlur in="BackgroundImageFix" stdDeviation="9.16537"/>
<feComposite in2="SourceAlpha" operator="in" result="effect1_backgroundBlur_80_1338"/>
<feBlend mode="normal" in="SourceGraphic" in2="effect1_backgroundBlur_80_1338" result="shape"/>
</filter>
<filter id="filter3_bd_80_1338" x="10.3416" y="8.28596" width="47.7303" height="39.9994" filterUnits="userSpaceOnUse" color-interpolation-filters="sRGB">
<feFlood flood-opacity="0" result="BackgroundImageFix"/>
<feGaussianBlur in="BackgroundImageFix" stdDeviation="9.16537"/>
<feComposite in2="SourceAlpha" operator="in" result="effect1_backgroundBlur_80_1338"/>
<feColorMatrix in="SourceAlpha" type="matrix" values="0 0 0 0 0 0 0 0 0 0 0 0 0 0 0 0 0 0 127 0" result="hardAlpha"/>
<feOffset dx="6.11025" dy="6.11025"/>
<feGaussianBlur stdDeviation="6.11025"/>
<feColorMatrix type="matrix" values="0 0 0 0 1 0 0 0 0 0.447059 0 0 0 0 0.368627 0 0 0 0.5 0"/>
<feBlend mode="normal" in2="effect1_backgroundBlur_80_1338" result="effect2_dropShadow_80_1338"/>
<feBlend mode="normal" in="SourceGraphic" in2="effect2_dropShadow_80_1338" result="shape"/>
</filter>
<linearGradient id="paint0_linear_80_1338" x1="27.6826" y1="28.2943" x2="10.9147" y2="35.9164" gradientUnits="userSpaceOnUse">
<stop stop-color="#FFA78F"/>
<stop offset="1" stop-color="#F23E2C"/>
</linearGradient>
<linearGradient id="paint1_linear_80_1338" x1="39.2817" y1="20.2458" x2="26.8673" y2="20.8363" gradientUnits="userSpaceOnUse">
<stop stop-color="white"/>
<stop offset="1" stop-color="white" stop-opacity="0.2"/>
</linearGradient>
<linearGradient id="paint2_linear_80_1338" x1="39.5947" y1="22.8508" x2="28.7676" y2="23.5088" gradientUnits="userSpaceOnUse">
<stop stop-color="white"/>
<stop offset="1" stop-color="white" stop-opacity="0"/>
</linearGradient>
<linearGradient id="paint3_linear_80_1338" x1="26.6011" y1="26.6662" x2="38.3663" y2="44.2098" gradientUnits="userSpaceOnUse">
<stop stop-color="white" stop-opacity="0.25"/>
<stop offset="1" stop-color="white" stop-opacity="0"/>
</linearGradient>
<linearGradient id="paint4_linear_80_1338" x1="38.9566" y1="27.2195" x2="26.7563" y2="28.5386" gradientUnits="userSpaceOnUse">
<stop stop-color="white"/>
<stop offset="1" stop-color="white" stop-opacity="0.2"/>
</linearGradient>
<linearGradient id="paint5_linear_80_1338" x1="39.2672" y1="28.3563" x2="28.6888" y2="29.8177" gradientUnits="userSpaceOnUse">
<stop stop-color="white"/>
<stop offset="1" stop-color="white" stop-opacity="0"/>
</linearGradient>
</defs>
</svg>
