<svg width="62" height="62" viewBox="0 0 62 62" fill="none" xmlns="http://www.w3.org/2000/svg">
<circle opacity="0.2" cx="30.5512" cy="30.5512" r="30.5512" fill="#F23936"/>
<path d="M40.6864 20.4831L32.594 18.2701C29.6587 17.4674 27.4892 18.7541 26.7001 21.7597L24.0275 31.9394C23.2255 34.9943 24.4843 37.1764 27.4196 37.9791L35.512 40.1921C38.4946 41.0077 40.6055 39.7472 41.4075 36.6923L44.0801 26.5126C44.8692 23.507 43.669 21.2987 40.6864 20.4831Z" fill="url(#paint0_linear_79_1297)"/>
<g opacity="0.5" filter="url(#filter0_f_79_1297)">
<path d="M38.5883 23.2492L33.0547 21.7359C31.0475 21.187 29.564 22.0669 29.0244 24.1221L27.1969 31.083C26.6485 33.172 27.5093 34.6641 29.5164 35.213L35.05 36.7262C37.0895 37.284 38.533 36.422 39.0814 34.3331L40.9089 27.3722C41.4485 25.3169 40.6278 23.8069 38.5883 23.2492Z" fill="#F86652"/>
</g>
<g filter="url(#filter1_b_79_1297)">
<mask id="path-4-outside-1_79_1297" maskUnits="userSpaceOnUse" x="14" y="18.4092" width="27" height="27" fill="black">
<rect fill="white" x="14" y="18.4092" width="27" height="27"/>
<path fill-rule="evenodd" clip-rule="evenodd" d="M38.9989 32.0856L38.9989 30.7101C39.0339 29.5295 38.8643 28.3519 38.4979 27.2313C38.3116 26.686 38.0273 26.1809 37.6593 25.7418C37.5436 25.6031 37.4171 25.4743 37.2809 25.3564C36.0988 24.4075 34.6093 23.9464 33.1086 24.0649H29.6568C28.842 24.0475 28.0738 23.668 27.5557 23.0239L26.4411 21.4511C25.9156 20.7808 25.1151 20.3962 24.2731 20.4095H21.8801C17.5851 20.4095 16 22.9822 16 27.3568V30.6989C16 30.7027 16 30.7064 16 30.7101V32.0856C16 32.0857 16 32.0858 16 32.0859V36.8763C15.9998 37.3961 16.0408 37.9151 16.1227 38.4282C16.2515 39.335 16.5575 40.2063 17.0226 40.9905C17.2345 41.369 17.4922 41.7189 17.7896 42.0321C19.1566 43.3081 20.9691 43.9722 22.8209 43.8757H32.1678C34.0167 43.9729 35.8262 43.3085 37.1889 42.0321C37.4899 41.7195 37.751 41.3696 37.9661 40.9905C38.434 40.2057 38.7466 39.3353 38.8865 38.4282C38.9599 37.9143 38.9975 37.3956 38.9989 36.8763L38.9989 32.0856Z"/>
</mask>
<path fill-rule="evenodd" clip-rule="evenodd" d="M38.9989 32.0856L38.9989 30.7101C39.0339 29.5295 38.8643 28.3519 38.4979 27.2313C38.3116 26.686 38.0273 26.1809 37.6593 25.7418C37.5436 25.6031 37.4171 25.4743 37.2809 25.3564C36.0988 24.4075 34.6093 23.9464 33.1086 24.0649H29.6568C28.842 24.0475 28.0738 23.668 27.5557 23.0239L26.4411 21.4511C25.9156 20.7808 25.1151 20.3962 24.2731 20.4095H21.8801C17.5851 20.4095 16 22.9822 16 27.3568V30.6989C16 30.7027 16 30.7064 16 30.7101V32.0856C16 32.0857 16 32.0858 16 32.0859V36.8763C15.9998 37.3961 16.0408 37.9151 16.1227 38.4282C16.2515 39.335 16.5575 40.2063 17.0226 40.9905C17.2345 41.369 17.4922 41.7189 17.7896 42.0321C19.1566 43.3081 20.9691 43.9722 22.8209 43.8757H32.1678C34.0167 43.9729 35.8262 43.3085 37.1889 42.0321C37.4899 41.7195 37.751 41.3696 37.9661 40.9905C38.434 40.2057 38.7466 39.3353 38.8865 38.4282C38.9599 37.9143 38.9975 37.3956 38.9989 36.8763L38.9989 32.0856Z" fill="#FFAC95" fill-opacity="0.4"/>
<path d="M38.9989 32.0856L37.7769 32.0856L37.7769 32.0856L38.9989 32.0856ZM38.9989 30.7101L37.7774 30.674C37.7771 30.686 37.7769 30.6981 37.7769 30.7101L38.9989 30.7101ZM38.4979 27.2313L39.6594 26.8515C39.6577 26.8464 39.656 26.8413 39.6543 26.8363L38.4979 27.2313ZM37.6593 25.7418L36.7209 26.5246L36.7226 26.5267L37.6593 25.7418ZM37.2809 25.3564L38.0806 24.4324C38.0692 24.4225 38.0577 24.4129 38.0459 24.4034L37.2809 25.3564ZM33.1086 24.0649V25.2869C33.1407 25.2869 33.1728 25.2857 33.2048 25.2831L33.1086 24.0649ZM29.6568 24.0649L29.6307 25.2867C29.6394 25.2868 29.6481 25.2869 29.6568 25.2869L29.6568 24.0649ZM27.5557 23.0239L26.5587 23.7305C26.573 23.7507 26.5879 23.7704 26.6034 23.7897L27.5557 23.0239ZM26.4411 21.4511L27.4381 20.7445C27.4267 20.7284 27.415 20.7126 27.4028 20.6972L26.4411 21.4511ZM24.2731 20.4095V21.6316C24.2795 21.6316 24.286 21.6315 24.2924 21.6314L24.2731 20.4095ZM16 30.6989L17.2221 30.6994V30.6989H16ZM16 30.7101L17.2221 30.7101L17.2221 30.7097L16 30.7101ZM16 32.0856L17.2221 32.0981V32.0856H16ZM16 32.0859L17.2221 32.0859L17.222 32.0734L16 32.0859ZM16 36.8763L17.2221 36.8768V36.8763H16ZM16.1227 38.4282L17.3326 38.2564C17.3316 38.2494 17.3306 38.2425 17.3295 38.2356L16.1227 38.4282ZM17.0226 40.9905L18.089 40.3936C18.084 40.3847 18.0789 40.3759 18.0737 40.3671L17.0226 40.9905ZM17.7896 42.0321L16.9035 42.8737C16.9204 42.8914 16.9378 42.9087 16.9557 42.9254L17.7896 42.0321ZM22.8209 43.8757V42.6536C22.7997 42.6536 22.7785 42.6542 22.7573 42.6553L22.8209 43.8757ZM32.1678 43.8757L32.232 42.6553C32.2106 42.6542 32.1892 42.6536 32.1678 42.6536V43.8757ZM37.1889 42.0321L38.0243 42.924C38.0396 42.9096 38.0545 42.8949 38.0691 42.8798L37.1889 42.0321ZM37.9661 40.9905L36.9164 40.3647C36.9119 40.3723 36.9075 40.3799 36.9032 40.3875L37.9661 40.9905ZM38.8865 38.4282L40.0943 38.6144L40.0962 38.601L38.8865 38.4282ZM38.9989 36.8763L40.221 36.8797L40.221 36.8763L38.9989 36.8763ZM40.221 32.0856L40.221 30.7101L37.7769 30.7101L37.7769 32.0856L40.221 32.0856ZM40.2205 30.7463C40.2596 29.4249 40.0698 28.1065 39.6594 26.8515L37.3363 27.6111C37.6588 28.5973 37.8082 29.6342 37.7774 30.674L40.2205 30.7463ZM39.6543 26.8363C39.4197 26.1495 39.0611 25.512 38.596 24.9569L36.7226 26.5267C36.9934 26.8498 37.2035 27.2226 37.3414 27.6263L39.6543 26.8363ZM38.5977 24.959C38.4398 24.7697 38.2669 24.5936 38.0806 24.4324L36.4812 26.2805C36.5673 26.355 36.6474 26.4366 36.7209 26.5246L38.5977 24.959ZM38.0459 24.4034C36.6229 23.2611 34.8259 22.7035 33.0124 22.8466L33.2048 25.2831C34.3927 25.1894 35.5747 25.5539 36.516 26.3094L38.0459 24.4034ZM33.1086 22.8428H29.6568V25.2869H33.1086V22.8428ZM29.6829 22.8431C29.2331 22.8335 28.8024 22.624 28.508 22.258L26.6034 23.7897C27.3451 24.712 28.4509 25.2615 29.6307 25.2867L29.6829 22.8431ZM28.5528 22.3172L27.4381 20.7445L25.444 22.1577L26.5587 23.7305L28.5528 22.3172ZM27.4028 20.6972C26.6447 19.7301 25.4831 19.1682 24.2538 19.1876L24.2924 21.6314C24.7471 21.6242 25.1866 21.8316 25.4793 22.205L27.4028 20.6972ZM24.2731 19.1875H21.8801V21.6316H24.2731V19.1875ZM21.8801 19.1875C19.478 19.1875 17.5981 19.9196 16.3678 21.4886C15.1861 22.9955 14.778 25.0621 14.778 27.3568H17.2221C17.2221 25.277 17.6064 23.8699 18.2911 22.9968C18.927 22.1858 19.9872 21.6316 21.8801 21.6316V19.1875ZM14.778 27.3568V30.6989H17.2221V27.3568H14.778ZM14.778 30.6985C14.778 30.7025 14.778 30.7066 14.778 30.7106L17.2221 30.7097C17.222 30.7063 17.222 30.7028 17.2221 30.6994L14.778 30.6985ZM14.778 30.7101V32.0856H17.2221V30.7101H14.778ZM14.778 32.0731C14.7779 32.0815 14.7779 32.09 14.778 32.0985L17.222 32.0734C17.2221 32.0817 17.2221 32.0899 17.222 32.0981L14.778 32.0731ZM14.778 32.0859V36.8763H17.2221V32.0859H14.778ZM14.778 36.8758C14.7777 37.4602 14.8238 38.0438 14.9159 38.6208L17.3295 38.2356C17.2578 37.7864 17.2219 37.332 17.2221 36.8768L14.778 36.8758ZM14.9128 38.6001C15.0642 39.6656 15.4239 40.6904 15.9715 41.6139L18.0737 40.3671C17.6912 39.7221 17.4389 39.0044 17.3326 38.2564L14.9128 38.6001ZM15.9563 41.5874C16.2176 42.0543 16.5358 42.4865 16.9035 42.8737L18.6757 41.1905C18.4486 40.9514 18.2514 40.6837 18.089 40.3936L15.9563 41.5874ZM16.9557 42.9254C18.5629 44.4255 20.6984 45.21 22.8846 45.0961L22.7573 42.6553C21.2398 42.7344 19.7504 42.1906 18.6235 41.1387L16.9557 42.9254ZM22.8209 45.0977H32.1678V42.6536H22.8209V45.0977ZM32.1036 45.096C34.2877 45.2109 36.4213 44.4255 38.0243 42.924L36.3535 41.1402C35.2311 42.1915 33.7456 42.7349 32.232 42.6553L32.1036 45.096ZM38.0691 42.8798C38.4413 42.4933 38.7638 42.0611 39.029 41.5935L36.9032 40.3875C36.7383 40.6781 36.5385 40.9457 36.3087 41.1843L38.0691 42.8798ZM39.0158 41.6163C39.5645 40.6959 39.9306 39.6761 40.0942 38.6144L37.6787 38.242C37.5627 38.9944 37.3035 39.7155 36.9164 40.3647L39.0158 41.6163ZM40.0962 38.601C40.1777 38.031 40.2194 37.4558 40.221 36.8797L37.7769 36.8728C37.7756 37.3355 37.7421 37.7976 37.6767 38.2554L40.0962 38.601ZM40.221 36.8763L40.221 32.0856L37.7769 32.0856L37.7769 36.8763L40.221 36.8763Z" fill="url(#paint1_linear_79_1297)" mask="url(#path-4-outside-1_79_1297)"/>
</g>
<g filter="url(#filter2_bd_79_1297)">
<path d="M33.3158 38.7163H21.7396C21.2144 38.7163 20.7886 38.2826 20.7886 37.7476C20.7886 37.2126 21.2144 36.7789 21.7396 36.7789H33.4078C33.6911 36.7822 33.9563 36.9211 34.1237 37.1539C34.2692 37.3271 34.3426 37.5513 34.3282 37.7788C34.3202 38.0377 34.2109 38.2825 34.0245 38.4586C33.8381 38.6347 33.5902 38.7275 33.3362 38.7163H33.3158Z" fill="url(#paint2_linear_79_1297)"/>
<path d="M33.9252 37.2966L33.9306 37.3041L33.9365 37.3111C34.0413 37.4358 34.0947 37.5981 34.0843 37.7634L34.0841 37.7634L34.0839 37.7713C34.0779 37.9663 33.9955 38.1497 33.8566 38.281C33.7179 38.4121 33.5343 38.4804 33.3471 38.4721L33.3471 38.4719H33.3362H33.3158H21.7396C21.3536 38.4719 21.033 38.1518 21.033 37.7476C21.033 37.3434 21.3536 37.0233 21.7396 37.0233H33.4063C33.6103 37.0261 33.8028 37.1263 33.9252 37.2966Z" stroke="url(#paint3_linear_79_1297)" stroke-width="0.48882"/>
</g>
<defs>
<filter id="filter0_f_79_1297" x="8.70392" y="3.24518" width="50.6976" height="51.9776" filterUnits="userSpaceOnUse" color-interpolation-filters="sRGB">
<feFlood flood-opacity="0" result="BackgroundImageFix"/>
<feBlend mode="normal" in="SourceGraphic" in2="BackgroundImageFix" result="shape"/>
<feGaussianBlur stdDeviation="9.16537" result="effect1_foregroundBlur_79_1297"/>
</filter>
<filter id="filter1_b_79_1297" x="-3.55291" y="0.85639" width="62.1092" height="62.5814" filterUnits="userSpaceOnUse" color-interpolation-filters="sRGB">
<feFlood flood-opacity="0" result="BackgroundImageFix"/>
<feGaussianBlur in="BackgroundImageFix" stdDeviation="9.16537"/>
<feComposite in2="SourceAlpha" operator="in" result="effect1_backgroundBlur_79_1297"/>
<feBlend mode="normal" in="SourceGraphic" in2="effect1_backgroundBlur_79_1297" result="shape"/>
</filter>
<filter id="filter2_bd_79_1297" x="2.45783" y="18.4482" width="50.203" height="38.5997" filterUnits="userSpaceOnUse" color-interpolation-filters="sRGB">
<feFlood flood-opacity="0" result="BackgroundImageFix"/>
<feGaussianBlur in="BackgroundImageFix" stdDeviation="9.16537"/>
<feComposite in2="SourceAlpha" operator="in" result="effect1_backgroundBlur_79_1297"/>
<feColorMatrix in="SourceAlpha" type="matrix" values="0 0 0 0 0 0 0 0 0 0 0 0 0 0 0 0 0 0 127 0" result="hardAlpha"/>
<feOffset dx="6.11025" dy="6.11025"/>
<feGaussianBlur stdDeviation="6.11025"/>
<feColorMatrix type="matrix" values="0 0 0 0 0.976471 0 0 0 0 0.435294 0 0 0 0 0.352941 0 0 0 0.5 0"/>
<feBlend mode="normal" in2="effect1_backgroundBlur_79_1297" result="effect2_dropShadow_79_1297"/>
<feBlend mode="normal" in="SourceGraphic" in2="effect2_dropShadow_79_1297" result="shape"/>
</filter>
<linearGradient id="paint0_linear_79_1297" x1="28.4045" y1="22.8962" x2="36.4274" y2="51.0161" gradientUnits="userSpaceOnUse">
<stop stop-color="#FFA78F"/>
<stop offset="1" stop-color="#F23E2C"/>
</linearGradient>
<linearGradient id="paint1_linear_79_1297" x1="19.6618" y1="23.1442" x2="34.6982" y2="41.3924" gradientUnits="userSpaceOnUse">
<stop stop-color="white" stop-opacity="0.25"/>
<stop offset="1" stop-color="white" stop-opacity="0"/>
</linearGradient>
<linearGradient id="paint2_linear_79_1297" x1="33.3699" y1="37.1289" x2="19.0149" y2="40.3988" gradientUnits="userSpaceOnUse">
<stop stop-color="white"/>
<stop offset="1" stop-color="white" stop-opacity="0.2"/>
</linearGradient>
<linearGradient id="paint3_linear_79_1297" x1="22.9441" y1="37.0047" x2="23.2326" y2="39.501" gradientUnits="userSpaceOnUse">
<stop stop-color="white" stop-opacity="0.25"/>
<stop offset="1" stop-color="white" stop-opacity="0"/>
</linearGradient>
</defs>
</svg>
