<svg width="62" height="62" viewBox="0 0 62 62" fill="none" xmlns="http://www.w3.org/2000/svg">
<circle opacity="0.2" cx="30.5512" cy="30.5512" r="30.5512" fill="#3698F2"/>
<path d="M31.1424 33.5265C30.7457 32.7009 30.6408 32.0485 30.9103 31.0582L31.0019 30.7215C31.3531 29.4311 31.2804 28.5208 30.8567 27.5179C30.2063 25.9624 28.7317 24.7392 27.0808 24.3036L27.0106 24.2851C25.3944 23.8586 23.5589 24.1701 22.2027 25.14C21.2865 25.8073 20.7169 26.5864 20.356 27.9126L20.2644 28.2493C19.9949 29.2395 19.5902 29.7575 18.8101 30.2726C18.2359 30.6522 17.9222 31.252 17.7347 31.9413C17.5469 32.6314 17.597 33.3451 17.9099 33.997C18.3337 34.7914 19.0663 35.4205 19.9084 35.7184C21.1169 36.1888 22.3495 36.5711 23.6147 36.9049C24.879 37.2385 26.1503 37.4786 27.4268 37.7022C28.3066 37.8586 29.2604 37.6745 30.0308 37.1952C30.6321 36.7844 31.0387 36.1912 31.2264 35.5011C31.414 34.8118 31.4469 34.1379 31.1424 33.5265" fill="url(#paint0_linear_80_1385)"/>
<path d="M24.9462 38.3366C24.5721 38.1475 22.1527 37.5089 21.7327 37.4883C21.3721 37.4767 20.9558 37.561 20.8476 37.9586C20.7642 38.343 20.8966 38.7367 21.1483 39.0306L21.1473 39.0312C21.4631 39.4469 21.8792 39.7681 22.3517 39.9686C22.604 40.0736 22.8713 40.1424 23.1521 40.1799C23.6623 40.2388 24.1856 40.1656 24.6702 39.9611L24.6696 39.9601C25.0368 39.8295 25.3512 39.5538 25.4741 39.1798C25.5822 38.7822 25.2645 38.5041 24.9462 38.3366" fill="url(#paint1_linear_80_1385)"/>
<g opacity="0.5" filter="url(#filter0_f_80_1385)">
<path d="M28.3836 32.2695C28.2353 31.7536 28.2178 31.3359 28.396 30.6811L28.4566 30.4584C28.6887 29.6051 28.6995 29.0187 28.5472 28.3892C28.3142 27.4126 27.6709 26.6912 26.9041 26.4889L26.8715 26.4803C26.1208 26.2822 25.2284 26.573 24.5322 27.2673C24.0612 27.7441 23.7502 28.2766 23.5116 29.1536L23.451 29.3763C23.2729 30.0311 23.0537 30.3864 22.6553 30.758C22.3621 31.0318 22.1823 31.4357 22.0582 31.8915C21.9341 32.3479 21.9224 32.808 22.0393 33.2154C22.202 33.7097 22.5205 34.0819 22.9079 34.2342C23.4617 34.4805 24.0314 34.6686 24.619 34.8236C25.2063 34.9786 25.8016 35.0726 26.4002 35.1557C26.8126 35.2145 27.2774 35.049 27.6693 34.701C27.9771 34.4057 28.2009 34.0015 28.3251 33.5452C28.4491 33.0894 28.4985 32.651 28.3836 32.2695Z" fill="#0062FF"/>
</g>
<g filter="url(#filter1_b_80_1385)">
<mask id="path-5-outside-1_80_1385" maskUnits="userSpaceOnUse" x="19.4566" y="15.642" width="28.0767" height="26.4192" fill="black">
<rect fill="white" x="19.4566" y="15.642" width="28.0767" height="26.4192"/>
<path d="M42.9429 29.188C41.8929 28.3899 41.3303 27.6258 41.0249 26.192L40.9211 25.7044C40.5231 23.8359 39.8323 22.7227 38.6312 21.7159C36.7771 20.15 34.0861 19.5346 31.6867 20.0352L31.5847 20.0565C29.2357 20.5465 27.0904 22.117 25.9913 24.2198C25.2566 25.6557 25.0391 27.0125 25.448 28.9327L25.5519 29.4202C25.8572 30.8541 25.6793 31.7727 25.0189 32.9277C24.5331 33.7784 24.5255 34.7431 24.738 35.7412C24.9508 36.7404 25.4837 37.6176 26.3124 38.2481C27.3767 38.9892 28.7275 39.3223 30.0012 39.1634C31.8573 38.9899 33.6861 38.6888 35.525 38.3052C37.3627 37.9218 39.1477 37.4148 40.9287 36.8835C42.1577 36.5202 43.2578 35.6758 43.9292 34.5726C44.4292 33.6649 44.5601 32.6492 44.3473 31.65C44.1347 30.6519 43.7343 29.7723 42.9429 29.188"/>
</mask>
<path d="M42.9429 29.188C41.8929 28.3899 41.3303 27.6258 41.0249 26.192L40.9211 25.7044C40.5231 23.8359 39.8323 22.7227 38.6312 21.7159C36.7771 20.15 34.0861 19.5346 31.6867 20.0352L31.5847 20.0565C29.2357 20.5465 27.0904 22.117 25.9913 24.2198C25.2566 25.6557 25.0391 27.0125 25.448 28.9327L25.5519 29.4202C25.8572 30.8541 25.6793 31.7727 25.0189 32.9277C24.5331 33.7784 24.5255 34.7431 24.738 35.7412C24.9508 36.7404 25.4837 37.6176 26.3124 38.2481C27.3767 38.9892 28.7275 39.3223 30.0012 39.1634C31.8573 38.9899 33.6861 38.6888 35.525 38.3052C37.3627 37.9218 39.1477 37.4148 40.9287 36.8835C42.1577 36.5202 43.2578 35.6758 43.9292 34.5726C44.4292 33.6649 44.5601 32.6492 44.3473 31.65C44.1347 30.6519 43.7343 29.7723 42.9429 29.188" fill="#3EA0FE" fill-opacity="0.35"/>
<path d="M42.2044 30.1585C42.7428 30.5677 43.5099 30.465 43.9178 29.929C44.3257 29.3931 44.2199 28.6268 43.6815 28.2176L42.2044 30.1585ZM38.6312 21.7159L37.8434 22.6469L37.8468 22.6498L38.6312 21.7159ZM25.9913 24.2198L24.9065 23.6516L24.9017 23.6611L25.9913 24.2198ZM25.0189 32.9277L23.9561 32.3193L23.9558 32.32L25.0189 32.9277ZM26.3124 38.2481L25.5734 39.2183C25.5872 39.2287 25.6011 39.2389 25.6153 39.2487L26.3124 38.2481ZM30.0012 39.1634L29.8826 37.9477C29.8701 37.9489 29.8576 37.9502 29.8451 37.9518L30.0012 39.1634ZM40.9287 36.8835L40.5774 35.7126L40.5745 35.7135L40.9287 36.8835ZM43.9292 34.5726L44.9751 35.2095C44.9843 35.1945 44.993 35.1794 45.0015 35.164L43.9292 34.5726ZM43.6678 28.2073C43.1237 27.8056 42.3581 27.919 41.9578 28.4607C41.5575 29.0023 41.674 29.7671 42.2181 30.1688L43.6678 28.2073ZM43.6815 28.2176C43.2226 27.8688 42.9336 27.5751 42.7253 27.2595C42.5191 26.9469 42.3504 26.5491 42.2212 25.9424L39.8286 26.4415C40.0048 27.2686 40.2701 27.9699 40.684 28.5973C41.0959 29.2217 41.6132 29.7091 42.2044 30.1585L43.6815 28.2176ZM42.2212 25.9424L42.1174 25.4548L39.7248 25.954L39.8286 26.4415L42.2212 25.9424ZM42.1174 25.4548C41.6673 23.3415 40.8436 21.9791 39.4156 20.782L37.8468 22.6498C38.8209 23.4663 39.379 24.3304 39.7248 25.954L42.1174 25.4548ZM39.4191 20.7849C37.2566 18.9587 34.1747 18.2677 31.4321 18.8399L31.9412 21.2304C33.9975 20.8014 36.2976 21.3414 37.8434 22.6469L39.4191 20.7849ZM31.4321 18.8399L31.3301 18.8612L31.8392 21.2517L31.9412 21.2304L31.4321 18.8399ZM31.3301 18.8612C28.6405 19.4224 26.1819 21.2117 24.9065 23.6517L27.0761 24.7879C27.999 23.0223 29.8309 21.6707 31.8392 21.2517L31.3301 18.8612ZM24.9017 23.6611C24.0346 25.3557 23.7868 26.9991 24.2518 29.1823L26.6443 28.6831C26.2914 27.0258 26.4787 25.9556 27.0809 24.7785L24.9017 23.6611ZM24.2518 29.1823L24.3556 29.6698L26.7482 29.1706L26.6443 28.6831L24.2518 29.1823ZM24.3556 29.6698C24.4868 30.2857 24.4984 30.7163 24.4399 31.0807C24.3814 31.4451 24.24 31.8228 23.9561 32.3193L26.0816 33.536C26.4582 32.8775 26.736 32.2185 26.8552 31.4763C26.9744 30.7342 26.9224 29.9886 26.7482 29.1706L24.3556 29.6698ZM23.9558 32.32C23.2618 33.5354 23.2979 34.8458 23.5418 35.9908L25.9343 35.4916C25.7531 34.6405 25.8045 34.0214 26.082 33.5354L23.9558 32.32ZM23.5418 35.9908C23.8125 37.2621 24.499 38.4008 25.5734 39.2183L27.0514 37.278C26.4684 36.8344 26.0892 36.2188 25.9343 35.4916L23.5418 35.9908ZM25.6153 39.2487C26.9278 40.1628 28.5826 40.5714 30.1574 40.375L29.8451 37.9518C28.8724 38.0731 27.8255 37.8157 27.0096 37.2475L25.6153 39.2487ZM30.1198 40.3791C32.0322 40.2004 33.9076 39.891 35.7795 39.5004L35.2704 37.1099C33.4647 37.4867 31.6824 37.7795 29.8826 37.9477L30.1198 40.3791ZM35.7795 39.5004C37.6697 39.106 39.4952 38.5869 41.283 38.0535L40.5745 35.7135C38.8002 36.2428 37.0556 36.7375 35.2704 37.1099L35.7795 39.5004ZM41.2801 38.0544C42.7998 37.6051 44.1471 36.57 44.9751 35.2095L42.8833 33.9357C42.3685 34.7816 41.5155 35.4353 40.5774 35.7126L41.2801 38.0544ZM45.0015 35.164C45.649 33.9884 45.8145 32.6725 45.5436 31.4004L43.151 31.8996C43.3057 32.6258 43.2093 33.3414 42.857 33.9812L45.0015 35.164ZM45.5436 31.4004C45.2997 30.2553 44.7984 29.042 43.6678 28.2073L42.2181 30.1688C42.6702 30.5026 42.9697 31.0485 43.151 31.8996L45.5436 31.4004Z" fill="url(#paint2_linear_80_1385)" mask="url(#path-5-outside-1_80_1385)"/>
</g>
<g filter="url(#filter2_b_80_1385)">
<mask id="path-7-outside-2_80_1385" maskUnits="userSpaceOnUse" x="30.0714" y="36.6135" width="12.2262" height="9.0931" fill="black">
<rect fill="white" x="30.0714" y="36.6135" width="12.2262" height="9.0931"/>
<path d="M38.1583 39.3114C37.5557 39.3098 34.042 40.0429 33.4913 40.2851C33.0223 40.5007 32.5451 40.874 32.6675 41.449C32.813 41.9915 33.2405 42.4078 33.7553 42.6211L33.7544 42.6225C34.4311 42.9497 35.174 43.0925 35.91 43.0458C36.3016 43.0182 36.6886 42.935 37.0724 42.8033C37.7637 42.5522 38.3851 42.1247 38.8708 41.555L38.8694 41.5541C39.2534 41.1533 39.4748 40.6016 39.3866 40.0471C39.2642 39.4722 38.6753 39.3212 38.1583 39.3114"/>
</mask>
<path d="M38.1583 39.3114C37.5557 39.3098 34.042 40.0429 33.4913 40.2851C33.0223 40.5007 32.5451 40.874 32.6675 41.449C32.813 41.9915 33.2405 42.4078 33.7553 42.6211L33.7544 42.6225C34.4311 42.9497 35.174 43.0925 35.91 43.0458C36.3016 43.0182 36.6886 42.935 37.0724 42.8033C37.7637 42.5522 38.3851 42.1247 38.8708 41.555L38.8694 41.5541C39.2534 41.1533 39.4748 40.6016 39.3866 40.0471C39.2642 39.4722 38.6753 39.3212 38.1583 39.3114" fill="#3EA0FE" fill-opacity="0.35"/>
<path d="M38.1598 40.5324C38.8352 40.5342 39.3822 39.9889 39.3814 39.3146C39.3806 38.6402 38.8324 38.0921 38.1569 38.0904L38.1598 40.5324ZM33.4913 40.2851L32.9947 39.1674C32.9885 39.1701 32.9824 39.1729 32.9764 39.1756L33.4913 40.2851ZM32.6675 41.449L31.4713 41.6985C31.4757 41.7193 31.4806 41.74 31.4861 41.7605L32.6675 41.449ZM33.7553 42.6211L34.7825 43.2878C34.9798 42.9838 35.0311 42.6074 34.9225 42.2607C34.8139 41.914 34.5566 41.6328 34.2204 41.4936L33.7553 42.6211ZM33.7544 42.6225L32.7273 41.9557C32.5366 42.2494 32.4819 42.6112 32.5771 42.949C32.6723 43.2868 32.9082 43.568 33.2247 43.721L33.7544 42.6225ZM35.91 43.0458L35.9921 44.2644L36.0009 44.2638L35.91 43.0458ZM37.0724 42.8033L37.474 43.9582C37.4808 43.9558 37.4877 43.9534 37.4945 43.9509L37.0724 42.8033ZM38.8708 41.555L39.8034 42.3485C40.0306 42.082 40.1318 41.7304 40.0811 41.3833C40.0304 41.0362 39.8327 40.727 39.5385 40.5345L38.8708 41.555ZM38.8694 41.5541L37.9841 40.7083C37.7333 40.9701 37.6125 41.3301 37.6546 41.6908C37.6966 42.0514 37.8971 42.3753 38.2017 42.5746L38.8694 41.5541ZM39.3866 40.0471L40.5946 39.8602C40.5912 39.8392 40.5873 39.8183 40.5829 39.7975L39.3866 40.0471ZM38.177 38.0906C37.5016 38.0777 36.9457 38.6139 36.9354 39.2881C36.9251 39.9624 37.4642 40.5194 38.1396 40.5322L38.177 38.0906ZM38.1569 38.0904C37.8797 38.0897 37.4357 38.1579 37.0414 38.2253C36.6002 38.3007 36.0722 38.4028 35.5508 38.5116C35.0294 38.6204 34.5047 38.738 34.0703 38.8452C33.682 38.941 33.248 39.056 32.9947 39.1674L33.9879 41.4028C33.9754 41.4083 34.0216 41.3893 34.1686 41.3469C34.298 41.3096 34.4664 41.2652 34.6659 41.216C35.0641 41.1177 35.5587 41.0067 36.0599 40.9021C36.5611 40.7975 37.0589 40.7015 37.4632 40.6323C37.6659 40.5977 37.838 40.571 37.9717 40.5534C38.1234 40.5335 38.1734 40.5325 38.1598 40.5324L38.1569 38.0904ZM32.9764 39.1756C32.6644 39.319 32.2476 39.5576 31.9222 39.9422C31.5632 40.3663 31.3175 40.9767 31.4713 41.6985L33.8638 41.1994C33.8743 41.2485 33.8759 41.3222 33.8529 41.401C33.8316 41.4738 33.8003 41.5139 33.7931 41.5224C33.7877 41.5288 33.7989 41.5142 33.8408 41.4856C33.8815 41.4578 33.937 41.4264 34.0062 41.3946L32.9764 39.1756ZM31.4861 41.7605C31.7491 42.741 32.4955 43.4194 33.2902 43.7486L34.2204 41.4936C33.9856 41.3963 33.877 41.2419 33.8489 41.1374L31.4861 41.7605ZM32.7282 41.9543L32.7273 41.9557L34.7816 43.2892L34.7825 43.2878L32.7282 41.9543ZM33.2247 43.721C34.093 44.1408 35.0467 44.3244 35.9921 44.2644L35.8278 41.8273C35.3012 41.8606 34.7693 41.7585 34.2841 41.5239L33.2247 43.721ZM36.0009 44.2638C36.5091 44.2279 37.0005 44.1206 37.474 43.9582L36.6709 41.6484C36.3767 41.7494 36.0941 41.8084 35.819 41.8278L36.0009 44.2638ZM37.4945 43.9509C38.3827 43.6282 39.1804 43.0793 39.8034 42.3485L37.9382 40.7615C37.5898 41.1701 37.1447 41.4761 36.6504 41.6557L37.4945 43.9509ZM39.5385 40.5345L39.5371 40.5336L38.2017 42.5746L38.2031 42.5755L39.5385 40.5345ZM39.7548 42.3999C40.3476 41.7812 40.7539 40.8622 40.5946 39.8602L38.1787 40.234C38.1957 40.3409 38.1593 40.5255 37.9841 40.7083L39.7548 42.3999ZM40.5829 39.7975C40.4292 39.0757 39.9554 38.6153 39.4541 38.3707C38.9995 38.1489 38.5209 38.0971 38.177 38.0906L38.1396 40.5322C38.216 40.5337 38.2796 40.5402 38.3282 40.5494C38.3781 40.5588 38.3943 40.5677 38.3867 40.564C38.3768 40.5591 38.3317 40.5349 38.2826 40.4768C38.2294 40.4139 38.2008 40.3458 38.1903 40.2967L40.5829 39.7975Z" fill="url(#paint3_linear_80_1385)" mask="url(#path-7-outside-2_80_1385)"/>
</g>
<g filter="url(#filter3_bd_80_1385)">
<path d="M35.5345 23.0786C35.1164 22.9857 34.6943 23.2273 34.5639 23.6187C34.52 23.8365 34.5549 24.0672 34.6793 24.251C34.8036 24.4349 34.9983 24.5652 35.2265 24.6132L35.2567 24.6221C35.9362 24.8242 36.4244 25.4195 36.4704 26.1057C36.4926 26.553 36.8755 26.8977 37.3247 26.8844C37.7769 26.8615 38.1232 26.4924 38.1059 26.0571C38.0067 24.6731 37.021 23.4892 35.6502 23.113L35.5345 23.0786Z" fill="url(#paint4_linear_80_1385)"/>
<path d="M35.2523 24.4938L35.2524 24.4934L35.262 24.4962L35.2922 24.5052C36.0184 24.7212 36.5429 25.358 36.5925 26.097L36.5926 26.097L36.5927 26.0991C36.6114 26.4783 36.9366 26.7731 37.3204 26.7625C37.7072 26.7422 37.9971 26.4283 37.9837 26.0644C37.8875 24.734 36.9389 23.5934 35.6172 23.2306L35.6172 23.2306L35.6147 23.2299L35.5033 23.1968C35.1498 23.1204 34.795 23.324 34.6824 23.6496C34.6464 23.8375 34.6784 24.0311 34.7809 24.1825C34.8871 24.3395 35.0542 24.4521 35.2523 24.4938Z" stroke="url(#paint5_linear_80_1385)" stroke-opacity="0.5" stroke-width="0.24441"/>
</g>
<defs>
<filter id="filter0_f_80_1385" x="3.62726" y="8.08863" width="43.3519" height="45.4095" filterUnits="userSpaceOnUse" color-interpolation-filters="sRGB">
<feFlood flood-opacity="0" result="BackgroundImageFix"/>
<feBlend mode="normal" in="SourceGraphic" in2="BackgroundImageFix" result="shape"/>
<feGaussianBlur stdDeviation="9.16537" result="effect1_foregroundBlur_80_1385"/>
</filter>
<filter id="filter1_b_80_1385" x="5.05158" y="0.313238" width="58.9476" height="58.4408" filterUnits="userSpaceOnUse" color-interpolation-filters="sRGB">
<feFlood flood-opacity="0" result="BackgroundImageFix"/>
<feGaussianBlur in="BackgroundImageFix" stdDeviation="9.16537"/>
<feComposite in2="SourceAlpha" operator="in" result="effect1_backgroundBlur_80_1385"/>
<feBlend mode="normal" in="SourceGraphic" in2="effect1_backgroundBlur_80_1385" result="shape"/>
</filter>
<filter id="filter2_b_80_1385" x="13.0941" y="19.7596" width="45.8661" height="42.8465" filterUnits="userSpaceOnUse" color-interpolation-filters="sRGB">
<feFlood flood-opacity="0" result="BackgroundImageFix"/>
<feGaussianBlur in="BackgroundImageFix" stdDeviation="9.16537"/>
<feComposite in2="SourceAlpha" operator="in" result="effect1_backgroundBlur_80_1385"/>
<feBlend mode="normal" in="SourceGraphic" in2="effect1_backgroundBlur_80_1385" result="shape"/>
</filter>
<filter id="filter3_bd_80_1385" x="16.2152" y="4.72797" width="40.222" height="40.4875" filterUnits="userSpaceOnUse" color-interpolation-filters="sRGB">
<feFlood flood-opacity="0" result="BackgroundImageFix"/>
<feGaussianBlur in="BackgroundImageFix" stdDeviation="9.16537"/>
<feComposite in2="SourceAlpha" operator="in" result="effect1_backgroundBlur_80_1385"/>
<feColorMatrix in="SourceAlpha" type="matrix" values="0 0 0 0 0 0 0 0 0 0 0 0 0 0 0 0 0 0 127 0" result="hardAlpha"/>
<feOffset dx="6.11025" dy="6.11025"/>
<feGaussianBlur stdDeviation="6.11025"/>
<feColorMatrix type="matrix" values="0 0 0 0 0.15375 0 0 0 0 0.522433 0 0 0 0 0.9 0 0 0 0.5 0"/>
<feBlend mode="normal" in2="effect1_backgroundBlur_80_1385" result="effect2_dropShadow_80_1385"/>
<feBlend mode="normal" in="SourceGraphic" in2="effect2_dropShadow_80_1385" result="shape"/>
</filter>
<linearGradient id="paint0_linear_80_1385" x1="33.8466" y1="26.0888" x2="16.5043" y2="34.5089" gradientUnits="userSpaceOnUse">
<stop stop-color="#39AFFD"/>
<stop offset="1" stop-color="#477FFF"/>
</linearGradient>
<linearGradient id="paint1_linear_80_1385" x1="25.6888" y1="38.4648" x2="22.4575" y2="41.5987" gradientUnits="userSpaceOnUse">
<stop stop-color="#39AFFD"/>
<stop offset="1" stop-color="#477FFF"/>
</linearGradient>
<linearGradient id="paint2_linear_80_1385" x1="25.4056" y1="23.5674" x2="40.0903" y2="36.4084" gradientUnits="userSpaceOnUse">
<stop stop-color="white" stop-opacity="0.25"/>
<stop offset="1" stop-color="white" stop-opacity="0"/>
</linearGradient>
<linearGradient id="paint3_linear_80_1385" x1="33.5961" y1="40.5639" x2="35.8144" y2="43.9536" gradientUnits="userSpaceOnUse">
<stop stop-color="white" stop-opacity="0.25"/>
<stop offset="1" stop-color="white" stop-opacity="0"/>
</linearGradient>
<linearGradient id="paint4_linear_80_1385" x1="37.9816" y1="24.0409" x2="36.8859" y2="27.4134" gradientUnits="userSpaceOnUse">
<stop stop-color="white"/>
<stop offset="1" stop-color="white" stop-opacity="0.2"/>
</linearGradient>
<linearGradient id="paint5_linear_80_1385" x1="36.608" y1="26.3579" x2="37.367" y2="23.766" gradientUnits="userSpaceOnUse">
<stop stop-color="white"/>
<stop offset="1" stop-color="white" stop-opacity="0"/>
</linearGradient>
</defs>
</svg>
